{"glyphs":{"0":{"ha":783,"x_min":44,"x_max":768,"o":"m 325 -14 q 115 71 186 -14 q 44 317 44 156 q 56 489 44 404 q 92 651 68 574 q 153 792 117 728 q 240 906 190 857 q 351 981 289 954 q 489 1007 414 1007 q 612 983 560 1007 q 699 917 664 960 q 751 813 733 874 q 768 678 768 751 q 756 503 768 589 q 721 340 744 418 q 661 198 697 263 q 576 86 625 133 q 464 13 526 39 q 325 -14 401 -14 m 346 176 q 400 199 375 176 q 446 262 425 222 q 483 352 467 301 q 512 460 500 403 q 529 574 524 517 q 535 683 535 632 q 518 783 535 750 q 464 817 501 817 q 412 792 436 817 q 367 727 388 768 q 328 633 346 686 q 300 524 311 581 q 283 412 289 467 q 276 311 276 357 q 291 210 276 244 q 346 176 306 176 z "},"1":{"ha":783,"x_min":114,"x_max":703,"o":"m 381 553 q 394 610 386 578 q 413 677 403 643 q 432 738 424 711 q 390 703 417 724 q 344 671 364 683 l 210 588 l 114 744 l 514 992 l 703 992 l 493 0 l 260 0 l 381 553 z "},"2":{"ha":783,"x_min":-36,"x_max":750,"o":"m -36 0 l -4 158 l 322 449 q 415 538 378 499 q 474 610 453 578 q 506 670 496 643 q 515 721 515 697 q 492 785 515 764 q 432 807 469 807 q 369 796 400 807 q 304 763 338 785 q 232 706 271 740 l 119 861 q 278 965 192 925 q 472 1006 364 1006 q 624 973 563 1006 q 718 885 686 940 q 750 760 750 829 q 719 617 750 683 q 626 484 688 550 q 472 340 565 418 l 311 204 l 311 197 l 671 197 l 631 0 l -36 0 z "},"3":{"ha":783,"x_min":10,"x_max":756,"o":"m 272 -14 q 126 0 196 -14 q 10 40 57 14 l 10 242 q 134 190 68 207 q 264 174 200 174 q 347 182 310 174 q 412 208 385 190 q 454 252 439 225 q 469 317 469 279 q 454 372 469 349 q 400 409 439 396 q 288 422 361 422 l 211 422 l 244 593 l 296 593 q 383 601 342 593 q 457 626 425 610 q 506 669 489 643 q 524 733 524 696 q 501 791 524 765 q 422 817 478 817 q 321 797 368 817 q 233 754 274 778 l 138 907 q 282 978 207 951 q 469 1006 357 1006 q 624 976 560 1006 q 722 896 688 947 q 756 775 756 844 q 727 651 756 706 q 645 563 699 597 q 518 514 592 528 l 518 508 q 651 439 601 493 q 701 296 701 385 q 672 169 701 226 q 588 72 643 113 q 453 8 532 31 q 272 -14 374 -14 z "},"4":{"ha":783,"x_min":-12,"x_max":767,"o":"m 333 0 l 375 199 l -12 199 l 21 364 l 540 992 l 767 992 l 638 379 l 747 379 l 708 199 l 600 199 l 558 0 l 333 0 m 233 379 l 413 379 l 449 531 q 467 597 457 561 q 485 664 476 633 q 497 708 493 694 l 492 708 q 468 670 482 692 q 440 628 454 649 q 410 588 425 607 l 233 379 z "},"5":{"ha":783,"x_min":17,"x_max":781,"o":"m 285 -14 q 181 -7 233 -14 q 87 13 129 0 q 17 42 44 25 l 17 242 q 131 194 67 213 q 258 175 196 175 q 351 188 313 175 q 416 221 390 200 q 453 270 442 242 q 465 332 465 299 q 433 418 465 382 q 325 454 401 454 q 247 447 286 454 q 183 432 208 440 l 107 489 l 250 992 l 781 992 l 739 794 l 413 794 l 363 631 q 397 635 379 633 q 432 636 414 636 q 570 606 508 636 q 668 513 632 575 q 704 358 704 451 q 677 206 704 275 q 597 88 650 136 q 466 13 544 39 q 285 -14 388 -14 z "},"6":{"ha":783,"x_min":57,"x_max":799,"o":"m 363 -14 q 192 28 260 -14 q 90 147 124 69 q 57 331 57 225 q 71 485 57 407 q 111 636 85 563 q 176 772 138 710 q 263 879 214 835 q 371 954 315 926 q 493 994 426 982 q 643 1007 560 1007 q 725 1001 685 1007 q 799 988 765 996 l 760 803 q 699 815 733 810 q 633 819 664 819 q 469 788 535 819 q 362 695 403 757 q 293 539 321 633 l 299 539 q 349 596 321 569 q 417 638 378 622 q 510 653 457 653 q 672 588 613 653 q 732 392 732 524 q 710 249 732 321 q 645 118 689 178 q 531 22 601 58 q 363 -14 461 -14 m 369 172 q 426 190 401 172 q 466 236 450 207 q 490 301 482 265 q 499 374 499 336 q 479 444 499 418 q 419 471 460 471 q 363 455 389 471 q 318 413 336 439 q 293 357 300 386 q 288 334 290 346 q 285 310 286 322 q 285 286 285 299 q 291 239 285 260 q 308 203 297 218 q 334 181 318 189 q 369 172 350 172 z "},"7":{"ha":783,"x_min":39,"x_max":844,"o":"m 39 0 l 533 794 l 124 794 l 165 992 l 844 992 l 814 849 l 306 0 l 39 0 z "},"8":{"ha":783,"x_min":36,"x_max":774,"o":"m 356 -14 q 178 19 250 -14 q 72 108 107 53 q 36 233 36 164 q 63 358 36 304 q 141 453 89 413 q 267 519 193 493 q 214 571 239 542 q 173 638 189 600 q 157 726 157 676 q 195 867 157 803 q 308 969 233 931 q 490 1007 382 1007 q 647 976 583 1007 q 742 894 710 946 q 774 781 774 843 q 747 667 774 717 q 676 581 721 617 q 572 525 631 544 q 642 463 611 497 q 692 382 674 428 q 710 278 710 336 q 670 129 710 196 q 551 24 631 63 q 356 -14 472 -14 m 367 157 q 433 173 406 157 q 476 216 461 189 q 490 275 490 243 q 478 336 490 310 q 444 385 465 363 q 394 425 424 407 q 322 383 353 407 q 274 328 290 358 q 258 260 258 299 q 290 185 258 213 q 367 157 321 157 m 449 617 q 507 651 483 631 q 543 698 531 672 q 556 753 556 724 q 533 815 556 793 q 475 836 510 836 q 424 822 446 836 q 389 785 401 808 q 376 733 376 763 q 397 665 376 694 q 449 617 417 635 z "},"9":{"ha":783,"x_min":65,"x_max":754,"o":"m 218 -14 q 134 -8 174 -14 q 65 8 94 -1 l 65 199 q 131 180 94 188 q 211 172 168 172 q 332 195 281 174 q 419 254 383 217 q 477 342 454 292 q 514 450 500 392 l 508 450 q 460 394 488 419 q 396 353 433 368 q 307 339 358 339 q 181 373 232 339 q 105 468 131 407 q 79 607 79 529 q 99 744 79 675 q 162 874 118 814 q 278 970 206 933 q 454 1007 350 1007 q 619 967 553 1007 q 720 851 686 926 q 754 664 754 775 q 743 516 754 592 q 709 367 732 440 q 650 231 686 294 q 565 117 614 167 q 498 62 535 86 q 419 21 461 38 q 326 -5 376 4 q 218 -14 276 -14 m 393 521 q 449 538 425 521 q 491 581 474 554 q 515 635 508 607 q 522 669 519 651 q 525 704 525 686 q 516 764 525 739 q 488 804 507 789 q 440 819 469 819 q 386 803 410 819 q 346 760 363 788 q 321 699 329 732 q 313 631 313 665 q 333 549 313 576 q 393 521 354 521 z "},"\u0000":{"ha":0,"x_min":0,"x_max":0,"o":""},"\r":{"ha":361,"x_min":0,"x_max":0,"o":""}," ":{"ha":361,"x_min":0,"x_max":0,"o":""},"!":{"ha":408,"x_min":13,"x_max":457,"o":"m 90 339 l 200 992 l 457 992 l 288 339 l 90 339 m 128 -18 q 38 13 64 -18 q 13 82 13 44 q 49 183 13 139 q 164 228 85 228 q 245 201 215 228 q 275 125 275 174 q 234 20 275 58 q 128 -18 193 -18 z "},"\"":{"ha":629,"x_min":131,"x_max":674,"o":"m 415 633 l 465 992 l 674 992 l 569 633 l 415 633 m 131 633 l 179 992 l 388 992 l 282 633 l 131 633 z "},"#":{"ha":897,"x_min":19,"x_max":913,"o":"m 99 0 l 175 272 l 19 272 l 32 422 l 217 422 l 260 569 l 94 569 l 108 721 l 303 721 l 381 992 l 544 992 l 467 721 l 592 721 l 669 992 l 832 992 l 756 721 l 913 721 l 899 569 l 713 569 l 669 422 l 839 422 l 826 272 l 626 272 l 549 0 l 385 0 l 463 272 l 339 272 l 261 0 l 99 0 m 381 422 l 506 422 l 549 569 l 424 569 l 381 422 z "},"$":{"ha":783,"x_min":36,"x_max":776,"o":"m 275 51 q 140 72 199 57 q 38 113 82 88 l 36 304 q 169 252 97 274 q 313 226 240 231 l 357 431 q 242 490 293 457 q 163 569 192 522 q 135 682 135 617 q 176 826 135 767 q 293 919 218 885 q 468 958 368 953 l 489 1056 l 593 1056 l 571 957 q 678 937 628 951 q 776 897 728 922 l 707 728 q 622 761 668 747 q 533 779 576 775 l 492 583 q 612 521 563 554 q 688 443 661 488 q 714 335 714 399 q 675 192 714 254 q 561 94 636 131 q 376 50 486 57 l 350 -81 l 247 -81 l 275 51 m 415 229 q 464 247 444 235 q 493 276 483 258 q 503 315 503 293 q 496 349 503 335 q 478 374 489 364 q 450 392 467 385 l 415 229 m 431 778 q 388 763 406 774 q 361 735 371 753 q 351 693 351 718 q 356 664 351 676 q 372 642 361 651 q 397 625 383 632 l 431 778 z "},"%":{"ha":1236,"x_min":78,"x_max":1194,"o":"m 176 0 l 914 992 l 1090 992 l 357 0 l 176 0 m 282 383 q 131 441 183 383 q 78 608 78 499 q 87 711 78 657 q 117 818 96 765 q 172 913 138 871 q 256 981 207 956 q 369 1006 304 1006 q 522 948 469 1006 q 574 782 574 890 q 565 680 574 735 q 535 573 556 625 q 481 478 514 521 q 398 409 447 435 q 282 383 349 383 m 294 535 q 328 551 313 535 q 357 596 344 568 q 378 658 369 624 q 390 727 386 692 q 394 792 394 763 q 385 839 394 824 q 357 854 376 854 q 325 838 340 854 q 297 795 310 822 q 276 735 285 768 q 263 665 268 701 q 258 596 258 629 q 267 550 258 565 q 294 535 276 535 m 906 -12 q 751 43 804 -12 q 699 204 699 99 q 708 315 699 258 q 740 424 718 372 q 796 519 761 476 q 878 585 831 561 q 990 610 925 610 q 1142 552 1090 610 q 1194 389 1194 494 q 1185 285 1194 340 q 1156 176 1176 229 q 1101 81 1135 124 q 1019 13 1068 39 q 906 -12 971 -12 m 915 138 q 949 154 933 138 q 978 199 965 171 q 999 261 990 228 q 1011 330 1007 294 q 1015 396 1015 365 q 1006 442 1015 428 q 978 457 997 457 q 947 441 961 457 q 919 398 932 425 q 897 338 906 371 q 884 268 889 304 q 879 200 879 232 q 888 153 879 169 q 915 138 897 138 z "},"&":{"ha":1000,"x_min":28,"x_max":988,"o":"m 347 -14 q 113 55 199 -14 q 28 251 28 124 q 54 378 28 324 q 135 475 81 433 q 268 550 189 517 q 228 638 242 590 q 214 722 214 685 q 253 878 214 815 q 362 974 292 942 q 524 1007 432 1007 q 665 980 607 1007 q 755 905 724 953 q 786 793 786 857 q 757 674 786 726 q 674 579 728 621 q 546 503 621 538 l 657 349 q 715 440 690 389 q 758 543 740 490 l 988 543 q 930 408 963 472 q 859 288 897 343 q 776 186 821 233 l 910 0 l 644 0 l 604 56 q 490 6 554 25 q 347 -14 426 -14 m 378 176 q 425 181 403 176 q 467 191 447 185 q 501 206 486 197 l 358 413 q 307 376 328 397 q 276 331 286 356 q 265 274 265 306 q 278 227 265 250 q 315 190 290 204 q 378 176 340 176 m 457 632 q 501 658 481 644 q 538 688 522 671 q 564 726 554 706 q 574 772 574 747 q 556 822 574 804 q 511 839 538 839 q 465 826 485 839 q 435 790 446 813 q 425 738 425 767 q 433 685 425 715 q 457 632 440 656 z "},"'":{"ha":343,"x_min":131,"x_max":388,"o":"m 131 633 l 179 992 l 388 992 l 282 633 l 131 633 z "},"(":{"ha":493,"x_min":49,"x_max":589,"o":"m 150 -219 q 94 -90 118 -161 q 60 56 71 -19 q 49 204 49 132 q 71 431 49 324 q 137 638 93 539 q 244 827 181 736 q 392 1004 308 918 l 589 1004 q 453 834 515 924 q 344 644 390 744 q 273 433 299 544 q 247 196 247 321 q 257 56 247 128 q 284 -87 267 -17 q 326 -219 301 -157 l 150 -219 z "},")":{"ha":493,"x_min":-96,"x_max":443,"o":"m -96 -219 q 40 -49 -22 -139 q 147 140 101 40 q 218 353 193 240 q 243 589 243 465 q 234 730 243 658 q 207 872 225 801 q 164 1004 189 942 l 342 1004 q 399 874 376 944 q 432 728 421 803 q 443 581 443 654 q 422 353 443 461 q 357 147 400 246 q 250 -42 314 49 q 103 -219 186 -133 l -96 -219 z "},"*":{"ha":756,"x_min":110,"x_max":786,"o":"m 478 383 l 421 601 l 297 424 l 143 542 l 322 703 l 110 764 l 174 938 l 396 822 l 418 1067 l 608 1028 l 531 796 l 786 815 l 774 629 l 553 657 l 657 438 l 478 383 z "},"+":{"ha":803,"x_min":68,"x_max":749,"o":"m 490 572 l 749 572 l 749 407 l 490 407 l 490 154 l 326 154 l 326 407 l 68 407 l 68 572 l 326 572 l 326 828 l 490 828 l 490 572 z "},",":{"ha":410,"x_min":-69,"x_max":278,"o":"m -69 -179 q -22 -63 -44 -124 q 22 56 1 -3 q 60 161 43 114 l 272 161 l 278 146 q 228 41 257 97 q 167 -72 199 -15 q 103 -179 136 -128 l -69 -179 z "},"-":{"ha":451,"x_min":22,"x_max":426,"o":"m 22 278 l 61 467 l 426 467 l 386 278 l 22 278 z "},".":{"ha":410,"x_min":8,"x_max":271,"o":"m 121 -18 q 36 10 64 -18 q 8 82 8 38 q 48 187 8 146 q 160 228 88 228 q 240 202 210 228 q 271 125 271 176 q 230 18 271 54 q 121 -18 189 -18 z "},"/":{"ha":614,"x_min":-61,"x_max":713,"o":"m -61 -7 l 496 999 l 713 999 l 154 -7 l -61 -7 z "},":":{"ha":410,"x_min":8,"x_max":399,"o":"m 247 531 q 164 558 192 531 q 136 629 136 586 q 154 706 136 674 q 206 757 172 739 q 288 775 239 775 q 368 749 338 775 q 399 674 399 724 q 358 566 399 601 q 247 531 317 531 m 121 -18 q 36 10 64 -18 q 8 82 8 38 q 48 187 8 146 q 160 228 88 228 q 240 202 210 228 q 271 125 271 176 q 230 18 271 54 q 121 -18 189 -18 z "},";":{"ha":410,"x_min":-74,"x_max":399,"o":"m -74 -179 q -26 -63 -49 -124 q 18 56 -3 -3 q 56 161 39 114 l 269 161 l 275 146 q 224 41 253 97 q 164 -72 196 -15 q 99 -179 132 -128 l -74 -179 m 247 531 q 164 558 192 531 q 136 629 136 586 q 154 706 136 674 q 206 757 172 739 q 288 775 239 775 q 368 749 338 775 q 399 674 399 724 q 358 566 399 601 q 247 531 317 531 z "},"<":{"ha":803,"x_min":68,"x_max":747,"o":"m 747 129 l 68 431 l 68 536 l 747 876 l 747 696 l 304 490 l 747 310 l 747 129 z "},"=":{"ha":803,"x_min":68,"x_max":749,"o":"m 68 550 l 68 713 l 749 713 l 749 550 l 68 550 m 68 265 l 68 429 l 749 429 l 749 265 l 68 265 z "},">":{"ha":803,"x_min":68,"x_max":747,"o":"m 68 310 l 513 490 l 68 696 l 68 876 l 747 536 l 747 431 l 68 129 l 68 310 z "},"?":{"ha":656,"x_min":104,"x_max":699,"o":"m 174 339 q 206 456 186 408 q 262 542 226 504 q 353 618 297 579 q 425 670 399 649 q 463 711 451 692 q 474 754 474 731 q 457 801 474 783 q 397 819 440 819 q 301 801 353 819 q 186 749 250 782 l 115 918 q 257 980 179 954 q 422 1006 335 1006 q 625 945 551 1006 q 699 779 699 885 q 672 656 699 706 q 601 571 646 607 q 503 500 557 535 q 432 449 457 471 q 394 402 407 426 q 369 339 381 378 l 174 339 m 219 -18 q 129 13 154 -18 q 104 82 104 44 q 140 183 104 139 q 254 228 175 228 q 336 201 307 228 q 365 125 365 174 q 325 20 365 58 q 219 -18 285 -18 z "},"@":{"ha":1215,"x_min":60,"x_max":1188,"o":"m 536 -126 q 336 -93 425 -126 q 185 3 247 -60 q 92 151 124 65 q 60 339 60 236 q 93 571 60 467 q 188 755 126 675 q 330 889 249 835 q 506 971 411 943 q 704 999 601 999 q 963 947 854 999 q 1129 799 1071 896 q 1188 565 1188 703 q 1172 434 1188 497 q 1126 317 1156 371 q 1054 224 1097 264 q 958 162 1011 185 q 842 139 904 139 q 749 162 788 139 q 694 233 710 185 l 688 233 q 616 164 657 189 q 510 139 575 139 q 381 192 432 139 q 329 349 329 246 q 344 458 329 403 q 390 562 360 513 q 463 649 419 611 q 563 710 506 688 q 692 732 621 732 q 813 720 758 732 q 915 690 868 708 l 846 407 q 834 355 839 376 q 829 313 829 333 q 838 284 829 293 q 863 275 846 275 q 912 290 888 275 q 957 330 936 304 q 993 392 978 356 q 1017 471 1008 428 q 1025 563 1025 514 q 989 719 1025 653 q 878 821 953 785 q 688 857 803 857 q 537 835 607 857 q 409 769 467 813 q 310 665 351 726 q 245 525 268 603 q 222 354 222 447 q 260 176 222 253 q 371 58 299 100 q 544 15 443 15 q 700 31 621 15 q 856 76 779 46 l 856 -62 q 710 -108 793 -89 q 536 -126 628 -126 m 558 275 q 637 319 606 275 q 690 449 668 363 l 726 589 q 706 594 717 592 q 681 596 694 596 q 600 572 635 596 q 543 512 565 549 q 510 434 521 475 q 500 358 500 393 q 517 294 500 313 q 558 275 533 275 z "},"A":{"ha":903,"x_min":-83,"x_max":815,"o":"m -83 0 l 429 992 l 724 992 l 815 0 l 588 0 l 576 213 l 263 213 l 161 0 l -83 0 m 353 406 l 567 406 l 553 675 q 549 749 550 711 q 549 824 547 786 l 544 824 q 519 756 533 789 q 486 683 504 722 l 353 406 z "},"B":{"ha":869,"x_min":29,"x_max":854,"o":"m 29 0 l 239 992 l 547 992 q 716 967 647 992 q 819 893 785 942 q 854 772 854 844 q 830 653 854 704 q 759 569 806 603 q 644 518 713 535 l 644 513 q 747 445 708 493 q 785 324 785 397 q 733 139 785 211 q 592 33 681 67 q 392 0 503 0 l 29 0 m 394 189 q 476 205 442 189 q 529 251 510 221 q 549 322 549 282 q 522 398 549 372 q 436 424 496 424 l 354 424 l 304 189 l 394 189 m 468 604 q 549 618 517 604 q 597 658 581 632 q 613 724 613 685 q 588 785 613 764 q 511 806 563 806 l 435 806 l 392 604 l 468 604 z "},"C":{"ha":861,"x_min":78,"x_max":914,"o":"m 443 -14 q 240 34 321 -14 q 118 169 158 82 q 78 374 78 257 q 97 552 78 463 q 157 723 117 642 q 260 869 197 804 q 409 970 322 933 q 606 1007 496 1007 q 775 987 703 1007 q 914 928 847 967 l 825 742 q 718 792 769 774 q 606 811 667 811 q 501 786 547 811 q 419 719 454 761 q 361 622 385 676 q 326 506 338 567 q 315 386 315 446 q 358 233 315 283 q 488 182 400 182 q 603 197 546 182 q 726 239 661 213 l 726 43 q 599 3 671 19 q 443 -14 528 -14 z "},"D":{"ha":944,"x_min":29,"x_max":901,"o":"m 29 0 l 239 992 l 514 992 q 799 895 696 992 q 901 617 901 799 q 877 407 901 503 q 806 235 853 311 q 692 108 760 160 q 536 28 624 56 q 342 0 449 0 l 29 0 m 365 194 q 471 215 424 194 q 554 273 518 236 q 615 361 590 310 q 651 474 639 413 q 664 604 664 536 q 619 751 664 703 q 497 799 575 799 l 433 799 l 304 194 l 365 194 z "},"E":{"ha":765,"x_min":29,"x_max":810,"o":"m 29 0 l 239 992 l 810 992 l 769 800 l 433 800 l 394 610 l 707 610 l 665 418 l 351 418 l 304 194 l 640 194 l 600 0 l 29 0 z "},"F":{"ha":763,"x_min":29,"x_max":806,"o":"m 29 0 l 239 992 l 806 992 l 765 800 l 433 800 l 386 575 l 694 575 l 653 382 l 343 382 l 264 0 l 29 0 z "},"G":{"ha":964,"x_min":78,"x_max":949,"o":"m 447 -14 q 177 85 276 -14 q 78 376 78 183 q 101 568 78 475 q 170 740 124 661 q 286 880 217 819 q 449 974 356 940 q 658 1007 542 1007 q 813 990 740 1007 q 949 938 885 974 l 860 749 q 763 792 814 775 q 651 810 711 810 q 499 770 563 810 q 394 667 435 731 q 335 531 354 604 q 315 388 315 457 q 334 274 315 319 q 391 206 353 228 q 488 183 429 183 q 542 187 519 183 q 592 196 564 190 l 632 378 l 463 378 l 504 568 l 901 568 l 789 40 q 640 2 719 18 q 447 -14 560 -14 z "},"H":{"ha":981,"x_min":29,"x_max":988,"o":"m 29 0 l 239 992 l 474 992 l 394 613 l 675 613 l 754 992 l 988 992 l 778 0 l 544 0 l 632 417 l 351 417 l 264 0 l 29 0 z "},"I":{"ha":560,"x_min":-44,"x_max":636,"o":"m -44 0 l -17 135 l 111 189 l 242 800 l 136 857 l 164 992 l 636 992 l 608 857 l 475 800 l 346 189 l 453 135 l 425 0 l -44 0 z "},"J":{"ha":486,"x_min":-219,"x_max":493,"o":"m -85 -301 q -158 -296 -125 -301 q -219 -282 -192 -290 l -219 -90 q -168 -101 -196 -96 q -106 -106 -140 -106 q -29 -89 -62 -106 q 27 -34 4 -72 q 63 67 50 4 l 260 992 l 493 992 l 289 35 q 217 -160 264 -86 q 97 -268 171 -235 q -85 -301 24 -301 z "},"K":{"ha":888,"x_min":29,"x_max":1004,"o":"m 29 0 l 239 992 l 474 992 l 375 538 l 478 679 l 728 992 l 1004 992 l 614 525 l 806 0 l 544 0 l 413 397 l 338 354 l 264 0 l 29 0 z "},"L":{"ha":725,"x_min":29,"x_max":640,"o":"m 29 0 l 239 992 l 474 992 l 304 193 l 640 193 l 600 0 l 29 0 z "},"M":{"ha":1240,"x_min":29,"x_max":1247,"o":"m 29 0 l 239 992 l 549 992 l 572 267 l 578 267 l 928 992 l 1247 992 l 1036 0 l 825 0 l 914 425 q 944 558 929 499 q 972 663 960 617 q 993 742 985 710 l 988 742 l 628 0 l 410 0 l 388 742 l 382 742 q 366 638 375 694 q 347 525 357 582 q 326 417 338 468 l 239 0 l 29 0 z "},"N":{"ha":1071,"x_min":29,"x_max":1078,"o":"m 29 0 l 239 992 l 513 992 l 726 290 l 732 290 q 743 367 736 321 q 758 461 750 413 q 774 547 767 510 l 869 992 l 1078 992 l 868 0 l 601 0 l 381 725 l 374 725 q 369 683 372 715 q 360 608 365 651 q 347 522 354 565 q 332 442 339 478 l 239 0 l 29 0 z "},"O":{"ha":1018,"x_min":78,"x_max":975,"o":"m 451 -14 q 244 33 328 -14 q 119 166 161 81 q 78 365 78 251 q 92 520 78 443 q 134 669 106 597 q 206 801 163 740 q 309 909 250 863 q 443 981 368 956 q 608 1007 518 1007 q 883 904 790 1007 q 975 631 975 801 q 962 474 975 553 q 920 324 949 396 q 849 190 892 251 q 749 83 807 128 q 616 12 690 38 q 451 -14 542 -14 m 471 182 q 542 197 507 182 q 606 240 576 211 q 660 308 636 268 q 701 397 683 347 q 728 504 719 446 q 738 626 738 563 q 700 762 738 713 q 589 811 663 811 q 513 794 549 811 q 446 747 476 778 q 391 675 415 717 q 349 583 367 633 q 324 478 332 533 q 315 367 315 424 q 333 266 315 307 q 386 203 351 225 q 471 182 421 182 z "},"P":{"ha":856,"x_min":29,"x_max":851,"o":"m 29 0 l 239 992 l 506 992 q 707 954 631 992 q 817 850 783 917 q 851 699 851 783 q 819 543 851 610 q 729 432 788 476 q 592 365 671 388 q 418 342 513 342 l 335 342 l 264 0 l 29 0 m 442 535 q 534 554 494 535 q 595 609 574 574 q 617 692 617 644 q 589 770 617 742 q 504 799 561 799 l 433 799 l 376 535 l 442 535 z "},"Q":{"ha":1018,"x_min":78,"x_max":975,"o":"m 460 -14 q 451 -14 456 -14 q 443 -14 447 -14 q 242 33 324 -14 q 119 166 161 81 q 78 365 78 251 q 92 520 78 443 q 135 669 106 597 q 207 801 164 740 q 309 909 250 863 q 443 981 368 956 q 610 1007 518 1007 q 883 904 790 1007 q 975 631 975 801 q 964 487 975 558 q 929 349 953 415 q 869 223 906 282 q 785 117 833 164 q 676 39 738 71 l 843 -236 l 575 -236 l 460 -14 m 465 185 q 538 199 503 185 q 604 242 574 214 q 659 309 635 269 q 701 399 683 349 q 728 506 719 449 q 738 628 738 564 q 700 762 738 714 q 592 810 663 810 q 515 794 551 810 q 449 749 479 778 q 393 678 418 719 q 351 588 368 638 q 324 481 333 538 q 315 364 315 425 q 333 265 315 306 q 384 205 350 225 q 465 185 418 185 z "},"R":{"ha":872,"x_min":29,"x_max":828,"o":"m 29 0 l 239 992 l 492 992 q 739 926 650 992 q 828 719 828 860 q 799 576 828 636 q 722 477 769 515 q 622 418 675 439 l 800 0 l 544 0 l 408 372 l 342 372 l 264 0 l 29 0 m 426 557 q 492 565 463 557 q 544 592 522 574 q 579 639 567 610 q 592 706 592 668 q 565 779 592 753 q 478 806 539 806 l 433 806 l 382 557 l 426 557 z "},"S":{"ha":747,"x_min":28,"x_max":763,"o":"m 276 -14 q 138 3 203 -14 q 28 49 74 19 l 28 258 q 152 203 86 225 q 281 181 218 181 q 335 186 311 181 q 378 204 360 192 q 406 234 396 217 q 415 276 415 251 q 400 333 415 308 q 358 378 385 357 q 299 425 332 400 q 219 499 256 460 q 160 587 182 538 q 138 701 138 636 q 162 824 138 768 q 232 920 186 879 q 342 983 278 961 q 483 1006 406 1006 q 632 988 563 1006 q 763 936 701 971 l 681 758 q 581 797 631 782 q 485 813 531 813 q 436 806 457 813 q 401 785 415 799 q 381 754 388 771 q 374 718 374 738 q 386 667 374 690 q 424 622 399 644 q 490 571 450 600 q 581 492 546 533 q 634 403 617 450 q 651 299 651 356 q 624 164 651 222 q 547 66 597 106 q 428 6 497 26 q 276 -14 360 -14 z "},"T":{"ha":751,"x_min":110,"x_max":843,"o":"m 171 0 l 338 796 l 110 796 l 151 992 l 843 992 l 800 796 l 572 796 l 404 0 l 171 0 z "},"U":{"ha":967,"x_min":90,"x_max":978,"o":"m 411 -14 q 237 22 308 -14 q 128 122 165 58 q 90 269 90 186 q 92 316 90 290 q 100 365 94 342 l 233 992 l 468 992 l 336 369 q 328 328 331 349 q 325 289 325 307 q 353 211 325 239 q 435 183 381 183 q 520 204 486 183 q 576 268 554 225 q 613 378 599 311 l 743 992 l 978 992 l 842 354 q 767 159 818 242 q 630 31 717 76 q 411 -14 543 -14 z "},"V":{"ha":836,"x_min":114,"x_max":951,"o":"m 193 0 l 114 992 l 342 992 l 368 439 q 369 367 369 408 q 368 287 369 326 q 363 219 367 247 l 368 219 q 402 324 382 269 q 440 418 422 379 l 707 992 l 951 992 l 451 0 l 193 0 z "},"W":{"ha":1268,"x_min":115,"x_max":1393,"o":"m 147 0 l 115 992 l 336 992 l 335 471 q 331 351 333 415 q 324 236 329 286 l 329 236 q 369 345 347 286 q 413 451 392 404 l 651 992 l 856 992 l 863 444 q 863 384 864 421 q 861 307 863 347 q 857 232 860 267 l 863 232 q 889 314 874 269 q 921 403 904 358 q 951 482 938 447 l 1158 992 l 1393 992 l 958 0 l 688 0 l 681 418 q 681 507 681 468 q 681 581 681 546 q 685 651 682 615 l 679 651 q 639 538 660 593 q 594 429 618 482 l 406 0 l 147 0 z "},"X":{"ha":878,"x_min":-82,"x_max":985,"o":"m -82 0 l 304 522 l 149 992 l 394 992 l 489 656 l 718 992 l 985 992 l 617 500 l 797 0 l 540 0 l 432 354 l 182 0 l -82 0 z "},"Y":{"ha":808,"x_min":119,"x_max":931,"o":"m 199 0 l 279 382 l 119 992 l 360 992 l 435 606 l 669 992 l 931 992 l 513 382 l 432 0 l 199 0 z "},"Z":{"ha":746,"x_min":-51,"x_max":819,"o":"m -51 0 l -22 149 l 478 799 l 129 799 l 169 992 l 819 992 l 789 840 l 283 193 l 671 193 l 631 0 l -51 0 z "},"[":{"ha":478,"x_min":-31,"x_max":571,"o":"m -31 -226 l 232 1004 l 571 1004 l 538 849 l 392 849 l 196 -69 l 342 -69 l 308 -226 l -31 -226 z "},"\\":{"ha":614,"x_min":150,"x_max":501,"o":"m 304 -7 l 150 999 l 342 999 l 501 -7 l 304 -7 z "},"]":{"ha":478,"x_min":-92,"x_max":507,"o":"m -92 -226 l -58 -69 l 86 -69 l 281 849 l 135 849 l 169 1004 l 507 1004 l 244 -226 l -92 -226 z "},"^":{"ha":756,"x_min":11,"x_max":732,"o":"m 11 347 l 435 994 l 542 994 l 732 347 l 564 347 l 453 757 l 193 347 l 11 347 z "},"_":{"ha":588,"x_min":-126,"x_max":494,"o":"m -126 -236 l -97 -108 l 494 -108 l 465 -236 l -126 -236 z "},"`":{"ha":467,"x_min":201,"x_max":510,"o":"m 368 842 q 306 906 339 869 q 246 981 274 943 q 201 1050 218 1018 l 201 1064 l 438 1064 q 456 999 446 1033 q 479 928 465 964 q 510 858 493 893 l 510 842 l 368 842 z "},"a":{"ha":833,"x_min":60,"x_max":814,"o":"m 275 -14 q 169 13 219 -14 q 90 103 119 40 q 60 269 60 165 q 74 406 60 335 q 117 542 89 476 q 187 661 144 608 q 285 745 229 714 q 406 776 340 776 q 487 763 453 776 q 547 725 521 750 q 589 667 572 700 l 594 667 l 632 763 l 814 763 l 651 0 l 472 0 l 481 92 l 475 92 q 424 38 453 61 q 358 0 394 14 q 275 -14 322 -14 m 368 172 q 436 203 406 172 q 489 282 467 233 q 521 385 511 331 q 527 434 525 410 q 529 486 529 458 q 510 561 529 532 q 453 590 490 590 q 403 572 426 590 q 360 524 381 554 q 325 454 339 493 q 303 371 311 415 q 294 282 294 326 q 313 200 294 228 q 368 172 332 172 z "},"b":{"ha":835,"x_min":21,"x_max":775,"o":"m 429 -14 q 351 -2 385 -14 q 292 33 318 10 q 243 92 265 57 l 238 92 l 201 0 l 21 0 l 244 1056 l 475 1056 l 438 878 q 420 805 431 843 q 399 733 410 767 q 379 674 388 699 l 385 674 q 429 725 406 701 q 483 763 453 749 q 560 776 514 776 q 665 749 617 776 q 744 660 714 722 q 775 493 775 597 q 760 357 775 428 q 717 220 746 286 q 647 101 689 154 q 550 17 606 49 q 429 -14 494 -14 m 381 172 q 431 190 407 172 q 474 239 454 208 q 509 309 494 269 q 532 393 524 349 q 540 481 540 438 q 522 563 540 535 q 465 590 503 590 q 415 575 438 590 q 376 535 393 560 q 344 478 358 510 q 322 411 331 446 q 310 343 314 376 q 306 282 306 310 q 325 203 306 233 q 381 172 344 172 z "},"c":{"ha":685,"x_min":60,"x_max":700,"o":"m 343 -14 q 201 16 265 -14 q 98 111 136 46 q 60 282 60 176 q 78 438 60 364 q 129 573 96 511 q 212 681 163 635 q 325 751 261 726 q 465 776 389 776 q 591 764 535 776 q 700 725 647 751 l 628 551 q 554 579 592 567 q 475 592 517 592 q 397 565 431 592 q 339 494 363 538 q 304 399 315 450 q 293 299 293 347 q 305 226 293 254 q 340 185 317 199 q 394 172 363 172 q 489 188 444 172 q 583 229 533 204 l 583 43 q 475 1 532 17 q 343 -14 418 -14 z "},"d":{"ha":832,"x_min":60,"x_max":875,"o":"m 275 -14 q 169 13 219 -14 q 90 103 119 40 q 60 271 60 165 q 74 407 60 336 q 117 544 89 478 q 187 662 144 610 q 284 745 229 714 q 406 776 339 776 q 480 763 450 776 q 531 726 510 750 q 572 669 553 701 l 578 669 q 580 703 578 675 q 586 766 582 731 q 596 831 590 801 l 643 1056 l 875 1056 l 651 0 l 471 0 l 481 92 l 475 92 q 424 38 453 61 q 360 0 396 14 q 275 -14 324 -14 m 371 172 q 420 188 399 172 q 459 228 442 203 q 490 285 476 253 q 513 353 504 318 q 525 421 521 388 q 529 481 529 454 q 510 560 529 531 q 454 590 490 590 q 403 572 426 590 q 360 524 381 554 q 326 454 340 493 q 303 371 311 415 q 294 282 294 326 q 314 200 294 228 q 371 172 333 172 z "},"e":{"ha":788,"x_min":60,"x_max":756,"o":"m 361 -14 q 201 20 268 -14 q 97 121 133 54 q 60 285 60 188 q 87 467 60 379 q 167 625 114 556 q 301 735 221 694 q 490 776 382 776 q 688 718 619 776 q 756 567 756 660 q 729 456 756 506 q 651 369 703 406 q 519 314 600 333 q 329 294 439 294 l 293 294 q 292 284 292 289 q 292 274 292 279 q 324 188 292 218 q 415 157 356 157 q 525 172 475 157 q 639 218 575 188 l 639 50 q 515 3 578 19 q 361 -14 451 -14 m 342 444 q 454 460 413 444 q 515 503 496 476 q 535 557 535 529 q 518 600 535 585 q 471 615 501 615 q 404 592 436 615 q 349 529 372 568 q 317 444 326 490 l 342 444 z "},"f":{"ha":542,"x_min":-146,"x_max":689,"o":"m -17 -333 q -87 -328 -51 -333 q -146 -317 -124 -324 l -146 -133 q -106 -142 -125 -139 q -67 -146 -86 -146 q 8 -122 -21 -146 q 47 -44 36 -97 l 182 588 l 69 588 l 94 701 l 219 761 l 232 815 q 272 930 247 883 q 331 1006 296 976 q 411 1049 365 1035 q 514 1063 457 1063 q 610 1053 565 1063 q 689 1026 654 1043 l 629 863 q 588 877 610 871 q 540 883 565 883 q 488 863 508 883 q 460 808 467 843 l 450 763 l 596 763 l 558 588 l 413 588 l 269 -81 q 222 -209 256 -151 q 131 -300 189 -267 q -17 -333 72 -333 z "},"g":{"ha":833,"x_min":18,"x_max":814,"o":"m 265 -333 q 124 -320 181 -333 q 18 -287 68 -307 l 18 -92 q 92 -123 54 -110 q 172 -143 131 -136 q 256 -150 213 -150 q 365 -119 324 -150 q 422 -28 407 -87 l 428 -3 q 441 44 433 18 q 454 89 449 71 l 449 89 q 402 40 428 63 q 342 3 376 17 q 263 -11 308 -11 q 160 17 207 -11 q 87 107 114 46 q 60 268 60 168 q 74 406 60 335 q 117 542 89 476 q 188 661 146 608 q 283 745 229 714 q 403 776 338 776 q 483 764 450 776 q 540 728 515 751 q 589 667 565 704 l 594 667 l 632 763 l 814 763 l 647 -18 q 567 -206 622 -137 q 436 -304 513 -275 q 265 -333 360 -333 m 372 172 q 419 186 399 172 q 458 224 440 200 q 489 279 475 249 q 511 344 503 310 q 524 415 519 379 q 529 481 529 450 q 510 560 529 531 q 454 590 490 590 q 403 572 428 590 q 360 524 379 554 q 326 454 340 493 q 303 371 311 415 q 294 282 294 326 q 315 200 294 228 q 372 172 336 172 z "},"h":{"ha":850,"x_min":21,"x_max":782,"o":"m 21 0 l 244 1056 l 475 1056 l 438 879 q 421 809 432 847 q 399 735 410 771 q 378 674 388 700 l 383 674 q 440 730 410 707 q 506 765 469 753 q 583 776 542 776 q 696 748 651 776 q 761 671 740 719 q 782 558 782 622 q 778 492 782 528 q 767 421 774 457 l 678 0 l 447 0 l 538 432 q 545 476 542 453 q 549 519 549 500 q 532 574 549 557 q 486 592 515 592 q 419 561 450 592 q 364 474 388 531 q 324 342 340 418 l 251 0 l 21 0 z "},"i":{"ha":431,"x_min":21,"x_max":465,"o":"m 21 0 l 182 763 l 414 763 l 251 0 l 21 0 m 329 847 q 247 867 281 847 q 214 936 214 888 q 231 1008 214 979 q 278 1051 247 1036 q 351 1067 308 1067 q 431 1047 397 1067 q 465 978 465 1028 q 432 883 465 919 q 329 847 399 847 z "},"j":{"ha":431,"x_min":-179,"x_max":469,"o":"m -51 -333 q -121 -328 -85 -333 q -179 -317 -157 -324 l -179 -133 q -138 -143 -156 -140 q -101 -146 -121 -146 q -50 -135 -74 -146 q -10 -101 -26 -125 q 15 -37 7 -76 l 186 763 l 417 763 l 239 -74 q 192 -202 225 -143 q 99 -297 158 -261 q -51 -333 40 -333 m 332 847 q 251 867 283 847 q 218 936 218 888 q 234 1008 218 979 q 281 1051 250 1036 q 354 1067 313 1067 q 435 1047 400 1067 q 469 978 469 1028 q 435 883 469 919 q 332 847 401 847 z "},"k":{"ha":821,"x_min":21,"x_max":892,"o":"m 21 0 l 243 1056 l 474 1056 l 376 594 q 356 513 369 558 q 335 444 342 468 l 340 444 l 628 763 l 892 763 l 556 418 l 746 0 l 486 0 l 376 276 l 300 233 l 251 0 l 21 0 z "},"l":{"ha":431,"x_min":21,"x_max":475,"o":"m 21 0 l 244 1056 l 475 1056 l 251 0 l 21 0 z "},"m":{"ha":1271,"x_min":21,"x_max":1203,"o":"m 21 0 l 182 763 l 363 763 l 350 629 l 356 629 q 418 710 385 678 q 493 760 451 743 q 588 776 535 776 q 708 738 665 776 q 767 629 751 699 l 772 629 q 837 709 801 676 q 916 759 872 742 q 1011 776 960 776 q 1154 718 1106 776 q 1203 554 1203 660 q 1199 494 1203 528 q 1188 425 1194 460 l 1099 0 l 868 0 l 958 436 q 966 477 963 456 q 969 521 969 499 q 954 574 969 557 q 911 592 939 592 q 856 574 881 592 q 810 522 831 556 q 774 442 789 489 q 746 340 758 396 l 676 0 l 444 0 l 536 436 q 544 478 540 456 q 547 517 547 500 q 531 574 547 557 q 489 592 515 592 q 437 575 461 592 q 392 526 413 558 q 354 448 371 494 q 325 342 338 401 l 251 0 l 21 0 z "},"n":{"ha":850,"x_min":21,"x_max":782,"o":"m 21 0 l 182 763 l 363 763 l 351 638 l 357 638 q 417 713 385 682 q 491 760 450 744 q 583 776 532 776 q 696 748 651 776 q 761 671 740 719 q 782 558 782 622 q 778 492 782 528 q 767 421 774 457 l 678 0 l 447 0 l 538 432 q 545 476 542 453 q 549 519 549 500 q 532 574 549 557 q 486 592 515 592 q 419 560 450 592 q 364 473 388 529 q 324 342 340 417 l 251 0 l 21 0 z "},"o":{"ha":826,"x_min":60,"x_max":768,"o":"m 351 -14 q 197 22 263 -14 q 95 122 131 57 q 60 279 60 188 q 76 433 60 360 q 126 569 93 507 q 210 678 160 632 q 326 751 260 725 q 476 776 393 776 q 633 742 568 776 q 733 640 697 707 q 768 479 768 574 q 751 328 768 401 q 701 193 735 256 q 619 84 668 131 q 503 12 569 38 q 351 -14 436 -14 m 375 167 q 428 184 403 167 q 472 232 453 201 q 505 303 492 263 q 526 389 518 343 q 533 482 533 435 q 525 543 533 518 q 499 582 517 568 q 454 596 482 596 q 397 576 422 596 q 353 525 372 557 q 321 451 335 493 q 300 365 307 410 q 293 276 293 319 q 314 194 293 222 q 375 167 335 167 z "},"p":{"ha":835,"x_min":-50,"x_max":775,"o":"m -50 -333 l 182 763 l 363 763 l 353 661 l 358 661 q 410 720 381 694 q 475 761 439 746 q 556 776 511 776 q 667 747 617 776 q 746 655 717 717 q 775 497 775 593 q 759 349 775 422 q 713 210 743 275 q 641 94 683 144 q 544 15 599 44 q 426 -14 490 -14 q 356 0 386 -14 q 302 38 325 14 q 261 92 279 61 l 256 92 q 244 -13 251 36 q 224 -132 238 -62 l 181 -333 l -50 -333 m 383 172 q 433 190 410 172 q 476 239 457 208 q 510 309 496 269 q 532 393 524 349 q 540 481 540 438 q 522 563 540 535 q 465 590 503 590 q 415 576 438 590 q 376 536 393 561 q 344 479 358 511 q 322 413 331 447 q 310 344 314 378 q 306 282 306 310 q 326 203 306 233 q 383 172 347 172 z "},"q":{"ha":833,"x_min":60,"x_max":814,"o":"m 397 -118 q 415 -47 404 -85 q 436 28 425 -8 q 456 89 447 64 l 450 89 q 403 38 429 63 q 343 0 376 14 q 264 -14 310 -14 q 167 14 214 -14 q 90 103 121 42 q 60 268 60 165 q 74 406 60 335 q 117 542 89 476 q 187 661 144 608 q 284 745 229 714 q 406 776 339 776 q 483 765 450 776 q 540 728 515 753 q 589 667 565 704 l 594 667 l 632 763 l 814 763 l 581 -333 l 349 -333 l 397 -118 m 372 172 q 421 188 399 172 q 460 228 443 203 q 491 285 478 253 q 513 353 504 318 q 525 421 521 388 q 529 481 529 454 q 510 560 529 531 q 454 590 490 590 q 403 572 426 590 q 360 524 381 554 q 326 454 340 493 q 303 371 311 415 q 294 282 294 326 q 315 200 294 228 q 372 172 335 172 z "},"r":{"ha":594,"x_min":21,"x_max":650,"o":"m 21 0 l 182 763 l 363 763 l 350 628 l 356 628 q 422 712 388 679 q 498 760 457 744 q 589 776 539 776 q 624 775 606 776 q 650 771 642 774 l 600 544 q 567 553 588 550 q 524 557 547 557 q 459 544 490 557 q 402 506 428 532 q 356 438 376 479 q 324 339 336 396 l 251 0 l 21 0 z "},"s":{"ha":675,"x_min":18,"x_max":647,"o":"m 251 -14 q 121 -3 178 -14 q 18 31 64 7 l 18 218 q 128 172 75 186 q 239 157 182 157 q 289 163 264 157 q 331 184 314 169 q 347 222 347 199 q 339 254 347 240 q 308 285 331 268 q 238 328 285 303 q 158 383 190 354 q 110 449 126 413 q 94 535 94 486 q 129 664 94 610 q 231 747 164 718 q 396 776 297 776 q 527 760 465 776 q 647 708 589 744 l 574 551 q 488 594 535 576 q 399 611 442 611 q 350 598 371 611 q 329 556 329 585 q 338 528 329 540 q 369 502 347 515 q 426 469 390 489 q 510 415 475 446 q 563 346 544 385 q 582 258 582 307 q 541 107 582 168 q 426 16 500 46 q 251 -14 353 -14 z "},"t":{"ha":600,"x_min":54,"x_max":621,"o":"m 278 -14 q 131 27 183 -14 q 78 165 78 68 q 81 215 78 188 q 89 265 85 242 l 158 588 l 54 588 l 78 701 l 217 760 l 308 921 l 460 921 l 426 763 l 621 763 l 582 588 l 389 588 l 321 271 q 316 242 318 257 q 314 219 314 228 q 328 183 314 194 q 365 172 343 172 q 422 180 393 172 q 482 200 450 188 l 482 26 q 394 -3 444 8 q 278 -14 343 -14 z "},"u":{"ha":850,"x_min":71,"x_max":831,"o":"m 268 -14 q 156 15 200 -14 q 92 92 113 43 q 71 204 71 142 q 75 276 71 236 q 88 354 79 315 l 174 763 l 404 763 l 314 332 q 306 288 308 311 q 303 243 303 264 q 319 190 303 207 q 365 172 336 172 q 432 203 401 172 q 487 290 463 233 q 528 421 511 347 l 600 763 l 831 763 l 669 0 l 489 0 l 500 125 l 493 125 q 433 49 467 81 q 360 2 400 18 q 268 -14 319 -14 z "},"v":{"ha":732,"x_min":65,"x_max":813,"o":"m 161 0 l 65 763 l 293 763 l 317 371 q 318 330 318 353 q 318 283 318 307 q 318 239 318 260 l 324 239 q 339 281 331 258 q 356 326 347 304 q 372 363 365 349 l 564 763 l 813 763 l 400 0 l 161 0 z "},"w":{"ha":1117,"x_min":78,"x_max":1190,"o":"m 117 0 l 78 763 l 294 763 l 296 408 q 294 314 296 361 q 288 218 293 267 l 293 218 q 313 279 301 246 q 335 342 325 313 q 351 386 344 371 l 504 763 l 751 763 l 742 393 q 740 313 742 357 q 733 218 739 269 l 740 218 q 760 282 749 247 q 785 350 772 317 q 807 410 797 383 l 958 763 l 1190 763 l 829 0 l 576 0 l 578 331 q 581 405 579 363 q 585 492 582 447 q 590 571 588 536 l 583 571 q 558 493 572 535 q 531 414 544 451 q 506 350 517 376 l 363 0 l 117 0 z "},"x":{"ha":760,"x_min":-74,"x_max":838,"o":"m -74 0 l 249 390 l 103 763 l 351 763 l 417 543 l 565 763 l 838 763 l 522 378 l 682 0 l 429 0 l 358 228 l 196 0 l -74 0 z "},"y":{"ha":738,"x_min":-92,"x_max":811,"o":"m 10 -333 q -52 -330 -28 -333 q -92 -321 -76 -326 l -92 -137 q -58 -143 -76 -140 q -15 -146 -39 -146 q 88 -114 49 -146 q 157 -26 126 -82 l 174 4 l 63 763 l 293 763 l 325 411 q 329 353 328 383 q 331 297 331 324 q 331 244 331 269 l 336 244 q 353 293 344 267 q 374 348 363 319 q 397 404 385 376 l 563 763 l 811 763 l 354 -103 q 262 -232 313 -181 q 149 -308 211 -283 q 10 -333 88 -333 z "},"z":{"ha":651,"x_min":-31,"x_max":676,"o":"m -31 0 l -4 135 l 364 583 l 110 583 l 149 763 l 676 763 l 644 614 l 283 179 l 563 179 l 524 0 l -31 0 z "},"{":{"ha":496,"x_min":-8,"x_max":593,"o":"m 318 -219 q 135 -171 189 -219 q 81 -43 81 -122 q 83 1 81 -19 q 90 43 86 22 l 117 165 q 122 188 119 176 q 124 210 124 200 q 92 279 124 256 q -8 303 61 303 l 25 476 q 151 504 107 476 q 208 597 194 532 l 247 778 q 293 894 263 846 q 378 967 324 942 q 522 992 433 992 l 593 992 l 556 822 q 475 803 506 821 q 433 729 444 785 l 393 540 q 326 428 376 464 q 204 385 276 393 l 204 379 q 291 322 263 361 q 319 228 319 283 q 317 196 319 211 q 310 163 314 181 l 286 47 q 283 28 285 38 q 282 13 282 19 q 303 -36 282 -22 q 363 -50 325 -50 l 363 -219 l 318 -219 z "},"|":{"ha":775,"x_min":304,"x_max":469,"o":"m 304 -315 l 304 1051 l 469 1051 l 469 -315 l 304 -315 z "},"}":{"ha":496,"x_min":-75,"x_max":503,"o":"m -75 -50 q -8 -40 -33 -47 q 33 -13 18 -33 q 57 43 49 7 l 97 232 q 163 344 114 308 q 286 388 213 379 l 286 393 q 199 450 228 411 q 171 544 171 489 q 174 576 171 561 q 179 610 176 592 l 204 725 q 208 744 207 736 q 208 760 208 753 q 185 808 208 793 q 113 822 161 822 l 144 992 l 175 992 q 313 968 261 992 q 387 905 364 944 q 410 815 410 865 q 407 772 410 793 q 400 729 404 750 l 374 607 q 369 584 372 596 q 367 563 367 572 q 400 493 367 517 q 503 469 433 469 l 469 296 q 342 268 386 296 q 282 175 297 240 l 243 -6 q 197 -122 228 -74 q 110 -194 165 -169 q -36 -219 54 -219 l -75 -219 l -75 -50 z "},"~":{"ha":803,"x_min":68,"x_max":749,"o":"m 383 410 q 295 440 332 432 q 226 447 258 447 q 146 424 188 447 q 68 365 104 400 l 68 539 q 148 594 104 575 q 244 613 192 613 q 326 605 285 613 q 433 569 367 597 q 522 540 485 547 q 590 532 560 532 q 672 556 631 532 q 749 614 714 579 l 749 440 q 670 386 714 406 q 572 367 626 367 q 491 375 532 367 q 383 410 450 383 z "}," ":{"ha":361,"x_min":0,"x_max":0,"o":""},"¡":{"ha":408,"x_min":-61,"x_max":383,"o":"m -61 -242 l 113 411 l 303 411 l 197 -242 l -61 -242 m 233 525 q 151 551 181 525 q 122 626 122 578 q 163 731 122 693 q 268 769 203 769 q 358 739 333 769 q 383 671 383 708 q 348 569 383 613 q 233 525 313 525 z "},"¢":{"ha":783,"x_min":108,"x_max":749,"o":"m 292 129 q 160 214 213 151 q 108 396 108 276 q 124 547 108 475 q 168 678 139 618 q 239 785 197 739 q 335 862 281 832 q 454 901 389 892 l 476 1006 l 617 1006 l 593 901 q 676 883 639 894 q 749 854 713 871 l 676 681 q 601 708 636 697 q 524 719 567 719 q 445 692 479 719 q 388 622 411 665 q 354 524 365 578 q 343 418 343 471 q 369 331 343 360 q 443 301 396 301 q 538 318 493 301 q 632 360 583 335 l 632 172 q 537 134 586 149 q 426 115 488 119 l 399 -14 l 258 -14 l 292 129 z "},"£":{"ha":783,"x_min":-10,"x_max":836,"o":"m 28 188 q 106 222 74 201 q 158 276 138 242 q 189 360 179 310 l 204 428 l 75 428 l 108 596 l 238 596 l 263 726 q 326 889 282 828 q 435 978 369 950 q 585 1007 500 1007 q 722 990 660 1007 q 836 949 785 972 l 750 769 q 671 802 708 790 q 596 814 633 814 q 534 792 558 814 q 499 715 510 769 l 474 596 l 661 596 l 626 428 l 439 428 l 425 368 q 372 261 411 303 q 286 199 333 219 l 714 199 l 672 0 l -10 0 l 28 188 z "},"¤":{"ha":783,"x_min":75,"x_max":731,"o":"m 531 249 q 469 227 503 236 q 401 218 436 218 q 333 225 365 218 q 271 249 300 232 l 186 167 l 76 276 l 163 361 q 138 424 146 392 q 129 490 129 456 q 138 559 129 526 q 163 619 147 592 l 75 706 l 186 817 l 272 732 q 335 755 301 746 q 401 764 369 764 q 468 756 436 764 q 531 729 500 747 l 617 817 l 731 708 l 643 621 q 667 560 658 594 q 675 490 675 525 q 667 422 675 454 q 643 360 660 390 l 726 275 l 617 165 l 531 249 m 401 374 q 462 390 435 374 q 505 432 489 406 q 521 490 521 458 q 505 550 521 524 q 462 592 489 576 q 401 607 435 607 q 344 592 371 607 q 301 550 317 576 q 286 490 286 524 q 301 432 286 458 q 344 390 317 406 q 401 374 371 374 z "},"¥":{"ha":783,"x_min":56,"x_max":886,"o":"m 189 0 l 219 140 l 56 140 l 83 269 l 246 269 l 264 360 l 101 360 l 131 489 l 257 489 l 129 992 l 358 992 l 422 624 l 649 992 l 886 992 l 549 489 l 679 489 l 651 360 l 489 360 l 471 269 l 632 269 l 606 140 l 444 140 l 414 0 l 189 0 z "},"¦":{"ha":775,"x_min":306,"x_max":469,"o":"m 306 489 l 306 1050 l 469 1050 l 469 489 l 306 489 m 306 -308 l 306 251 l 469 251 l 469 -308 l 306 -308 z "},"§":{"ha":688,"x_min":19,"x_max":711,"o":"m 249 -15 q 116 1 174 -15 q 19 42 58 17 l 19 201 q 131 148 71 169 q 257 126 192 126 q 347 150 319 126 q 374 204 374 174 q 364 240 374 224 q 332 271 354 256 q 272 306 310 286 q 183 364 221 333 q 124 433 144 394 q 104 519 104 472 q 119 594 104 558 q 163 660 133 629 q 233 717 192 692 q 190 776 207 742 q 172 847 172 810 q 210 969 172 921 q 316 1042 249 1018 q 472 1065 383 1065 q 599 1048 540 1065 q 711 1001 657 1031 l 650 861 q 564 904 613 885 q 454 924 515 924 q 408 916 428 924 q 378 895 388 908 q 368 861 368 882 q 390 814 368 836 q 475 763 413 792 q 571 705 535 736 q 624 637 607 674 q 640 556 640 600 q 623 465 640 503 q 578 400 606 426 q 517 354 550 374 q 557 295 542 329 q 572 221 572 261 q 533 93 572 146 q 421 13 493 40 q 249 -15 349 -15 m 401 425 q 442 465 424 440 q 461 526 461 490 q 449 572 461 551 q 411 611 436 593 q 349 644 386 629 q 314 619 329 635 q 290 584 299 603 q 282 546 282 565 q 296 502 282 522 q 336 463 310 482 q 401 425 363 444 z "},"¨":{"ha":769,"x_min":257,"x_max":765,"o":"m 649 858 q 578 875 606 858 q 550 938 550 892 q 581 1026 550 997 q 668 1054 613 1054 q 735 1038 706 1054 q 765 975 765 1022 q 739 890 765 922 q 649 858 713 858 m 357 858 q 285 875 314 858 q 257 938 257 892 q 288 1026 257 997 q 375 1054 319 1054 q 423 1047 400 1054 q 460 1024 446 1040 q 474 975 474 1007 q 447 890 474 922 q 357 858 421 858 z "},"©":{"ha":1150,"x_min":65,"x_max":1085,"o":"m 575 -14 q 371 24 464 -14 q 209 130 278 61 q 103 292 140 199 q 65 496 65 385 q 103 697 65 604 q 210 858 142 789 q 372 967 279 928 q 575 1006 465 1006 q 776 968 683 1006 q 938 862 868 931 q 1047 700 1008 793 q 1085 496 1085 607 q 1047 292 1085 385 q 941 130 1010 199 q 779 24 872 61 q 575 -14 686 -14 m 588 178 q 369 265 442 178 q 296 497 296 353 q 329 662 296 590 q 427 774 363 733 q 588 814 492 814 q 688 801 639 814 q 779 767 736 789 l 729 653 q 661 680 694 671 q 593 689 628 689 q 485 638 524 689 q 447 496 447 588 q 482 350 447 399 q 594 301 517 301 q 674 311 632 301 q 754 340 715 321 l 754 215 q 678 188 717 197 q 588 178 639 178 m 575 85 q 733 115 661 85 q 860 201 806 146 q 945 331 915 256 q 975 496 975 406 q 945 658 975 583 q 862 789 915 733 q 735 876 808 844 q 575 907 661 907 q 414 877 488 907 q 286 792 340 847 q 202 662 232 738 q 172 496 172 586 q 202 331 172 406 q 285 201 232 256 q 413 115 339 146 q 575 85 486 85 z "},"ª":{"ha":540,"x_min":99,"x_max":614,"o":"m 244 501 q 177 518 211 501 q 121 575 143 535 q 99 685 99 615 q 113 789 99 735 q 156 891 128 843 q 229 969 185 939 q 333 1000 274 1000 q 412 982 382 1000 q 465 932 442 964 l 471 932 l 496 992 l 614 992 l 504 510 l 389 510 l 394 569 l 389 569 q 328 521 363 540 q 244 501 293 501 m 313 614 q 354 628 336 614 q 385 665 372 642 q 407 715 399 689 q 419 767 415 742 q 422 813 422 793 q 410 865 422 843 q 368 888 397 888 q 323 869 343 888 q 289 819 303 850 q 267 753 275 789 q 258 685 258 718 q 272 633 258 651 q 313 614 286 614 z "},"«":{"ha":819,"x_min":46,"x_max":825,"o":"m 176 57 l 46 374 l 46 385 l 319 715 l 472 594 l 286 368 l 371 138 l 176 57 m 529 57 l 394 383 l 394 393 l 674 717 l 825 594 l 636 376 l 724 138 l 529 57 z "},"¬":{"ha":803,"x_min":68,"x_max":749,"o":"m 749 572 l 749 165 l 583 165 l 583 407 l 68 407 l 68 572 l 749 572 z "},"­":{"ha":451,"x_min":22,"x_max":426,"o":"m 22 278 l 61 467 l 426 467 l 386 278 l 22 278 z "},"®":{"ha":1150,"x_min":65,"x_max":1085,"o":"m 367 201 l 367 806 l 554 806 q 739 758 682 806 q 796 621 796 710 q 765 515 796 553 q 693 460 735 478 l 840 201 l 686 201 l 569 426 l 511 426 l 511 201 l 367 201 m 553 532 q 625 553 600 532 q 650 617 650 575 q 626 676 650 658 q 553 693 603 693 l 511 693 l 511 532 l 553 532 m 575 -14 q 371 24 464 -14 q 209 130 278 61 q 103 292 140 199 q 65 496 65 385 q 103 697 65 604 q 210 858 142 789 q 372 967 279 928 q 575 1006 465 1006 q 776 968 683 1006 q 938 862 868 931 q 1047 700 1008 793 q 1085 496 1085 607 q 1047 292 1085 385 q 941 130 1010 199 q 779 24 872 61 q 575 -14 686 -14 m 575 85 q 733 115 661 85 q 860 201 806 146 q 945 331 915 256 q 975 496 975 406 q 945 658 975 583 q 862 789 915 733 q 735 876 808 844 q 575 907 661 907 q 414 877 488 907 q 286 792 340 847 q 202 662 232 738 q 172 496 172 586 q 202 331 172 406 q 285 201 232 256 q 413 115 339 146 q 575 85 486 85 z "},"¯":{"ha":663,"x_min":129,"x_max":833,"o":"m 129 1056 l 164 1206 l 833 1206 l 799 1056 l 129 1056 z "},"°":{"ha":590,"x_min":49,"x_max":540,"o":"m 296 524 q 168 554 224 524 q 81 639 113 585 q 49 764 49 693 q 81 888 49 833 q 168 974 113 943 q 296 1006 224 1006 q 423 974 368 1006 q 509 889 478 943 q 540 764 540 835 q 509 639 540 693 q 423 554 478 585 q 296 524 368 524 m 296 668 q 365 694 338 668 q 393 764 393 721 q 365 836 393 810 q 296 863 338 863 q 226 836 254 863 q 197 764 197 810 q 226 694 197 721 q 296 668 254 668 z "},"±":{"ha":803,"x_min":68,"x_max":749,"o":"m 68 0 l 68 164 l 749 164 l 749 0 l 68 0 m 490 622 l 749 622 l 749 457 l 490 457 l 490 204 l 326 204 l 326 457 l 68 457 l 68 622 l 326 622 l 326 878 l 490 878 l 490 622 z "},"²":{"ha":549,"x_min":81,"x_max":613,"o":"m 81 576 l 107 701 l 293 847 q 367 908 339 882 q 409 954 396 933 q 422 996 422 975 q 408 1031 422 1019 q 372 1042 393 1042 q 313 1028 344 1042 q 244 988 281 1015 l 169 1104 q 280 1165 222 1144 q 419 1185 338 1185 q 520 1166 476 1185 q 588 1114 564 1147 q 613 1036 613 1081 q 590 941 613 982 q 524 863 568 900 q 414 779 481 825 l 343 729 l 569 729 l 538 576 l 81 576 z "},"³":{"ha":549,"x_min":108,"x_max":607,"o":"m 303 567 q 193 577 242 567 q 108 608 144 588 l 108 750 q 193 710 149 724 q 281 697 238 697 q 361 715 331 697 q 392 765 392 732 q 375 803 392 788 q 314 819 358 819 l 231 819 l 257 939 l 319 939 q 381 946 354 939 q 421 969 407 953 q 435 1007 435 985 q 419 1042 435 1031 q 376 1054 403 1054 q 317 1044 347 1054 q 249 1010 288 1033 l 188 1121 q 291 1169 239 1154 q 410 1185 343 1185 q 517 1167 474 1185 q 584 1117 561 1149 q 607 1042 607 1085 q 564 936 607 971 q 456 886 521 901 l 456 881 q 540 835 515 867 q 564 760 564 804 q 530 656 564 700 q 436 590 496 613 q 303 567 376 567 z "},"´":{"ha":497,"x_min":157,"x_max":585,"o":"m 157 858 q 214 919 183 883 q 274 994 244 956 q 325 1064 303 1032 l 585 1064 l 585 1053 q 538 1006 569 1035 q 467 947 507 978 q 389 888 428 917 q 322 842 350 860 l 157 842 l 157 858 z "},"μ":{"ha":913,"x_min":-50,"x_max":840,"o":"m -50 -333 l 183 763 l 414 763 l 321 317 q 313 238 311 269 q 328 189 314 206 q 372 172 343 172 q 444 203 413 172 q 499 296 475 235 q 540 443 524 357 l 608 763 l 840 763 l 732 257 q 735 193 722 210 q 771 176 749 176 q 794 179 781 176 q 813 183 807 182 l 775 4 q 749 -4 768 0 q 709 -11 731 -8 q 672 -14 688 -14 q 588 -1 622 -14 q 535 41 554 11 q 508 125 515 71 l 501 125 q 462 60 482 86 q 422 17 442 33 q 384 -7 403 0 q 349 -14 365 -14 q 293 1 314 -14 q 258 46 272 17 l 254 46 q 249 0 253 29 q 238 -60 244 -29 q 226 -117 232 -92 l 181 -333 l -50 -333 z "},"¶":{"ha":901,"x_min":86,"x_max":810,"o":"m 463 379 q 421 370 442 374 q 371 367 400 367 q 254 384 307 367 q 164 441 201 401 q 106 546 126 481 q 86 707 86 611 q 108 874 86 807 q 171 981 131 940 q 267 1038 211 1021 q 392 1056 324 1056 l 810 1056 l 810 -176 l 692 -176 l 692 911 l 582 911 l 582 -176 l 463 -176 l 463 379 z "},"·":{"ha":410,"x_min":83,"x_max":346,"o":"m 196 368 q 111 396 139 368 q 83 468 83 424 q 123 573 83 532 q 235 614 163 614 q 315 588 285 614 q 346 511 346 563 q 305 404 346 440 q 196 368 264 368 z "},"¸":{"ha":274,"x_min":-144,"x_max":186,"o":"m -29 -333 q -95 -328 -65 -333 q -144 -317 -125 -324 l -144 -190 q -98 -202 -125 -197 q -51 -207 -71 -207 q -19 -202 -32 -207 q 0 -187 -7 -197 q 7 -162 7 -178 q -13 -124 7 -140 q -90 -99 -33 -107 l -32 0 l 100 0 l 78 -39 q 155 -81 124 -51 q 186 -165 186 -110 q 163 -253 186 -215 q 91 -312 139 -290 q -29 -333 43 -333 z "},"¹":{"ha":549,"x_min":128,"x_max":561,"o":"m 301 836 q 323 917 313 881 q 339 976 333 954 q 310 953 326 965 q 288 936 294 940 l 203 882 l 128 1000 l 407 1171 l 561 1171 l 435 576 l 246 576 l 301 836 z "},"º":{"ha":531,"x_min":111,"x_max":578,"o":"m 307 500 q 162 552 213 500 q 111 699 111 604 q 128 814 111 760 q 178 910 144 868 q 264 977 213 953 q 383 1001 315 1001 q 528 947 479 1001 q 578 800 578 893 q 563 697 578 750 q 517 600 549 644 q 433 528 485 556 q 307 500 382 500 m 321 625 q 363 642 344 625 q 392 686 381 658 q 410 746 404 714 q 415 808 415 778 q 404 860 415 842 q 368 878 393 878 q 326 860 344 878 q 297 813 308 842 q 278 753 285 785 q 272 694 272 722 q 285 642 272 658 q 321 625 297 625 z "},"»":{"ha":819,"x_min":-4,"x_max":774,"o":"m 500 46 l 347 167 l 533 393 l 449 625 l 643 706 l 774 388 l 774 378 l 500 46 m 146 44 l -4 167 l 183 385 l 97 625 l 290 706 l 425 379 l 425 368 l 146 44 z "},"¼":{"ha":1221,"x_min":107,"x_max":1172,"o":"m 176 0 l 915 992 l 1092 992 l 357 0 l 176 0 m 281 656 q 302 737 292 700 q 318 796 313 774 q 290 772 306 785 q 267 756 274 760 l 182 701 l 107 819 l 386 990 l 540 990 l 414 396 l 225 396 l 281 656 m 868 0 l 889 94 l 628 94 l 649 214 l 976 599 l 1172 599 l 1092 218 l 1169 218 l 1144 94 l 1065 94 l 1046 0 l 868 0 m 800 218 l 914 218 l 942 328 q 956 381 949 356 q 971 429 964 406 q 951 401 964 417 q 927 370 939 385 q 907 344 915 356 l 800 218 z "},"½":{"ha":1293,"x_min":107,"x_max":1236,"o":"m 169 0 l 908 992 l 1085 992 l 350 0 l 169 0 m 281 656 q 302 737 292 700 q 318 796 313 774 q 290 772 306 785 q 267 756 274 760 l 182 701 l 107 819 l 386 990 l 540 990 l 414 396 l 225 396 l 281 656 m 704 -1 l 731 124 l 917 269 q 991 330 963 304 q 1033 376 1019 356 q 1046 418 1046 397 q 1031 453 1046 442 q 996 464 1017 464 q 936 451 968 464 q 868 410 904 438 l 793 526 q 903 587 846 567 q 1043 607 961 607 q 1144 588 1100 607 q 1212 536 1188 569 q 1236 458 1236 503 q 1214 363 1236 404 q 1148 285 1192 322 q 1038 201 1104 247 l 967 151 l 1193 151 l 1161 -1 l 704 -1 z "},"¾":{"ha":1257,"x_min":74,"x_max":1208,"o":"m 268 388 q 158 398 207 388 q 74 429 110 408 l 74 571 q 158 531 114 544 q 246 518 203 518 q 326 535 296 518 q 357 586 357 553 q 340 624 357 608 q 279 640 324 640 l 196 640 l 222 760 l 285 760 q 346 767 319 760 q 386 790 372 774 q 400 828 400 806 q 384 863 400 851 q 342 875 368 875 q 283 865 313 875 q 214 831 253 854 l 153 942 q 256 990 204 975 q 375 1006 308 1006 q 483 988 439 1006 q 549 938 526 969 q 572 863 572 906 q 529 757 572 792 q 421 707 486 722 l 421 701 q 505 656 481 688 q 529 581 529 625 q 495 477 529 521 q 401 410 461 433 q 268 388 342 388 m 214 0 l 953 992 l 1129 992 l 394 0 l 214 0 m 904 0 l 925 94 l 664 94 l 685 214 l 1013 599 l 1208 599 l 1128 218 l 1206 218 l 1181 94 l 1101 94 l 1082 0 l 904 0 m 836 218 l 950 218 l 978 328 q 992 381 985 356 q 1007 429 1000 406 q 988 401 1000 417 q 963 370 975 385 q 943 344 951 356 l 836 218 z "},"¿":{"ha":656,"x_min":-42,"x_max":553,"o":"m 483 415 q 452 298 472 346 q 397 212 432 250 q 304 135 361 174 q 233 84 260 106 q 194 43 206 63 q 183 0 183 24 q 201 -47 183 -29 q 260 -65 219 -65 q 356 -47 304 -65 q 471 6 408 -28 l 542 -164 q 400 -226 478 -200 q 235 -251 322 -251 q 32 -191 106 -251 q -42 -25 -42 -131 q -15 97 -42 47 q 57 183 13 146 q 154 254 101 219 q 226 306 201 283 q 263 353 250 328 q 288 415 276 378 l 483 415 m 439 771 q 528 740 503 771 q 553 672 553 710 q 517 570 553 614 q 403 526 482 526 q 322 553 351 526 q 292 628 292 581 q 332 733 292 694 q 439 771 372 771 z "},"À":{"ha":903,"x_min":-83,"x_max":815,"o":"m -83 0 l 429 992 l 724 992 l 815 0 l 588 0 l 576 213 l 263 213 l 161 0 l -83 0 m 353 406 l 567 406 l 553 675 q 549 749 550 711 q 549 824 547 786 l 544 824 q 519 756 533 789 q 486 683 504 722 l 353 406 m 576 1071 q 515 1135 547 1099 q 454 1210 482 1172 q 410 1279 426 1247 l 410 1293 l 646 1293 q 664 1228 654 1263 q 688 1158 674 1193 q 718 1088 701 1122 l 718 1071 l 576 1071 z "},"Á":{"ha":903,"x_min":-83,"x_max":903,"o":"m -83 0 l 429 992 l 724 992 l 815 0 l 588 0 l 576 213 l 263 213 l 161 0 l -83 0 m 353 406 l 567 406 l 553 675 q 549 749 550 711 q 549 824 547 786 l 544 824 q 519 756 533 789 q 486 683 504 722 l 353 406 m 475 1088 q 532 1149 501 1113 q 592 1223 563 1185 q 643 1293 621 1261 l 903 1293 l 903 1282 q 856 1235 888 1264 q 785 1176 825 1207 q 707 1117 746 1146 q 640 1071 668 1089 l 475 1071 l 475 1088 z "},"Â":{"ha":903,"x_min":-83,"x_max":881,"o":"m -83 0 l 429 992 l 724 992 l 815 0 l 588 0 l 576 213 l 263 213 l 161 0 l -83 0 m 353 406 l 567 406 l 553 675 q 549 749 550 711 q 549 824 547 786 l 544 824 q 519 756 533 789 q 486 683 504 722 l 353 406 m 293 1088 q 360 1151 322 1114 q 435 1225 397 1188 q 497 1293 472 1263 l 760 1293 q 794 1224 774 1261 q 838 1151 815 1186 q 881 1088 861 1115 l 881 1071 l 725 1071 q 690 1105 710 1085 q 651 1147 669 1125 q 617 1186 632 1169 q 538 1126 578 1154 q 457 1071 499 1097 l 293 1071 l 293 1088 z "},"Ã":{"ha":903,"x_min":-83,"x_max":913,"o":"m -83 0 l 429 992 l 724 992 l 815 0 l 588 0 l 576 213 l 263 213 l 161 0 l -83 0 m 353 406 l 567 406 l 553 675 q 549 749 550 711 q 549 824 547 786 l 544 824 q 519 756 533 789 q 486 683 504 722 l 353 406 m 324 1069 q 366 1195 338 1147 q 434 1266 394 1243 q 524 1289 474 1289 q 581 1278 556 1289 q 629 1254 607 1268 q 672 1230 651 1240 q 715 1219 693 1219 q 758 1237 739 1219 q 790 1290 776 1254 l 913 1290 q 867 1163 896 1211 q 798 1092 838 1114 q 707 1071 758 1071 q 647 1081 674 1071 q 599 1106 621 1092 q 555 1129 576 1119 q 511 1139 533 1139 q 472 1121 490 1139 q 446 1069 453 1103 l 324 1069 z "},"Ä":{"ha":903,"x_min":-83,"x_max":868,"o":"m -83 0 l 429 992 l 724 992 l 815 0 l 588 0 l 576 213 l 263 213 l 161 0 l -83 0 m 353 406 l 567 406 l 553 675 q 549 749 550 711 q 549 824 547 786 l 544 824 q 519 756 533 789 q 486 683 504 722 l 353 406 m 751 1088 q 681 1104 708 1088 q 653 1167 653 1121 q 684 1255 653 1226 q 771 1283 715 1283 q 838 1267 808 1283 q 868 1204 868 1251 q 842 1119 868 1151 q 751 1088 815 1088 m 460 1088 q 388 1104 417 1088 q 360 1167 360 1121 q 391 1255 360 1226 q 478 1283 422 1283 q 526 1276 503 1283 q 563 1253 549 1269 q 576 1204 576 1236 q 550 1119 576 1151 q 460 1088 524 1088 z "},"Å":{"ha":903,"x_min":-83,"x_max":815,"o":"m -83 0 l 429 992 l 724 992 l 815 0 l 588 0 l 576 213 l 263 213 l 161 0 l -83 0 m 353 406 l 567 406 l 553 675 q 549 749 550 711 q 549 824 547 786 l 544 824 q 519 756 533 789 q 486 683 504 722 l 353 406 m 611 1069 q 485 1113 533 1069 q 436 1235 436 1157 q 485 1356 436 1313 q 611 1400 533 1400 q 736 1356 685 1400 q 788 1236 788 1313 q 738 1113 788 1157 q 611 1069 688 1069 m 611 1174 q 656 1190 638 1174 q 674 1235 674 1207 q 656 1279 674 1263 q 611 1296 638 1296 q 567 1279 586 1296 q 549 1235 549 1263 q 565 1190 549 1207 q 611 1174 581 1174 z "},"Æ":{"ha":1276,"x_min":-83,"x_max":1319,"o":"m -83 0 l 538 992 l 1319 992 l 1279 800 l 943 800 l 904 610 l 1218 610 l 1175 418 l 861 418 l 814 194 l 1150 194 l 1110 0 l 540 0 l 585 213 l 299 213 l 165 0 l -83 0 m 422 411 l 628 411 l 708 800 l 658 800 l 422 411 z "},"Ç":{"ha":861,"x_min":78,"x_max":914,"o":"m 443 -14 q 240 34 321 -14 q 118 169 158 82 q 78 374 78 257 q 97 552 78 463 q 157 723 117 642 q 260 869 197 804 q 409 970 322 933 q 606 1007 496 1007 q 775 987 703 1007 q 914 928 847 967 l 825 742 q 718 792 769 774 q 606 811 667 811 q 501 786 547 811 q 419 719 454 761 q 361 622 385 676 q 326 506 338 567 q 315 386 315 446 q 358 233 315 283 q 488 182 400 182 q 603 197 546 182 q 726 239 661 213 l 726 43 q 599 3 671 19 q 443 -14 528 -14 m 381 -333 q 315 -328 344 -333 q 265 -317 285 -324 l 265 -190 q 312 -202 285 -197 q 358 -207 339 -207 q 390 -202 378 -207 q 410 -187 403 -197 q 417 -162 417 -178 q 397 -124 417 -140 q 319 -99 376 -107 l 378 0 l 510 0 l 488 -39 q 565 -81 533 -51 q 596 -165 596 -110 q 572 -253 596 -215 q 501 -312 549 -290 q 381 -333 453 -333 z "},"È":{"ha":765,"x_min":29,"x_max":810,"o":"m 29 0 l 239 992 l 810 992 l 769 800 l 433 800 l 394 610 l 707 610 l 665 418 l 351 418 l 304 194 l 640 194 l 600 0 l 29 0 m 517 1071 q 455 1135 488 1099 q 394 1210 422 1172 q 350 1279 367 1247 l 350 1293 l 586 1293 q 604 1228 594 1263 q 628 1158 614 1193 q 658 1088 642 1122 l 658 1071 l 517 1071 z "},"É":{"ha":765,"x_min":29,"x_max":843,"o":"m 29 0 l 239 992 l 810 992 l 769 800 l 433 800 l 394 610 l 707 610 l 665 418 l 351 418 l 304 194 l 640 194 l 600 0 l 29 0 m 415 1088 q 472 1149 442 1113 q 532 1223 503 1185 q 583 1293 561 1261 l 843 1293 l 843 1282 q 797 1235 828 1264 q 726 1176 765 1207 q 647 1117 686 1146 q 581 1071 608 1089 l 415 1071 l 415 1088 z "},"Ê":{"ha":765,"x_min":29,"x_max":821,"o":"m 29 0 l 239 992 l 810 992 l 769 800 l 433 800 l 394 610 l 707 610 l 665 418 l 351 418 l 304 194 l 640 194 l 600 0 l 29 0 m 233 1088 q 300 1151 263 1114 q 375 1225 338 1188 q 438 1293 413 1263 l 700 1293 q 735 1224 714 1261 q 778 1151 756 1186 q 821 1088 801 1115 l 821 1071 l 665 1071 q 630 1105 650 1085 q 591 1147 610 1125 q 557 1186 572 1169 q 478 1126 518 1154 q 397 1071 439 1097 l 233 1071 l 233 1088 z "},"Ë":{"ha":765,"x_min":29,"x_max":810,"o":"m 29 0 l 239 992 l 810 992 l 769 800 l 433 800 l 394 610 l 707 610 l 665 418 l 351 418 l 304 194 l 640 194 l 600 0 l 29 0 m 692 1088 q 621 1104 649 1088 q 593 1167 593 1121 q 624 1255 593 1226 q 711 1283 656 1283 q 778 1267 749 1283 q 808 1204 808 1251 q 782 1119 808 1151 q 692 1088 756 1088 m 400 1088 q 328 1104 357 1088 q 300 1167 300 1121 q 331 1255 300 1226 q 418 1283 363 1283 q 466 1276 443 1283 q 503 1253 489 1269 q 517 1204 517 1236 q 490 1119 517 1151 q 400 1088 464 1088 z "},"Ì":{"ha":560,"x_min":-44,"x_max":636,"o":"m -44 0 l -17 135 l 111 189 l 242 800 l 136 857 l 164 992 l 636 992 l 608 857 l 475 800 l 346 189 l 453 135 l 425 0 l -44 0 m 394 1071 q 333 1135 365 1099 q 272 1210 300 1172 q 228 1279 244 1247 l 228 1293 l 464 1293 q 482 1228 472 1263 q 506 1158 492 1193 q 536 1088 519 1122 l 536 1071 l 394 1071 z "},"Í":{"ha":560,"x_min":-44,"x_max":721,"o":"m -44 0 l -17 135 l 111 189 l 242 800 l 136 857 l 164 992 l 636 992 l 608 857 l 475 800 l 346 189 l 453 135 l 425 0 l -44 0 m 293 1088 q 350 1149 319 1113 q 410 1223 381 1185 q 461 1293 439 1261 l 721 1293 l 721 1282 q 674 1235 706 1264 q 603 1176 643 1207 q 525 1117 564 1146 q 458 1071 486 1089 l 293 1071 l 293 1088 z "},"Î":{"ha":560,"x_min":-44,"x_max":699,"o":"m -44 0 l -17 135 l 111 189 l 242 800 l 136 857 l 164 992 l 636 992 l 608 857 l 475 800 l 346 189 l 453 135 l 425 0 l -44 0 m 111 1088 q 178 1151 140 1114 q 253 1225 215 1188 q 315 1293 290 1263 l 578 1293 q 613 1224 592 1261 q 656 1151 633 1186 q 699 1088 679 1115 l 699 1071 l 543 1071 q 508 1105 528 1085 q 469 1147 488 1125 q 435 1186 450 1169 q 356 1126 396 1154 q 275 1071 317 1097 l 111 1071 l 111 1088 z "},"Ï":{"ha":560,"x_min":-44,"x_max":686,"o":"m -44 0 l -17 135 l 111 189 l 242 800 l 136 857 l 164 992 l 636 992 l 608 857 l 475 800 l 346 189 l 453 135 l 425 0 l -44 0 m 569 1088 q 499 1104 526 1088 q 471 1167 471 1121 q 502 1255 471 1226 q 589 1283 533 1283 q 656 1267 626 1283 q 686 1204 686 1251 q 660 1119 686 1151 q 569 1088 633 1088 m 278 1088 q 206 1104 235 1088 q 178 1167 178 1121 q 209 1255 178 1226 q 296 1283 240 1283 q 344 1276 321 1283 q 381 1253 367 1269 q 394 1204 394 1236 q 368 1119 394 1151 q 278 1088 342 1088 z "},"Ð":{"ha":944,"x_min":17,"x_max":901,"o":"m 17 394 l 58 586 l 531 586 l 490 394 l 17 394 m 29 0 l 239 992 l 514 992 q 799 895 696 992 q 901 617 901 799 q 877 407 901 503 q 806 235 853 311 q 692 108 760 160 q 536 28 624 56 q 342 0 449 0 l 29 0 m 365 194 q 471 215 424 194 q 554 273 518 236 q 615 361 590 310 q 651 474 639 413 q 664 604 664 536 q 619 751 664 703 q 497 799 575 799 l 433 799 l 304 194 l 365 194 z "},"Ñ":{"ha":1071,"x_min":29,"x_max":1078,"o":"m 29 0 l 239 992 l 513 992 l 726 290 l 732 290 q 743 367 736 321 q 758 461 750 413 q 774 547 767 510 l 869 992 l 1078 992 l 868 0 l 601 0 l 381 725 l 374 725 q 369 683 372 715 q 360 608 365 651 q 347 522 354 565 q 332 442 339 478 l 239 0 l 29 0 m 415 1069 q 458 1195 429 1147 q 526 1266 486 1243 q 615 1289 565 1289 q 673 1278 647 1289 q 721 1254 699 1268 q 764 1230 743 1240 q 807 1219 785 1219 q 849 1237 831 1219 q 882 1290 868 1254 l 1004 1290 q 958 1163 988 1211 q 890 1092 929 1114 q 799 1071 850 1071 q 739 1081 765 1071 q 690 1106 713 1092 q 647 1129 668 1119 q 603 1139 625 1139 q 563 1121 582 1139 q 538 1069 544 1103 l 415 1069 z "},"Ò":{"ha":1018,"x_min":78,"x_max":975,"o":"m 451 -14 q 244 33 328 -14 q 119 166 161 81 q 78 365 78 251 q 92 520 78 443 q 134 669 106 597 q 206 801 163 740 q 309 909 250 863 q 443 981 368 956 q 608 1007 518 1007 q 883 904 790 1007 q 975 631 975 801 q 962 474 975 553 q 920 324 949 396 q 849 190 892 251 q 749 83 807 128 q 616 12 690 38 q 451 -14 542 -14 m 471 182 q 542 197 507 182 q 606 240 576 211 q 660 308 636 268 q 701 397 683 347 q 728 504 719 446 q 738 626 738 563 q 700 762 738 713 q 589 811 663 811 q 513 794 549 811 q 446 747 476 778 q 391 675 415 717 q 349 583 367 633 q 324 478 332 533 q 315 367 315 424 q 333 266 315 307 q 386 203 351 225 q 471 182 421 182 m 631 1071 q 569 1135 601 1099 q 508 1210 536 1172 q 464 1279 481 1247 l 464 1293 l 700 1293 q 718 1228 708 1263 q 742 1158 728 1193 q 772 1088 756 1122 l 772 1071 l 631 1071 z "},"Ó":{"ha":1018,"x_min":78,"x_max":975,"o":"m 451 -14 q 244 33 328 -14 q 119 166 161 81 q 78 365 78 251 q 92 520 78 443 q 134 669 106 597 q 206 801 163 740 q 309 909 250 863 q 443 981 368 956 q 608 1007 518 1007 q 883 904 790 1007 q 975 631 975 801 q 962 474 975 553 q 920 324 949 396 q 849 190 892 251 q 749 83 807 128 q 616 12 690 38 q 451 -14 542 -14 m 471 182 q 542 197 507 182 q 606 240 576 211 q 660 308 636 268 q 701 397 683 347 q 728 504 719 446 q 738 626 738 563 q 700 762 738 713 q 589 811 663 811 q 513 794 549 811 q 446 747 476 778 q 391 675 415 717 q 349 583 367 633 q 324 478 332 533 q 315 367 315 424 q 333 266 315 307 q 386 203 351 225 q 471 182 421 182 m 528 1088 q 585 1149 554 1113 q 644 1223 615 1185 q 696 1293 674 1261 l 956 1293 l 956 1282 q 909 1235 940 1264 q 838 1176 878 1207 q 760 1117 799 1146 q 693 1071 721 1089 l 528 1071 l 528 1088 z "},"Ô":{"ha":1018,"x_min":78,"x_max":975,"o":"m 451 -14 q 244 33 328 -14 q 119 166 161 81 q 78 365 78 251 q 92 520 78 443 q 134 669 106 597 q 206 801 163 740 q 309 909 250 863 q 443 981 368 956 q 608 1007 518 1007 q 883 904 790 1007 q 975 631 975 801 q 962 474 975 553 q 920 324 949 396 q 849 190 892 251 q 749 83 807 128 q 616 12 690 38 q 451 -14 542 -14 m 471 182 q 542 197 507 182 q 606 240 576 211 q 660 308 636 268 q 701 397 683 347 q 728 504 719 446 q 738 626 738 563 q 700 762 738 713 q 589 811 663 811 q 513 794 549 811 q 446 747 476 778 q 391 675 415 717 q 349 583 367 633 q 324 478 332 533 q 315 367 315 424 q 333 266 315 307 q 386 203 351 225 q 471 182 421 182 m 346 1088 q 413 1151 375 1114 q 488 1225 450 1188 q 550 1293 525 1263 l 813 1293 q 847 1224 826 1261 q 891 1151 868 1186 q 933 1088 914 1115 l 933 1071 l 778 1071 q 742 1105 763 1085 q 703 1147 722 1125 q 669 1186 685 1169 q 591 1126 631 1154 q 510 1071 551 1097 l 346 1071 l 346 1088 z "},"Õ":{"ha":1018,"x_min":78,"x_max":975,"o":"m 451 -14 q 244 33 328 -14 q 119 166 161 81 q 78 365 78 251 q 92 520 78 443 q 134 669 106 597 q 206 801 163 740 q 309 909 250 863 q 443 981 368 956 q 608 1007 518 1007 q 883 904 790 1007 q 975 631 975 801 q 962 474 975 553 q 920 324 949 396 q 849 190 892 251 q 749 83 807 128 q 616 12 690 38 q 451 -14 542 -14 m 471 182 q 542 197 507 182 q 606 240 576 211 q 660 308 636 268 q 701 397 683 347 q 728 504 719 446 q 738 626 738 563 q 700 762 738 713 q 589 811 663 811 q 513 794 549 811 q 446 747 476 778 q 391 675 415 717 q 349 583 367 633 q 324 478 332 533 q 315 367 315 424 q 333 266 315 307 q 386 203 351 225 q 471 182 421 182 m 378 1069 q 420 1195 392 1147 q 488 1266 449 1243 q 578 1289 528 1289 q 635 1278 610 1289 q 683 1254 661 1268 q 726 1230 706 1240 q 769 1219 747 1219 q 812 1237 793 1219 q 844 1290 831 1254 l 967 1290 q 921 1163 950 1211 q 852 1092 892 1114 q 761 1071 813 1071 q 701 1081 728 1071 q 653 1106 675 1092 q 609 1129 631 1119 q 565 1139 588 1139 q 526 1121 544 1139 q 500 1069 507 1103 l 378 1069 z "},"Ö":{"ha":1018,"x_min":78,"x_max":975,"o":"m 451 -14 q 244 33 328 -14 q 119 166 161 81 q 78 365 78 251 q 92 520 78 443 q 134 669 106 597 q 206 801 163 740 q 309 909 250 863 q 443 981 368 956 q 608 1007 518 1007 q 883 904 790 1007 q 975 631 975 801 q 962 474 975 553 q 920 324 949 396 q 849 190 892 251 q 749 83 807 128 q 616 12 690 38 q 451 -14 542 -14 m 471 182 q 542 197 507 182 q 606 240 576 211 q 660 308 636 268 q 701 397 683 347 q 728 504 719 446 q 738 626 738 563 q 700 762 738 713 q 589 811 663 811 q 513 794 549 811 q 446 747 476 778 q 391 675 415 717 q 349 583 367 633 q 324 478 332 533 q 315 367 315 424 q 333 266 315 307 q 386 203 351 225 q 471 182 421 182 m 814 1088 q 743 1104 771 1088 q 715 1167 715 1121 q 747 1255 715 1226 q 833 1283 778 1283 q 901 1267 871 1283 q 931 1204 931 1251 q 904 1119 931 1151 q 814 1088 878 1088 m 522 1088 q 451 1104 479 1088 q 422 1167 422 1121 q 453 1255 422 1226 q 540 1283 485 1283 q 588 1276 565 1283 q 625 1253 611 1269 q 639 1204 639 1236 q 613 1119 639 1151 q 522 1088 586 1088 z "},"×":{"ha":803,"x_min":99,"x_max":718,"o":"m 603 799 l 718 688 l 521 490 l 715 294 l 603 182 l 406 376 l 211 183 l 100 296 l 292 490 l 99 685 l 211 799 l 406 607 l 603 799 z "},"Ø":{"ha":1018,"x_min":67,"x_max":983,"o":"m 172 -58 l 67 19 l 147 121 q 95 231 113 169 q 78 365 78 292 q 92 520 78 443 q 134 669 106 597 q 206 801 163 740 q 307 909 249 863 q 439 981 365 956 q 603 1007 513 1007 q 719 994 667 1007 q 813 957 771 981 l 879 1040 l 983 961 l 910 868 q 959 761 943 821 q 975 631 975 701 q 962 474 975 553 q 920 324 949 396 q 849 190 892 251 q 749 83 807 128 q 619 12 692 38 q 457 -14 546 -14 q 340 -1 393 -14 q 246 35 288 11 l 172 -58 m 472 181 q 546 195 511 181 q 610 236 581 210 q 665 301 640 263 q 706 388 689 340 q 733 493 724 436 q 742 613 742 550 q 742 634 742 622 q 740 656 742 646 l 381 203 q 421 186 397 192 q 472 181 444 181 m 678 788 q 638 807 661 800 q 585 814 614 814 q 508 798 544 814 q 442 753 472 782 q 388 683 413 724 q 346 594 363 643 q 321 492 329 546 q 313 381 313 438 q 313 355 313 368 q 315 328 314 342 l 678 788 z "},"Ù":{"ha":967,"x_min":90,"x_max":978,"o":"m 411 -14 q 237 22 308 -14 q 128 122 165 58 q 90 269 90 186 q 92 316 90 290 q 100 365 94 342 l 233 992 l 468 992 l 336 369 q 328 328 331 349 q 325 289 325 307 q 353 211 325 239 q 435 183 381 183 q 520 204 486 183 q 576 268 554 225 q 613 378 599 311 l 743 992 l 978 992 l 842 354 q 767 159 818 242 q 630 31 717 76 q 411 -14 543 -14 m 599 1071 q 537 1135 569 1099 q 476 1210 504 1172 q 432 1279 449 1247 l 432 1293 l 668 1293 q 686 1228 676 1263 q 710 1158 696 1193 q 740 1088 724 1122 l 740 1071 l 599 1071 z "},"Ú":{"ha":967,"x_min":90,"x_max":978,"o":"m 411 -14 q 237 22 308 -14 q 128 122 165 58 q 90 269 90 186 q 92 316 90 290 q 100 365 94 342 l 233 992 l 468 992 l 336 369 q 328 328 331 349 q 325 289 325 307 q 353 211 325 239 q 435 183 381 183 q 520 204 486 183 q 576 268 554 225 q 613 378 599 311 l 743 992 l 978 992 l 842 354 q 767 159 818 242 q 630 31 717 76 q 411 -14 543 -14 m 496 1088 q 553 1149 522 1113 q 613 1223 583 1185 q 664 1293 642 1261 l 924 1293 l 924 1282 q 877 1235 908 1264 q 806 1176 846 1207 q 728 1117 767 1146 q 661 1071 689 1089 l 496 1071 l 496 1088 z "},"Û":{"ha":967,"x_min":90,"x_max":978,"o":"m 411 -14 q 237 22 308 -14 q 128 122 165 58 q 90 269 90 186 q 92 316 90 290 q 100 365 94 342 l 233 992 l 468 992 l 336 369 q 328 328 331 349 q 325 289 325 307 q 353 211 325 239 q 435 183 381 183 q 520 204 486 183 q 576 268 554 225 q 613 378 599 311 l 743 992 l 978 992 l 842 354 q 767 159 818 242 q 630 31 717 76 q 411 -14 543 -14 m 314 1088 q 381 1151 343 1114 q 456 1225 418 1188 q 518 1293 493 1263 l 781 1293 q 815 1224 794 1261 q 859 1151 836 1186 q 901 1088 882 1115 l 901 1071 l 746 1071 q 710 1105 731 1085 q 672 1147 690 1125 q 638 1186 653 1169 q 559 1126 599 1154 q 478 1071 519 1097 l 314 1071 l 314 1088 z "},"Ü":{"ha":967,"x_min":90,"x_max":978,"o":"m 411 -14 q 237 22 308 -14 q 128 122 165 58 q 90 269 90 186 q 92 316 90 290 q 100 365 94 342 l 233 992 l 468 992 l 336 369 q 328 328 331 349 q 325 289 325 307 q 353 211 325 239 q 435 183 381 183 q 520 204 486 183 q 576 268 554 225 q 613 378 599 311 l 743 992 l 978 992 l 842 354 q 767 159 818 242 q 630 31 717 76 q 411 -14 543 -14 m 782 1088 q 711 1104 739 1088 q 683 1167 683 1121 q 715 1255 683 1226 q 801 1283 746 1283 q 869 1267 839 1283 q 899 1204 899 1251 q 872 1119 899 1151 q 782 1088 846 1088 m 490 1088 q 419 1104 447 1088 q 390 1167 390 1121 q 422 1255 390 1226 q 508 1283 453 1283 q 556 1276 533 1283 q 593 1253 579 1269 q 607 1204 607 1236 q 581 1119 607 1151 q 490 1088 554 1088 z "},"Ý":{"ha":808,"x_min":119,"x_max":931,"o":"m 199 0 l 279 382 l 119 992 l 360 992 l 435 606 l 669 992 l 931 992 l 513 382 l 432 0 l 199 0 m 406 1088 q 463 1149 432 1113 q 522 1223 493 1185 q 574 1293 551 1261 l 833 1293 l 833 1282 q 787 1235 818 1264 q 716 1176 756 1207 q 638 1117 676 1146 q 571 1071 599 1089 l 406 1071 l 406 1088 z "},"Þ":{"ha":853,"x_min":29,"x_max":814,"o":"m 29 0 l 239 992 l 474 992 l 442 842 l 481 842 q 675 803 601 842 q 781 699 749 765 q 814 549 814 633 q 782 393 814 460 q 692 282 750 326 q 553 215 633 238 q 381 193 474 193 l 304 193 l 264 0 l 29 0 m 404 386 q 497 403 457 386 q 558 456 536 421 q 579 542 579 490 q 549 620 579 592 q 461 649 518 649 l 401 649 l 346 386 l 404 386 z "},"ß":{"ha":950,"x_min":-176,"x_max":913,"o":"m -53 -333 q -119 -328 -83 -333 q -176 -317 -154 -324 l -176 -133 q -136 -142 -156 -139 q -99 -146 -117 -146 q -25 -122 -53 -146 q 15 -42 3 -97 l 185 758 q 252 927 206 860 q 380 1028 299 994 q 585 1063 461 1063 q 828 997 744 1063 q 913 825 913 931 q 896 727 913 768 q 846 655 879 686 q 763 597 813 624 q 701 556 718 574 q 683 519 683 538 q 694 491 683 504 q 726 465 706 478 q 774 431 747 451 q 850 351 822 394 q 878 244 878 308 q 844 116 878 175 q 738 22 810 57 q 553 -14 667 -14 q 442 -4 489 -14 q 358 22 396 6 l 358 204 q 444 169 396 183 q 538 156 493 156 q 619 175 594 156 q 644 222 644 194 q 638 253 644 239 q 611 284 631 267 q 554 328 592 301 q 467 410 493 369 q 442 497 442 450 q 458 576 442 544 q 506 633 475 608 q 582 683 538 658 q 634 717 614 700 q 665 753 654 735 q 675 794 675 772 q 651 855 675 829 q 565 881 626 881 q 489 862 519 881 q 440 812 458 843 q 413 738 422 781 l 242 -78 q 192 -210 226 -151 q 98 -301 157 -268 q -53 -333 39 -333 z "},"à":{"ha":833,"x_min":60,"x_max":814,"o":"m 275 -14 q 169 13 219 -14 q 90 103 119 40 q 60 269 60 165 q 74 406 60 335 q 117 542 89 476 q 187 661 144 608 q 285 745 229 714 q 406 776 340 776 q 487 763 453 776 q 547 725 521 750 q 589 667 572 700 l 594 667 l 632 763 l 814 763 l 651 0 l 472 0 l 481 92 l 475 92 q 424 38 453 61 q 358 0 394 14 q 275 -14 322 -14 m 368 172 q 436 203 406 172 q 489 282 467 233 q 521 385 511 331 q 527 434 525 410 q 529 486 529 458 q 510 561 529 532 q 453 590 490 590 q 403 572 426 590 q 360 524 381 554 q 325 454 339 493 q 303 371 311 415 q 294 282 294 326 q 313 200 294 228 q 368 172 332 172 m 492 842 q 430 906 463 869 q 369 981 397 943 q 325 1050 342 1018 l 325 1064 l 561 1064 q 579 999 569 1033 q 603 928 589 964 q 633 858 617 893 l 633 842 l 492 842 z "},"á":{"ha":833,"x_min":60,"x_max":818,"o":"m 275 -14 q 169 13 219 -14 q 90 103 119 40 q 60 269 60 165 q 74 406 60 335 q 117 542 89 476 q 187 661 144 608 q 285 745 229 714 q 406 776 340 776 q 487 763 453 776 q 547 725 521 750 q 589 667 572 700 l 594 667 l 632 763 l 814 763 l 651 0 l 472 0 l 481 92 l 475 92 q 424 38 453 61 q 358 0 394 14 q 275 -14 322 -14 m 368 172 q 436 203 406 172 q 489 282 467 233 q 521 385 511 331 q 527 434 525 410 q 529 486 529 458 q 510 561 529 532 q 453 590 490 590 q 403 572 426 590 q 360 524 381 554 q 325 454 339 493 q 303 371 311 415 q 294 282 294 326 q 313 200 294 228 q 368 172 332 172 m 390 858 q 447 919 417 883 q 507 994 478 956 q 558 1064 536 1032 l 818 1064 l 818 1053 q 772 1006 803 1035 q 701 947 740 978 q 622 888 661 917 q 556 842 583 860 l 390 842 l 390 858 z "},"â":{"ha":833,"x_min":60,"x_max":814,"o":"m 275 -14 q 169 13 219 -14 q 90 103 119 40 q 60 269 60 165 q 74 406 60 335 q 117 542 89 476 q 187 661 144 608 q 285 745 229 714 q 406 776 340 776 q 487 763 453 776 q 547 725 521 750 q 589 667 572 700 l 594 667 l 632 763 l 814 763 l 651 0 l 472 0 l 481 92 l 475 92 q 424 38 453 61 q 358 0 394 14 q 275 -14 322 -14 m 368 172 q 436 203 406 172 q 489 282 467 233 q 521 385 511 331 q 527 434 525 410 q 529 486 529 458 q 510 561 529 532 q 453 590 490 590 q 403 572 426 590 q 360 524 381 554 q 325 454 339 493 q 303 371 311 415 q 294 282 294 326 q 313 200 294 228 q 368 172 332 172 m 208 858 q 275 922 238 885 q 350 996 313 958 q 413 1064 388 1033 l 675 1064 q 710 994 689 1032 q 753 922 731 957 q 796 858 776 886 l 796 842 l 640 842 q 605 876 625 856 q 566 918 585 896 q 532 957 547 940 q 453 897 493 925 q 372 842 414 868 l 208 842 l 208 858 z "},"ã":{"ha":833,"x_min":60,"x_max":828,"o":"m 275 -14 q 169 13 219 -14 q 90 103 119 40 q 60 269 60 165 q 74 406 60 335 q 117 542 89 476 q 187 661 144 608 q 285 745 229 714 q 406 776 340 776 q 487 763 453 776 q 547 725 521 750 q 589 667 572 700 l 594 667 l 632 763 l 814 763 l 651 0 l 472 0 l 481 92 l 475 92 q 424 38 453 61 q 358 0 394 14 q 275 -14 322 -14 m 368 172 q 436 203 406 172 q 489 282 467 233 q 521 385 511 331 q 527 434 525 410 q 529 486 529 458 q 510 561 529 532 q 453 590 490 590 q 403 572 426 590 q 360 524 381 554 q 325 454 339 493 q 303 371 311 415 q 294 282 294 326 q 313 200 294 228 q 368 172 332 172 m 239 840 q 281 966 253 918 q 349 1037 310 1014 q 439 1060 389 1060 q 497 1049 471 1060 q 544 1025 522 1039 q 588 1001 567 1011 q 631 990 608 990 q 673 1008 654 990 q 706 1061 692 1025 l 828 1061 q 782 933 811 982 q 713 863 753 885 q 622 842 674 842 q 563 852 589 842 q 514 876 536 863 q 470 900 492 890 q 426 910 449 910 q 387 892 406 910 q 361 840 368 874 l 239 840 z "},"ä":{"ha":833,"x_min":60,"x_max":814,"o":"m 275 -14 q 169 13 219 -14 q 90 103 119 40 q 60 269 60 165 q 74 406 60 335 q 117 542 89 476 q 187 661 144 608 q 285 745 229 714 q 406 776 340 776 q 487 763 453 776 q 547 725 521 750 q 589 667 572 700 l 594 667 l 632 763 l 814 763 l 651 0 l 472 0 l 481 92 l 475 92 q 424 38 453 61 q 358 0 394 14 q 275 -14 322 -14 m 368 172 q 436 203 406 172 q 489 282 467 233 q 521 385 511 331 q 527 434 525 410 q 529 486 529 458 q 510 561 529 532 q 453 590 490 590 q 403 572 426 590 q 360 524 381 554 q 325 454 339 493 q 303 371 311 415 q 294 282 294 326 q 313 200 294 228 q 368 172 332 172 m 667 858 q 596 875 624 858 q 568 938 568 892 q 599 1026 568 997 q 686 1054 631 1054 q 753 1038 724 1054 q 783 975 783 1022 q 757 890 783 922 q 667 858 731 858 m 375 858 q 303 875 332 858 q 275 938 275 892 q 306 1026 275 997 q 393 1054 338 1054 q 441 1047 418 1054 q 478 1024 464 1040 q 492 975 492 1007 q 465 890 492 922 q 375 858 439 858 z "},"å":{"ha":833,"x_min":60,"x_max":814,"o":"m 275 -14 q 169 13 219 -14 q 90 103 119 40 q 60 269 60 165 q 74 406 60 335 q 117 542 89 476 q 187 661 144 608 q 285 745 229 714 q 406 776 340 776 q 487 763 453 776 q 547 725 521 750 q 589 667 572 700 l 594 667 l 632 763 l 814 763 l 651 0 l 472 0 l 481 92 l 475 92 q 424 38 453 61 q 358 0 394 14 q 275 -14 322 -14 m 368 172 q 436 203 406 172 q 489 282 467 233 q 521 385 511 331 q 527 434 525 410 q 529 486 529 458 q 510 561 529 532 q 453 590 490 590 q 403 572 426 590 q 360 524 381 554 q 325 454 339 493 q 303 371 311 415 q 294 282 294 326 q 313 200 294 228 q 368 172 332 172 m 526 840 q 400 884 449 840 q 351 1006 351 928 q 400 1127 351 1083 q 526 1171 449 1171 q 651 1127 600 1171 q 703 1007 703 1083 q 653 884 703 928 q 526 840 603 840 m 526 944 q 571 961 553 944 q 589 1006 589 978 q 571 1050 589 1033 q 526 1067 553 1067 q 483 1050 501 1067 q 464 1006 464 1033 q 480 961 464 978 q 526 944 496 944 z "},"æ":{"ha":1211,"x_min":60,"x_max":1179,"o":"m 272 -14 q 164 16 213 -14 q 88 108 115 46 q 60 269 60 171 q 74 410 60 338 q 118 547 89 482 q 189 665 147 613 q 285 747 231 717 q 404 776 339 776 q 482 764 450 776 q 539 727 514 751 q 585 667 564 703 l 590 667 l 629 763 l 763 763 l 756 700 q 840 756 788 735 q 949 776 892 776 q 1118 718 1057 776 q 1179 567 1179 660 q 1153 456 1179 506 q 1076 369 1128 406 q 943 314 1024 333 q 754 294 863 294 l 717 294 q 715 285 715 289 q 715 275 715 281 q 746 190 715 222 q 846 157 776 157 q 955 174 900 157 q 1063 218 1010 192 l 1063 50 q 950 4 1010 22 q 814 -14 890 -14 q 699 5 746 -14 q 624 64 653 24 l 607 0 l 468 0 l 476 92 l 469 92 q 418 38 446 61 q 355 0 390 14 q 272 -14 319 -14 m 367 172 q 415 188 392 172 q 458 232 439 204 q 491 297 476 260 q 514 374 506 333 q 522 426 519 399 q 525 481 525 454 q 506 560 525 531 q 449 590 486 590 q 398 572 421 590 q 356 524 375 554 q 323 454 336 493 q 302 371 310 415 q 294 282 294 326 q 315 199 294 225 q 367 172 335 172 m 767 444 q 878 460 836 444 q 939 503 919 476 q 958 557 958 529 q 942 600 958 585 q 894 615 926 615 q 828 592 860 615 q 773 529 796 568 q 740 444 750 490 l 767 444 z "},"ç":{"ha":685,"x_min":60,"x_max":700,"o":"m 343 -14 q 201 16 265 -14 q 98 111 136 46 q 60 282 60 176 q 78 438 60 364 q 129 573 96 511 q 212 681 163 635 q 325 751 261 726 q 465 776 389 776 q 591 764 535 776 q 700 725 647 751 l 628 551 q 554 579 592 567 q 475 592 517 592 q 397 565 431 592 q 339 494 363 538 q 304 399 315 450 q 293 299 293 347 q 305 226 293 254 q 340 185 317 199 q 394 172 363 172 q 489 188 444 172 q 583 229 533 204 l 583 43 q 475 1 532 17 q 343 -14 418 -14 m 249 -333 q 183 -328 213 -333 q 133 -317 153 -324 l 133 -190 q 180 -202 153 -197 q 226 -207 207 -207 q 258 -202 246 -207 q 278 -187 271 -197 q 285 -162 285 -178 q 265 -124 285 -140 q 188 -99 244 -107 l 246 0 l 378 0 l 356 -39 q 433 -81 401 -51 q 464 -165 464 -110 q 440 -253 464 -215 q 369 -312 417 -290 q 249 -333 321 -333 z "},"è":{"ha":788,"x_min":60,"x_max":756,"o":"m 361 -14 q 201 20 268 -14 q 97 121 133 54 q 60 285 60 188 q 87 467 60 379 q 167 625 114 556 q 301 735 221 694 q 490 776 382 776 q 688 718 619 776 q 756 567 756 660 q 729 456 756 506 q 651 369 703 406 q 519 314 600 333 q 329 294 439 294 l 293 294 q 292 284 292 289 q 292 274 292 279 q 324 188 292 218 q 415 157 356 157 q 525 172 475 157 q 639 218 575 188 l 639 50 q 515 3 578 19 q 361 -14 451 -14 m 342 444 q 454 460 413 444 q 515 503 496 476 q 535 557 535 529 q 518 600 535 585 q 471 615 501 615 q 404 592 436 615 q 349 529 372 568 q 317 444 326 490 l 342 444 m 478 842 q 416 906 449 869 q 356 981 383 943 q 311 1050 328 1018 l 311 1064 l 547 1064 q 565 999 556 1033 q 589 928 575 964 q 619 858 603 893 l 619 842 l 478 842 z "},"é":{"ha":788,"x_min":60,"x_max":804,"o":"m 361 -14 q 201 20 268 -14 q 97 121 133 54 q 60 285 60 188 q 87 467 60 379 q 167 625 114 556 q 301 735 221 694 q 490 776 382 776 q 688 718 619 776 q 756 567 756 660 q 729 456 756 506 q 651 369 703 406 q 519 314 600 333 q 329 294 439 294 l 293 294 q 292 284 292 289 q 292 274 292 279 q 324 188 292 218 q 415 157 356 157 q 525 172 475 157 q 639 218 575 188 l 639 50 q 515 3 578 19 q 361 -14 451 -14 m 342 444 q 454 460 413 444 q 515 503 496 476 q 535 557 535 529 q 518 600 535 585 q 471 615 501 615 q 404 592 436 615 q 349 529 372 568 q 317 444 326 490 l 342 444 m 375 858 q 432 919 401 883 q 492 994 463 956 q 543 1064 521 1032 l 803 1064 l 803 1053 q 756 1006 788 1035 q 685 947 725 978 q 607 888 646 917 q 540 842 568 860 l 375 842 l 375 858 z "},"ê":{"ha":788,"x_min":60,"x_max":782,"o":"m 361 -14 q 201 20 268 -14 q 97 121 133 54 q 60 285 60 188 q 87 467 60 379 q 167 625 114 556 q 301 735 221 694 q 490 776 382 776 q 688 718 619 776 q 756 567 756 660 q 729 456 756 506 q 651 369 703 406 q 519 314 600 333 q 329 294 439 294 l 293 294 q 292 284 292 289 q 292 274 292 279 q 324 188 292 218 q 415 157 356 157 q 525 172 475 157 q 639 218 575 188 l 639 50 q 515 3 578 19 q 361 -14 451 -14 m 342 444 q 454 460 413 444 q 515 503 496 476 q 535 557 535 529 q 518 600 535 585 q 471 615 501 615 q 404 592 436 615 q 349 529 372 568 q 317 444 326 490 l 342 444 m 193 858 q 260 922 222 885 q 335 996 297 958 q 397 1064 372 1033 l 660 1064 q 694 994 674 1032 q 738 922 715 957 q 781 858 761 886 l 781 842 l 625 842 q 590 876 610 856 q 551 918 569 896 q 517 957 532 940 q 438 897 478 925 q 357 842 399 868 l 193 842 l 193 858 z "},"ë":{"ha":788,"x_min":60,"x_max":769,"o":"m 361 -14 q 201 20 268 -14 q 97 121 133 54 q 60 285 60 188 q 87 467 60 379 q 167 625 114 556 q 301 735 221 694 q 490 776 382 776 q 688 718 619 776 q 756 567 756 660 q 729 456 756 506 q 651 369 703 406 q 519 314 600 333 q 329 294 439 294 l 293 294 q 292 284 292 289 q 292 274 292 279 q 324 188 292 218 q 415 157 356 157 q 525 172 475 157 q 639 218 575 188 l 639 50 q 515 3 578 19 q 361 -14 451 -14 m 342 444 q 454 460 413 444 q 515 503 496 476 q 535 557 535 529 q 518 600 535 585 q 471 615 501 615 q 404 592 436 615 q 349 529 372 568 q 317 444 326 490 l 342 444 m 653 858 q 582 875 610 858 q 554 938 554 892 q 585 1026 554 997 q 672 1054 617 1054 q 740 1038 710 1054 q 769 975 769 1022 q 743 890 769 922 q 653 858 717 858 m 361 858 q 290 875 318 858 q 261 938 261 892 q 292 1026 261 997 q 379 1054 324 1054 q 427 1047 404 1054 q 464 1024 450 1040 q 478 975 478 1007 q 451 890 478 922 q 361 858 425 858 z "},"ì":{"ha":431,"x_min":21,"x_max":433,"o":"m 21 0 l 182 763 l 414 763 l 251 0 l 21 0 m 292 842 q 230 906 263 869 q 169 981 197 943 q 125 1050 142 1018 l 125 1064 l 361 1064 q 379 999 369 1033 q 403 928 389 964 q 433 858 417 893 l 433 842 l 292 842 z "},"í":{"ha":431,"x_min":21,"x_max":619,"o":"m 21 0 l 182 763 l 414 763 l 251 0 l 21 0 m 190 858 q 247 919 217 883 q 307 994 278 956 q 358 1064 336 1032 l 618 1064 l 618 1053 q 572 1006 603 1035 q 501 947 540 978 q 422 888 461 917 q 356 842 383 860 l 190 842 l 190 858 z "},"î":{"ha":431,"x_min":8,"x_max":596,"o":"m 21 0 l 182 763 l 414 763 l 251 0 l 21 0 m 8 858 q 75 922 38 885 q 150 996 113 958 q 213 1064 188 1033 l 475 1064 q 510 994 489 1032 q 553 922 531 957 q 596 858 576 886 l 596 842 l 440 842 q 405 876 425 856 q 366 918 385 896 q 332 957 347 940 q 253 897 293 925 q 172 842 214 868 l 8 842 l 8 858 z "},"ï":{"ha":431,"x_min":21,"x_max":585,"o":"m 21 0 l 182 763 l 414 763 l 251 0 l 21 0 m 467 858 q 396 875 424 858 q 368 938 368 892 q 399 1026 368 997 q 486 1054 431 1054 q 553 1038 524 1054 q 583 975 583 1022 q 557 890 583 922 q 467 858 531 858 m 175 858 q 103 875 132 858 q 75 938 75 892 q 106 1026 75 997 q 193 1054 138 1054 q 241 1047 218 1054 q 278 1024 264 1040 q 292 975 292 1007 q 265 890 292 922 q 175 858 239 858 z "},"ð":{"ha":793,"x_min":53,"x_max":783,"o":"m 350 -14 q 194 19 261 -14 q 90 117 128 51 q 53 282 53 183 q 76 436 53 364 q 143 563 99 508 q 251 649 188 618 q 397 681 315 681 q 497 658 460 681 q 557 607 535 636 l 564 608 q 542 708 558 658 q 493 796 525 758 l 324 708 l 265 814 l 407 888 q 372 915 392 903 q 332 940 353 928 l 411 1064 q 496 1020 456 1044 q 568 971 536 996 l 729 1053 l 783 946 l 654 879 q 713 776 690 835 q 747 651 736 718 q 757 514 757 585 q 743 348 757 426 q 699 203 729 269 q 620 89 668 138 q 506 13 572 40 q 350 -14 439 -14 m 367 156 q 417 171 394 156 q 458 212 440 186 q 488 269 475 238 q 506 334 500 300 q 513 399 513 368 q 508 444 513 424 q 493 480 503 465 q 468 503 483 494 q 432 511 453 511 q 366 488 394 511 q 319 426 338 464 q 293 347 301 389 q 285 265 285 304 q 306 184 285 213 q 367 156 326 156 z "},"ñ":{"ha":850,"x_min":21,"x_max":843,"o":"m 21 0 l 182 763 l 363 763 l 351 638 l 357 638 q 417 713 385 682 q 491 760 450 744 q 583 776 532 776 q 696 748 651 776 q 761 671 740 719 q 782 558 782 622 q 778 492 782 528 q 767 421 774 457 l 678 0 l 447 0 l 538 432 q 545 476 542 453 q 549 519 549 500 q 532 574 549 557 q 486 592 515 592 q 419 560 450 592 q 364 473 388 529 q 324 342 340 417 l 251 0 l 21 0 m 254 840 q 297 966 268 918 q 365 1037 325 1014 q 454 1060 404 1060 q 512 1049 486 1060 q 560 1025 538 1039 q 603 1001 582 1011 q 646 990 624 990 q 688 1008 669 990 q 721 1061 707 1025 l 843 1061 q 797 933 826 982 q 728 863 768 885 q 638 842 689 842 q 578 852 604 842 q 529 876 551 863 q 485 900 507 890 q 442 910 464 910 q 402 892 421 910 q 376 840 383 874 l 254 840 z "},"ò":{"ha":826,"x_min":60,"x_max":768,"o":"m 351 -14 q 197 22 263 -14 q 95 122 131 57 q 60 279 60 188 q 76 433 60 360 q 126 569 93 507 q 210 678 160 632 q 326 751 260 725 q 476 776 393 776 q 633 742 568 776 q 733 640 697 707 q 768 479 768 574 q 751 328 768 401 q 701 193 735 256 q 619 84 668 131 q 503 12 569 38 q 351 -14 436 -14 m 375 167 q 428 184 403 167 q 472 232 453 201 q 505 303 492 263 q 526 389 518 343 q 533 482 533 435 q 525 543 533 518 q 499 582 517 568 q 454 596 482 596 q 397 576 422 596 q 353 525 372 557 q 321 451 335 493 q 300 365 307 410 q 293 276 293 319 q 314 194 293 222 q 375 167 335 167 m 481 842 q 419 906 451 869 q 358 981 386 943 q 314 1050 331 1018 l 314 1064 l 550 1064 q 568 999 558 1033 q 592 928 578 964 q 622 858 606 893 l 622 842 l 481 842 z "},"ó":{"ha":826,"x_min":60,"x_max":808,"o":"m 351 -14 q 197 22 263 -14 q 95 122 131 57 q 60 279 60 188 q 76 433 60 360 q 126 569 93 507 q 210 678 160 632 q 326 751 260 725 q 476 776 393 776 q 633 742 568 776 q 733 640 697 707 q 768 479 768 574 q 751 328 768 401 q 701 193 735 256 q 619 84 668 131 q 503 12 569 38 q 351 -14 436 -14 m 375 167 q 428 184 403 167 q 472 232 453 201 q 505 303 492 263 q 526 389 518 343 q 533 482 533 435 q 525 543 533 518 q 499 582 517 568 q 454 596 482 596 q 397 576 422 596 q 353 525 372 557 q 321 451 335 493 q 300 365 307 410 q 293 276 293 319 q 314 194 293 222 q 375 167 335 167 m 379 858 q 436 919 406 883 q 496 994 467 956 q 547 1064 525 1032 l 807 1064 l 807 1053 q 760 1006 792 1035 q 690 947 729 978 q 611 888 650 917 q 544 842 572 860 l 379 842 l 379 858 z "},"ô":{"ha":826,"x_min":60,"x_max":785,"o":"m 351 -14 q 197 22 263 -14 q 95 122 131 57 q 60 279 60 188 q 76 433 60 360 q 126 569 93 507 q 210 678 160 632 q 326 751 260 725 q 476 776 393 776 q 633 742 568 776 q 733 640 697 707 q 768 479 768 574 q 751 328 768 401 q 701 193 735 256 q 619 84 668 131 q 503 12 569 38 q 351 -14 436 -14 m 375 167 q 428 184 403 167 q 472 232 453 201 q 505 303 492 263 q 526 389 518 343 q 533 482 533 435 q 525 543 533 518 q 499 582 517 568 q 454 596 482 596 q 397 576 422 596 q 353 525 372 557 q 321 451 335 493 q 300 365 307 410 q 293 276 293 319 q 314 194 293 222 q 375 167 335 167 m 197 858 q 264 922 226 885 q 339 996 301 958 q 401 1064 376 1033 l 664 1064 q 699 994 678 1032 q 742 922 719 957 q 785 858 765 886 l 785 842 l 629 842 q 594 876 614 856 q 555 918 574 896 q 521 957 536 940 q 442 897 482 925 q 361 842 403 868 l 197 842 l 197 858 z "},"õ":{"ha":826,"x_min":60,"x_max":817,"o":"m 351 -14 q 197 22 263 -14 q 95 122 131 57 q 60 279 60 188 q 76 433 60 360 q 126 569 93 507 q 210 678 160 632 q 326 751 260 725 q 476 776 393 776 q 633 742 568 776 q 733 640 697 707 q 768 479 768 574 q 751 328 768 401 q 701 193 735 256 q 619 84 668 131 q 503 12 569 38 q 351 -14 436 -14 m 375 167 q 428 184 403 167 q 472 232 453 201 q 505 303 492 263 q 526 389 518 343 q 533 482 533 435 q 525 543 533 518 q 499 582 517 568 q 454 596 482 596 q 397 576 422 596 q 353 525 372 557 q 321 451 335 493 q 300 365 307 410 q 293 276 293 319 q 314 194 293 222 q 375 167 335 167 m 228 840 q 270 966 242 918 q 338 1037 299 1014 q 428 1060 378 1060 q 485 1049 460 1060 q 533 1025 511 1039 q 576 1001 556 1011 q 619 990 597 990 q 662 1008 643 990 q 694 1061 681 1025 l 817 1061 q 771 933 800 982 q 702 863 742 885 q 611 842 663 842 q 551 852 578 842 q 503 876 525 863 q 459 900 481 890 q 415 910 438 910 q 376 892 394 910 q 350 840 357 874 l 228 840 z "},"ö":{"ha":826,"x_min":60,"x_max":774,"o":"m 351 -14 q 197 22 263 -14 q 95 122 131 57 q 60 279 60 188 q 76 433 60 360 q 126 569 93 507 q 210 678 160 632 q 326 751 260 725 q 476 776 393 776 q 633 742 568 776 q 733 640 697 707 q 768 479 768 574 q 751 328 768 401 q 701 193 735 256 q 619 84 668 131 q 503 12 569 38 q 351 -14 436 -14 m 375 167 q 428 184 403 167 q 472 232 453 201 q 505 303 492 263 q 526 389 518 343 q 533 482 533 435 q 525 543 533 518 q 499 582 517 568 q 454 596 482 596 q 397 576 422 596 q 353 525 372 557 q 321 451 335 493 q 300 365 307 410 q 293 276 293 319 q 314 194 293 222 q 375 167 335 167 m 656 858 q 585 875 613 858 q 557 938 557 892 q 588 1026 557 997 q 675 1054 619 1054 q 742 1038 713 1054 q 772 975 772 1022 q 746 890 772 922 q 656 858 719 858 m 364 858 q 292 875 321 858 q 264 938 264 892 q 295 1026 264 997 q 382 1054 326 1054 q 430 1047 407 1054 q 467 1024 453 1040 q 481 975 481 1007 q 454 890 481 922 q 364 858 428 858 z "},"÷":{"ha":803,"x_min":68,"x_max":749,"o":"m 68 407 l 68 572 l 749 572 l 749 407 l 68 407 m 407 132 q 338 158 367 132 q 308 240 308 183 q 338 325 308 301 q 408 349 367 349 q 478 325 447 349 q 508 240 508 301 q 478 158 508 183 q 407 132 447 132 m 407 631 q 338 656 367 631 q 308 739 308 682 q 338 824 308 800 q 408 847 367 847 q 478 824 447 847 q 508 739 508 800 q 478 656 508 682 q 407 631 447 631 z "},"ø":{"ha":840,"x_min":36,"x_max":794,"o":"m 128 -72 l 36 1 l 115 96 q 74 178 88 133 q 60 279 60 224 q 76 433 60 360 q 127 569 93 507 q 212 678 161 632 q 331 751 263 725 q 482 776 399 776 q 571 767 531 776 q 643 739 611 757 l 701 808 l 794 735 l 732 657 q 768 578 756 622 q 781 479 781 533 q 764 328 781 401 q 714 193 747 256 q 631 84 681 131 q 513 12 581 38 q 361 -14 444 -14 q 277 -4 317 -14 q 204 21 238 6 l 128 -72 m 383 160 q 440 174 414 160 q 485 213 465 188 q 521 271 506 238 q 545 343 536 304 q 558 424 554 382 q 559 438 558 431 q 560 453 560 446 l 329 172 q 352 163 338 167 q 383 160 367 160 m 519 586 q 494 599 510 594 q 461 604 479 604 q 401 590 428 604 q 353 548 374 575 q 318 486 333 521 q 294 410 303 451 q 282 326 285 369 q 281 312 281 319 q 281 297 281 304 l 519 586 z "},"ù":{"ha":850,"x_min":71,"x_max":831,"o":"m 268 -14 q 156 15 200 -14 q 92 92 113 43 q 71 204 71 142 q 75 276 71 236 q 88 354 79 315 l 174 763 l 404 763 l 314 332 q 306 288 308 311 q 303 243 303 264 q 319 190 303 207 q 365 172 336 172 q 432 203 401 172 q 487 290 463 233 q 528 421 511 347 l 600 763 l 831 763 l 669 0 l 489 0 l 500 125 l 493 125 q 433 49 467 81 q 360 2 400 18 q 268 -14 319 -14 m 497 842 q 435 906 468 869 q 375 981 403 943 q 331 1050 347 1018 l 331 1064 l 567 1064 q 585 999 575 1033 q 608 928 594 964 q 639 858 622 893 l 639 842 l 497 842 z "},"ú":{"ha":850,"x_min":71,"x_max":831,"o":"m 268 -14 q 156 15 200 -14 q 92 92 113 43 q 71 204 71 142 q 75 276 71 236 q 88 354 79 315 l 174 763 l 404 763 l 314 332 q 306 288 308 311 q 303 243 303 264 q 319 190 303 207 q 365 172 336 172 q 432 203 401 172 q 487 290 463 233 q 528 421 511 347 l 600 763 l 831 763 l 669 0 l 489 0 l 500 125 l 493 125 q 433 49 467 81 q 360 2 400 18 q 268 -14 319 -14 m 396 858 q 453 919 422 883 q 513 994 483 956 q 564 1064 542 1032 l 824 1064 l 824 1053 q 777 1006 808 1035 q 706 947 746 978 q 628 888 667 917 q 561 842 589 860 l 396 842 l 396 858 z "},"û":{"ha":850,"x_min":71,"x_max":831,"o":"m 268 -14 q 156 15 200 -14 q 92 92 113 43 q 71 204 71 142 q 75 276 71 236 q 88 354 79 315 l 174 763 l 404 763 l 314 332 q 306 288 308 311 q 303 243 303 264 q 319 190 303 207 q 365 172 336 172 q 432 203 401 172 q 487 290 463 233 q 528 421 511 347 l 600 763 l 831 763 l 669 0 l 489 0 l 500 125 l 493 125 q 433 49 467 81 q 360 2 400 18 q 268 -14 319 -14 m 214 858 q 281 922 243 885 q 356 996 318 958 q 418 1064 393 1033 l 681 1064 q 715 994 694 1032 q 759 922 736 957 q 801 858 782 886 l 801 842 l 646 842 q 610 876 631 856 q 572 918 590 896 q 538 957 553 940 q 459 897 499 925 q 378 842 419 868 l 214 842 l 214 858 z "},"ü":{"ha":850,"x_min":71,"x_max":831,"o":"m 268 -14 q 156 15 200 -14 q 92 92 113 43 q 71 204 71 142 q 75 276 71 236 q 88 354 79 315 l 174 763 l 404 763 l 314 332 q 306 288 308 311 q 303 243 303 264 q 319 190 303 207 q 365 172 336 172 q 432 203 401 172 q 487 290 463 233 q 528 421 511 347 l 600 763 l 831 763 l 669 0 l 489 0 l 500 125 l 493 125 q 433 49 467 81 q 360 2 400 18 q 268 -14 319 -14 m 672 858 q 601 875 629 858 q 574 938 574 892 q 605 1026 574 997 q 692 1054 636 1054 q 759 1038 729 1054 q 789 975 789 1022 q 763 890 789 922 q 672 858 736 858 m 381 858 q 309 875 338 858 q 281 938 281 892 q 312 1026 281 997 q 399 1054 343 1054 q 447 1047 424 1054 q 483 1024 469 1040 q 497 975 497 1007 q 471 890 497 922 q 381 858 444 858 z "},"ý":{"ha":738,"x_min":-92,"x_max":811,"o":"m 10 -333 q -52 -330 -28 -333 q -92 -321 -76 -326 l -92 -137 q -58 -143 -76 -140 q -15 -146 -39 -146 q 88 -114 49 -146 q 157 -26 126 -82 l 174 4 l 63 763 l 293 763 l 325 411 q 329 353 328 383 q 331 297 331 324 q 331 244 331 269 l 336 244 q 353 293 344 267 q 374 348 363 319 q 397 404 385 376 l 563 763 l 811 763 l 354 -103 q 262 -232 313 -181 q 149 -308 211 -283 q 10 -333 88 -333 m 318 858 q 375 919 344 883 q 435 994 406 956 q 486 1064 464 1032 l 746 1064 l 746 1053 q 699 1006 731 1035 q 628 947 668 978 q 550 888 589 917 q 483 842 511 860 l 318 842 l 318 858 z "},"þ":{"ha":835,"x_min":-50,"x_max":775,"o":"m -50 -333 l 244 1056 l 475 1056 l 436 871 q 408 764 425 818 q 379 674 392 710 l 385 674 q 435 730 408 707 q 494 765 463 753 q 558 776 525 776 q 715 706 656 776 q 775 497 775 636 q 761 353 775 426 q 719 215 747 281 q 649 97 690 149 q 554 16 608 46 q 433 -14 500 -14 q 360 0 392 -14 q 303 38 328 14 q 261 92 279 61 l 256 92 q 244 -13 251 36 q 224 -132 238 -62 l 181 -333 l -50 -333 m 383 172 q 435 190 411 172 q 478 239 458 208 q 511 309 497 269 q 533 393 525 349 q 540 481 540 438 q 519 563 540 535 q 461 590 499 590 q 395 560 425 590 q 344 483 365 531 q 314 379 324 435 q 309 347 311 363 q 306 314 307 331 q 306 282 306 297 q 325 203 306 233 q 383 172 344 172 z "},"ÿ":{"ha":738,"x_min":-92,"x_max":811,"o":"m 10 -333 q -52 -330 -28 -333 q -92 -321 -76 -326 l -92 -137 q -58 -143 -76 -140 q -15 -146 -39 -146 q 88 -114 49 -146 q 157 -26 126 -82 l 174 4 l 63 763 l 293 763 l 325 411 q 329 353 328 383 q 331 297 331 324 q 331 244 331 269 l 336 244 q 353 293 344 267 q 374 348 363 319 q 397 404 385 376 l 563 763 l 811 763 l 354 -103 q 262 -232 313 -181 q 149 -308 211 -283 q 10 -333 88 -333 m 594 858 q 524 875 551 858 q 496 938 496 892 q 527 1026 496 997 q 614 1054 558 1054 q 681 1038 651 1054 q 711 975 711 1022 q 685 890 711 922 q 594 858 658 858 m 303 858 q 231 875 260 858 q 203 938 203 892 q 234 1026 203 997 q 321 1054 265 1054 q 369 1047 346 1054 q 406 1024 392 1040 q 419 975 419 1007 q 393 890 419 922 q 303 858 367 858 z "},"Ā":{"ha":903,"x_min":-83,"x_max":839,"o":"m -83 0 l 429 992 l 724 992 l 815 0 l 588 0 l 576 213 l 263 213 l 161 0 l -83 0 m 353 406 l 567 406 l 553 675 q 549 749 550 711 q 549 824 547 786 l 544 824 q 519 756 533 789 q 486 683 504 722 l 353 406 m 374 1071 l 406 1222 l 840 1222 l 808 1071 l 374 1071 z "},"ā":{"ha":833,"x_min":60,"x_max":814,"o":"m 275 -14 q 169 13 219 -14 q 90 103 119 40 q 60 269 60 165 q 74 406 60 335 q 117 542 89 476 q 187 661 144 608 q 285 745 229 714 q 406 776 340 776 q 487 763 453 776 q 547 725 521 750 q 589 667 572 700 l 594 667 l 632 763 l 814 763 l 651 0 l 472 0 l 481 92 l 475 92 q 424 38 453 61 q 358 0 394 14 q 275 -14 322 -14 m 368 172 q 436 203 406 172 q 489 282 467 233 q 521 385 511 331 q 527 434 525 410 q 529 486 529 458 q 510 561 529 532 q 453 590 490 590 q 403 572 426 590 q 360 524 381 554 q 325 454 339 493 q 303 371 311 415 q 294 282 294 326 q 313 200 294 228 q 368 172 332 172 m 289 842 l 321 993 l 756 993 l 724 842 l 289 842 z "},"Ă":{"ha":903,"x_min":-83,"x_max":879,"o":"m -83 0 l 429 992 l 724 992 l 815 0 l 588 0 l 576 213 l 263 213 l 161 0 l -83 0 m 353 406 l 567 406 l 553 675 q 549 749 550 711 q 549 824 547 786 l 544 824 q 519 756 533 789 q 486 683 504 722 l 353 406 m 592 1071 q 462 1098 513 1071 q 387 1170 411 1125 q 363 1269 363 1215 q 364 1293 363 1283 q 367 1310 365 1303 l 499 1310 q 511 1262 499 1281 q 547 1233 524 1243 q 606 1224 571 1224 q 690 1242 656 1224 q 740 1310 725 1260 l 878 1310 q 790 1133 858 1194 q 592 1071 721 1071 z "},"ă":{"ha":833,"x_min":60,"x_max":814,"o":"m 275 -14 q 169 13 219 -14 q 90 103 119 40 q 60 269 60 165 q 74 406 60 335 q 117 542 89 476 q 187 661 144 608 q 285 745 229 714 q 406 776 340 776 q 487 763 453 776 q 547 725 521 750 q 589 667 572 700 l 594 667 l 632 763 l 814 763 l 651 0 l 472 0 l 481 92 l 475 92 q 424 38 453 61 q 358 0 394 14 q 275 -14 322 -14 m 368 172 q 436 203 406 172 q 489 282 467 233 q 521 385 511 331 q 527 434 525 410 q 529 486 529 458 q 510 561 529 532 q 453 590 490 590 q 403 572 426 590 q 360 524 381 554 q 325 454 339 493 q 303 371 311 415 q 294 282 294 326 q 313 200 294 228 q 368 172 332 172 m 508 842 q 378 869 429 842 q 303 941 328 896 q 279 1040 279 986 q 281 1064 279 1054 q 283 1081 282 1074 l 415 1081 q 428 1033 415 1051 q 464 1004 440 1014 q 522 994 488 994 q 607 1013 572 994 q 657 1081 642 1031 l 794 1081 q 706 903 775 965 q 508 842 638 842 z "},"Ą":{"ha":903,"x_min":-83,"x_max":815,"o":"m -83 0 l 429 992 l 724 992 l 815 0 l 588 0 l 576 213 l 263 213 l 161 0 l -83 0 m 353 406 l 567 406 l 553 675 q 549 749 550 711 q 549 824 547 786 l 544 824 q 519 756 533 789 q 486 683 504 722 l 353 406 m 600 -343 q 482 -304 524 -343 q 440 -206 440 -265 q 459 -123 440 -158 q 511 -57 478 -87 q 588 0 544 -26 l 739 0 q 675 -54 704 -28 q 628 -108 646 -81 q 610 -168 610 -136 q 619 -195 610 -185 q 647 -206 629 -206 q 685 -201 668 -206 q 721 -192 701 -197 l 721 -325 q 666 -338 694 -333 q 600 -343 638 -343 z "},"ą":{"ha":833,"x_min":60,"x_max":814,"o":"m 275 -14 q 169 13 219 -14 q 90 103 119 40 q 60 269 60 165 q 74 406 60 335 q 117 542 89 476 q 187 661 144 608 q 285 745 229 714 q 406 776 340 776 q 487 763 453 776 q 547 725 521 750 q 589 667 572 700 l 594 667 l 632 763 l 814 763 l 651 0 l 472 0 l 481 92 l 475 92 q 424 38 453 61 q 358 0 394 14 q 275 -14 322 -14 m 368 172 q 436 203 406 172 q 489 282 467 233 q 521 385 511 331 q 527 434 525 410 q 529 486 529 458 q 510 561 529 532 q 453 590 490 590 q 403 572 426 590 q 360 524 381 554 q 325 454 339 493 q 303 371 311 415 q 294 282 294 326 q 313 200 294 228 q 368 172 332 172 m 486 -343 q 368 -304 410 -343 q 326 -206 326 -265 q 345 -123 326 -158 q 397 -57 364 -87 q 474 0 431 -26 l 625 0 q 561 -54 590 -28 q 514 -108 532 -81 q 496 -168 496 -136 q 506 -195 496 -185 q 533 -206 515 -206 q 571 -201 554 -206 q 607 -192 588 -197 l 607 -325 q 552 -338 581 -333 q 486 -343 524 -343 z "},"Ć":{"ha":861,"x_min":78,"x_max":924,"o":"m 443 -14 q 240 34 321 -14 q 118 169 158 82 q 78 374 78 257 q 97 552 78 463 q 157 723 117 642 q 260 869 197 804 q 409 970 322 933 q 606 1007 496 1007 q 775 987 703 1007 q 914 928 847 967 l 825 742 q 718 792 769 774 q 606 811 667 811 q 501 786 547 811 q 419 719 454 761 q 361 622 385 676 q 326 506 338 567 q 315 386 315 446 q 358 233 315 283 q 488 182 400 182 q 603 197 546 182 q 726 239 661 213 l 726 43 q 599 3 671 19 q 443 -14 528 -14 m 494 1088 q 551 1149 521 1113 q 611 1223 582 1185 q 663 1293 640 1261 l 922 1293 l 922 1282 q 876 1235 907 1264 q 805 1176 844 1207 q 726 1117 765 1146 q 660 1071 688 1089 l 494 1071 l 494 1088 z "},"ć":{"ha":685,"x_min":60,"x_max":774,"o":"m 343 -14 q 201 16 265 -14 q 98 111 136 46 q 60 282 60 176 q 78 438 60 364 q 129 573 96 511 q 212 681 163 635 q 325 751 261 726 q 465 776 389 776 q 591 764 535 776 q 700 725 647 751 l 628 551 q 554 579 592 567 q 475 592 517 592 q 397 565 431 592 q 339 494 363 538 q 304 399 315 450 q 293 299 293 347 q 305 226 293 254 q 340 185 317 199 q 394 172 363 172 q 489 188 444 172 q 583 229 533 204 l 583 43 q 475 1 532 17 q 343 -14 418 -14 m 344 858 q 401 919 371 883 q 461 994 432 956 q 513 1064 490 1032 l 772 1064 l 772 1053 q 726 1006 757 1035 q 655 947 694 978 q 576 888 615 917 q 510 842 538 860 l 344 842 l 344 858 z "},"Ĉ":{"ha":861,"x_min":78,"x_max":914,"o":"m 443 -14 q 240 34 321 -14 q 118 169 158 82 q 78 374 78 257 q 97 552 78 463 q 157 723 117 642 q 260 869 197 804 q 409 970 322 933 q 606 1007 496 1007 q 775 987 703 1007 q 914 928 847 967 l 825 742 q 718 792 769 774 q 606 811 667 811 q 501 786 547 811 q 419 719 454 761 q 361 622 385 676 q 326 506 338 567 q 315 386 315 446 q 358 233 315 283 q 488 182 400 182 q 603 197 546 182 q 726 239 661 213 l 726 43 q 599 3 671 19 q 443 -14 528 -14 m 313 1088 q 379 1151 342 1114 q 454 1225 417 1188 q 517 1293 492 1263 l 779 1293 q 814 1224 793 1261 q 858 1151 835 1186 q 900 1088 881 1115 l 900 1071 l 744 1071 q 709 1105 729 1085 q 670 1147 689 1125 q 636 1186 651 1169 q 558 1126 597 1154 q 476 1071 518 1097 l 313 1071 l 313 1088 z "},"ĉ":{"ha":685,"x_min":60,"x_max":751,"o":"m 343 -14 q 201 16 265 -14 q 98 111 136 46 q 60 282 60 176 q 78 438 60 364 q 129 573 96 511 q 212 681 163 635 q 325 751 261 726 q 465 776 389 776 q 591 764 535 776 q 700 725 647 751 l 628 551 q 554 579 592 567 q 475 592 517 592 q 397 565 431 592 q 339 494 363 538 q 304 399 315 450 q 293 299 293 347 q 305 226 293 254 q 340 185 317 199 q 394 172 363 172 q 489 188 444 172 q 583 229 533 204 l 583 43 q 475 1 532 17 q 343 -14 418 -14 m 163 858 q 229 922 192 885 q 304 996 267 958 q 367 1064 342 1033 l 629 1064 q 664 994 643 1032 q 708 922 685 957 q 750 858 731 886 l 750 842 l 594 842 q 559 876 579 856 q 520 918 539 896 q 486 957 501 940 q 408 897 447 925 q 326 842 368 868 l 163 842 l 163 858 z "},"Ċ":{"ha":861,"x_min":78,"x_max":914,"o":"m 443 -14 q 240 34 321 -14 q 118 169 158 82 q 78 374 78 257 q 97 552 78 463 q 157 723 117 642 q 260 869 197 804 q 409 970 322 933 q 606 1007 496 1007 q 775 987 703 1007 q 914 928 847 967 l 825 742 q 718 792 769 774 q 606 811 667 811 q 501 786 547 811 q 419 719 454 761 q 361 622 385 676 q 326 506 338 567 q 315 386 315 446 q 358 233 315 283 q 488 182 400 182 q 603 197 546 182 q 726 239 661 213 l 726 43 q 599 3 671 19 q 443 -14 528 -14 m 625 1076 q 543 1096 576 1076 q 510 1165 510 1115 q 547 1264 510 1232 q 647 1296 583 1296 q 703 1288 678 1296 q 745 1261 729 1281 q 761 1207 761 1242 q 730 1113 761 1149 q 625 1076 699 1076 z "},"ċ":{"ha":685,"x_min":60,"x_max":700,"o":"m 343 -14 q 201 16 265 -14 q 98 111 136 46 q 60 282 60 176 q 78 438 60 364 q 129 573 96 511 q 212 681 163 635 q 325 751 261 726 q 465 776 389 776 q 591 764 535 776 q 700 725 647 751 l 628 551 q 554 579 592 567 q 475 592 517 592 q 397 565 431 592 q 339 494 363 538 q 304 399 315 450 q 293 299 293 347 q 305 226 293 254 q 340 185 317 199 q 394 172 363 172 q 489 188 444 172 q 583 229 533 204 l 583 43 q 475 1 532 17 q 343 -14 418 -14 m 475 847 q 393 867 426 847 q 360 936 360 886 q 397 1035 360 1003 q 497 1067 433 1067 q 553 1059 528 1067 q 595 1032 579 1051 q 611 978 611 1013 q 580 883 611 919 q 475 847 549 847 z "},"Č":{"ha":861,"x_min":78,"x_max":953,"o":"m 443 -14 q 240 34 321 -14 q 118 169 158 82 q 78 374 78 257 q 97 552 78 463 q 157 723 117 642 q 260 869 197 804 q 409 970 322 933 q 606 1007 496 1007 q 775 987 703 1007 q 914 928 847 967 l 825 742 q 718 792 769 774 q 606 811 667 811 q 501 786 547 811 q 419 719 454 761 q 361 622 385 676 q 326 506 338 567 q 315 386 315 446 q 358 233 315 283 q 488 182 400 182 q 603 197 546 182 q 726 239 661 213 l 726 43 q 599 3 671 19 q 443 -14 528 -14 m 485 1071 q 450 1140 471 1103 q 407 1214 429 1178 q 365 1276 385 1250 l 365 1293 l 521 1293 q 556 1259 536 1279 q 595 1217 576 1239 q 628 1178 614 1194 q 707 1238 668 1210 q 788 1293 746 1267 l 953 1293 l 953 1276 q 884 1213 922 1250 q 810 1139 846 1176 q 749 1071 775 1101 l 485 1071 z "},"č":{"ha":685,"x_min":60,"x_max":803,"o":"m 343 -14 q 201 16 265 -14 q 98 111 136 46 q 60 282 60 176 q 78 438 60 364 q 129 573 96 511 q 212 681 163 635 q 325 751 261 726 q 465 776 389 776 q 591 764 535 776 q 700 725 647 751 l 628 551 q 554 579 592 567 q 475 592 517 592 q 397 565 431 592 q 339 494 363 538 q 304 399 315 450 q 293 299 293 347 q 305 226 293 254 q 340 185 317 199 q 394 172 363 172 q 489 188 444 172 q 583 229 533 204 l 583 43 q 475 1 532 17 q 343 -14 418 -14 m 335 842 q 300 911 321 874 q 257 985 279 949 q 215 1047 235 1021 l 215 1064 l 371 1064 q 406 1030 386 1050 q 445 988 426 1010 q 478 949 464 965 q 557 1009 518 981 q 638 1064 596 1038 l 803 1064 l 803 1047 q 734 984 772 1021 q 660 910 696 947 q 599 842 625 872 l 335 842 z "},"Ď":{"ha":944,"x_min":29,"x_max":944,"o":"m 29 0 l 239 992 l 514 992 q 799 895 696 992 q 901 617 901 799 q 877 407 901 503 q 806 235 853 311 q 692 108 760 160 q 536 28 624 56 q 342 0 449 0 l 29 0 m 365 194 q 471 215 424 194 q 554 273 518 236 q 615 361 590 310 q 651 474 639 413 q 664 604 664 536 q 619 751 664 703 q 497 799 575 799 l 433 799 l 304 194 l 365 194 m 476 1071 q 442 1140 463 1103 q 399 1214 421 1178 q 357 1276 376 1250 l 357 1293 l 513 1293 q 548 1259 528 1279 q 587 1217 568 1239 q 619 1178 606 1194 q 699 1238 660 1210 q 779 1293 738 1267 l 944 1293 l 944 1276 q 876 1213 914 1250 q 802 1139 838 1176 q 740 1071 767 1101 l 476 1071 z "},"ď":{"ha":968,"x_min":60,"x_max":1183,"o":"m 888 851 q 915 917 900 881 q 943 990 929 953 q 967 1056 957 1026 l 1183 1056 l 1183 1042 q 1140 974 1165 1008 q 1087 904 1115 939 q 1028 833 1058 869 l 888 833 l 888 851 m 275 -14 q 169 13 219 -14 q 90 103 119 40 q 60 271 60 165 q 74 407 60 336 q 117 544 89 478 q 187 662 144 610 q 284 745 229 714 q 406 776 339 776 q 480 763 450 776 q 531 726 510 750 q 572 669 553 701 l 578 669 q 580 703 578 675 q 586 766 582 731 q 596 831 590 801 l 643 1056 l 875 1056 l 651 0 l 471 0 l 481 92 l 475 92 q 424 38 453 61 q 360 0 396 14 q 275 -14 324 -14 m 371 172 q 420 188 399 172 q 459 228 442 203 q 490 285 476 253 q 513 353 504 318 q 525 421 521 388 q 529 481 529 454 q 510 560 529 531 q 454 590 490 590 q 403 572 426 590 q 360 524 381 554 q 326 454 340 493 q 303 371 311 415 q 294 282 294 326 q 314 200 294 228 q 371 172 333 172 z "},"Đ":{"ha":944,"x_min":17,"x_max":901,"o":"m 17 394 l 58 586 l 531 586 l 490 394 l 17 394 m 29 0 l 239 992 l 514 992 q 799 895 696 992 q 901 617 901 799 q 877 407 901 503 q 806 235 853 311 q 692 108 760 160 q 536 28 624 56 q 342 0 449 0 l 29 0 m 365 194 q 471 215 424 194 q 554 273 518 236 q 615 361 590 310 q 651 474 639 413 q 664 604 664 536 q 619 751 664 703 q 497 799 575 799 l 433 799 l 304 194 l 365 194 z "},"đ":{"ha":832,"x_min":60,"x_max":958,"o":"m 279 -14 q 168 15 218 -14 q 89 107 118 44 q 60 271 60 169 q 74 397 60 332 q 115 519 88 461 q 181 623 142 576 q 273 696 221 669 q 389 722 325 722 q 467 709 435 722 q 522 673 499 696 q 563 621 546 650 l 568 621 q 569 656 568 631 q 575 710 571 681 q 583 765 579 739 l 590 803 l 407 803 l 436 950 l 621 950 l 643 1056 l 875 1056 l 853 950 l 958 950 l 926 803 l 821 803 l 651 0 l 472 0 l 481 92 l 475 92 q 428 40 454 64 q 366 1 401 15 q 279 -14 331 -14 m 372 172 q 417 183 397 172 q 453 214 438 194 q 483 259 469 233 q 505 314 496 285 q 518 374 514 343 q 522 432 522 404 q 503 508 522 479 q 444 536 483 536 q 393 521 417 536 q 351 480 369 506 q 320 422 332 454 q 301 353 308 389 q 294 282 294 317 q 315 200 294 228 q 372 172 336 172 z "},"Ē":{"ha":765,"x_min":29,"x_max":810,"o":"m 29 0 l 239 992 l 810 992 l 769 800 l 433 800 l 394 610 l 707 610 l 665 418 l 351 418 l 304 194 l 640 194 l 600 0 l 29 0 m 313 1071 l 344 1222 l 779 1222 l 747 1071 l 313 1071 z "},"ē":{"ha":788,"x_min":60,"x_max":756,"o":"m 361 -14 q 201 20 268 -14 q 97 121 133 54 q 60 285 60 188 q 87 467 60 379 q 167 625 114 556 q 301 735 221 694 q 490 776 382 776 q 688 718 619 776 q 756 567 756 660 q 729 456 756 506 q 651 369 703 406 q 519 314 600 333 q 329 294 439 294 l 293 294 q 292 284 292 289 q 292 274 292 279 q 324 188 292 218 q 415 157 356 157 q 525 172 475 157 q 639 218 575 188 l 639 50 q 515 3 578 19 q 361 -14 451 -14 m 342 444 q 454 460 413 444 q 515 503 496 476 q 535 557 535 529 q 518 600 535 585 q 471 615 501 615 q 404 592 436 615 q 349 529 372 568 q 317 444 326 490 l 342 444 m 274 842 l 306 993 l 740 993 l 708 842 l 274 842 z "},"Ĕ":{"ha":765,"x_min":29,"x_max":818,"o":"m 29 0 l 239 992 l 810 992 l 769 800 l 433 800 l 394 610 l 707 610 l 665 418 l 351 418 l 304 194 l 640 194 l 600 0 l 29 0 m 532 1071 q 402 1098 453 1071 q 327 1170 351 1125 q 303 1269 303 1215 q 304 1293 303 1283 q 307 1310 306 1303 l 439 1310 q 451 1262 439 1281 q 488 1233 464 1243 q 546 1224 511 1224 q 631 1242 596 1224 q 681 1310 665 1260 l 818 1310 q 730 1133 799 1194 q 532 1071 661 1071 z "},"ĕ":{"ha":788,"x_min":60,"x_max":779,"o":"m 361 -14 q 201 20 268 -14 q 97 121 133 54 q 60 285 60 188 q 87 467 60 379 q 167 625 114 556 q 301 735 221 694 q 490 776 382 776 q 688 718 619 776 q 756 567 756 660 q 729 456 756 506 q 651 369 703 406 q 519 314 600 333 q 329 294 439 294 l 293 294 q 292 284 292 289 q 292 274 292 279 q 324 188 292 218 q 415 157 356 157 q 525 172 475 157 q 639 218 575 188 l 639 50 q 515 3 578 19 q 361 -14 451 -14 m 342 444 q 454 460 413 444 q 515 503 496 476 q 535 557 535 529 q 518 600 535 585 q 471 615 501 615 q 404 592 436 615 q 349 529 372 568 q 317 444 326 490 l 342 444 m 493 842 q 363 869 414 842 q 288 941 313 896 q 264 1040 264 986 q 265 1064 264 1054 q 268 1081 267 1074 l 400 1081 q 413 1033 400 1051 q 449 1004 425 1014 q 507 994 472 994 q 592 1013 557 994 q 642 1081 626 1031 l 779 1081 q 691 903 760 965 q 493 842 622 842 z "},"Ė":{"ha":765,"x_min":29,"x_max":810,"o":"m 29 0 l 239 992 l 810 992 l 769 800 l 433 800 l 394 610 l 707 610 l 665 418 l 351 418 l 304 194 l 640 194 l 600 0 l 29 0 m 544 1076 q 463 1096 496 1076 q 429 1165 429 1115 q 466 1264 429 1232 q 567 1296 503 1296 q 623 1288 597 1296 q 665 1261 649 1281 q 681 1207 681 1242 q 649 1113 681 1149 q 544 1076 618 1076 z "},"ė":{"ha":788,"x_min":60,"x_max":756,"o":"m 361 -14 q 201 20 268 -14 q 97 121 133 54 q 60 285 60 188 q 87 467 60 379 q 167 625 114 556 q 301 735 221 694 q 490 776 382 776 q 688 718 619 776 q 756 567 756 660 q 729 456 756 506 q 651 369 703 406 q 519 314 600 333 q 329 294 439 294 l 293 294 q 292 284 292 289 q 292 274 292 279 q 324 188 292 218 q 415 157 356 157 q 525 172 475 157 q 639 218 575 188 l 639 50 q 515 3 578 19 q 361 -14 451 -14 m 342 444 q 454 460 413 444 q 515 503 496 476 q 535 557 535 529 q 518 600 535 585 q 471 615 501 615 q 404 592 436 615 q 349 529 372 568 q 317 444 326 490 l 342 444 m 506 847 q 424 867 457 847 q 390 936 390 886 q 427 1035 390 1003 q 528 1067 464 1067 q 584 1059 558 1067 q 626 1032 610 1051 q 642 978 642 1013 q 610 883 642 919 q 506 847 579 847 z "},"Ę":{"ha":765,"x_min":29,"x_max":810,"o":"m 29 0 l 239 992 l 810 992 l 769 800 l 433 800 l 394 610 l 707 610 l 665 418 l 351 418 l 304 194 l 640 194 l 600 0 l 29 0 m 418 -343 q 300 -304 342 -343 q 258 -206 258 -265 q 277 -123 258 -158 q 329 -57 296 -87 q 406 0 363 -26 l 557 0 q 493 -54 522 -28 q 446 -108 464 -81 q 428 -168 428 -136 q 438 -195 428 -185 q 465 -206 447 -206 q 503 -201 486 -206 q 539 -192 519 -197 l 539 -325 q 484 -338 513 -333 q 418 -343 456 -343 z "},"ę":{"ha":788,"x_min":60,"x_max":756,"o":"m 431 -343 q 314 -304 356 -343 q 272 -206 272 -265 q 291 -123 272 -158 q 343 -57 310 -87 q 418 0 376 -26 l 606 39 q 519 -37 556 -3 q 461 -104 482 -72 q 440 -168 440 -136 q 451 -195 440 -185 q 479 -206 461 -206 q 517 -201 500 -206 q 553 -192 533 -197 l 553 -325 q 497 -338 525 -333 q 431 -343 469 -343 m 361 -14 q 201 20 268 -14 q 97 121 133 54 q 60 285 60 188 q 87 467 60 379 q 167 625 114 556 q 301 735 221 694 q 490 776 382 776 q 688 718 619 776 q 756 567 756 660 q 729 456 756 506 q 651 369 703 406 q 519 314 600 333 q 329 294 439 294 l 293 294 q 292 284 292 289 q 292 274 292 279 q 324 188 292 218 q 415 157 356 157 q 525 172 475 157 q 639 218 575 188 l 639 50 q 515 3 578 19 q 361 -14 451 -14 m 342 444 q 454 460 413 444 q 515 503 496 476 q 535 557 535 529 q 518 600 535 585 q 471 615 501 615 q 404 592 436 615 q 349 529 372 568 q 317 444 326 490 l 342 444 z "},"Ě":{"ha":765,"x_min":29,"x_max":872,"o":"m 29 0 l 239 992 l 810 992 l 769 800 l 433 800 l 394 610 l 707 610 l 665 418 l 351 418 l 304 194 l 640 194 l 600 0 l 29 0 m 404 1071 q 369 1140 390 1103 q 326 1214 349 1178 q 285 1276 304 1250 l 285 1293 l 440 1293 q 476 1259 456 1279 q 515 1217 496 1239 q 547 1178 533 1194 q 626 1238 588 1210 q 707 1293 665 1267 l 872 1293 l 872 1276 q 803 1213 842 1250 q 730 1139 765 1176 q 668 1071 694 1101 l 404 1071 z "},"ě":{"ha":788,"x_min":60,"x_max":833,"o":"m 361 -14 q 201 20 268 -14 q 97 121 133 54 q 60 285 60 188 q 87 467 60 379 q 167 625 114 556 q 301 735 221 694 q 490 776 382 776 q 688 718 619 776 q 756 567 756 660 q 729 456 756 506 q 651 369 703 406 q 519 314 600 333 q 329 294 439 294 l 293 294 q 292 284 292 289 q 292 274 292 279 q 324 188 292 218 q 415 157 356 157 q 525 172 475 157 q 639 218 575 188 l 639 50 q 515 3 578 19 q 361 -14 451 -14 m 342 444 q 454 460 413 444 q 515 503 496 476 q 535 557 535 529 q 518 600 535 585 q 471 615 501 615 q 404 592 436 615 q 349 529 372 568 q 317 444 326 490 l 342 444 m 365 842 q 331 911 351 874 q 288 985 310 949 q 246 1047 265 1021 l 246 1064 l 401 1064 q 437 1030 417 1050 q 476 988 457 1010 q 508 949 494 965 q 588 1009 549 981 q 668 1064 626 1038 l 833 1064 l 833 1047 q 765 984 803 1021 q 691 910 726 947 q 629 842 656 872 l 365 842 z "},"Ĝ":{"ha":964,"x_min":78,"x_max":949,"o":"m 447 -14 q 177 85 276 -14 q 78 376 78 183 q 101 568 78 475 q 170 740 124 661 q 286 880 217 819 q 449 974 356 940 q 658 1007 542 1007 q 813 990 740 1007 q 949 938 885 974 l 860 749 q 763 792 814 775 q 651 810 711 810 q 499 770 563 810 q 394 667 435 731 q 335 531 354 604 q 315 388 315 457 q 334 274 315 319 q 391 206 353 228 q 488 183 429 183 q 542 187 519 183 q 592 196 564 190 l 632 378 l 463 378 l 504 568 l 901 568 l 789 40 q 640 2 719 18 q 447 -14 560 -14 m 343 1088 q 410 1151 372 1114 q 485 1225 447 1188 q 547 1293 522 1263 l 810 1293 q 844 1224 824 1261 q 888 1151 865 1186 q 931 1088 911 1115 l 931 1071 l 775 1071 q 740 1105 760 1085 q 701 1147 719 1125 q 667 1186 682 1169 q 588 1126 628 1154 q 507 1071 549 1097 l 343 1071 l 343 1088 z "},"ĝ":{"ha":833,"x_min":18,"x_max":814,"o":"m 265 -333 q 124 -320 181 -333 q 18 -287 68 -307 l 18 -92 q 92 -123 54 -110 q 172 -143 131 -136 q 256 -150 213 -150 q 365 -119 324 -150 q 422 -28 407 -87 l 428 -3 q 441 44 433 18 q 454 89 449 71 l 449 89 q 402 40 428 63 q 342 3 376 17 q 263 -11 308 -11 q 160 17 207 -11 q 87 107 114 46 q 60 268 60 168 q 74 406 60 335 q 117 542 89 476 q 188 661 146 608 q 283 745 229 714 q 403 776 338 776 q 483 764 450 776 q 540 728 515 751 q 589 667 565 704 l 594 667 l 632 763 l 814 763 l 647 -18 q 567 -206 622 -137 q 436 -304 513 -275 q 265 -333 360 -333 m 372 172 q 419 186 399 172 q 458 224 440 200 q 489 279 475 249 q 511 344 503 310 q 524 415 519 379 q 529 481 529 450 q 510 560 529 531 q 454 590 490 590 q 403 572 428 590 q 360 524 379 554 q 326 454 340 493 q 303 371 311 415 q 294 282 294 326 q 315 200 294 228 q 372 172 336 172 m 204 858 q 271 922 233 885 q 346 996 308 958 q 408 1064 383 1033 l 671 1064 q 706 994 685 1032 q 749 922 726 957 q 792 858 772 886 l 792 842 l 636 842 q 601 876 621 856 q 562 918 581 896 q 528 957 543 940 q 449 897 489 925 q 368 842 410 868 l 204 842 l 204 858 z "},"Ğ":{"ha":964,"x_min":78,"x_max":949,"o":"m 447 -14 q 177 85 276 -14 q 78 376 78 183 q 101 568 78 475 q 170 740 124 661 q 286 880 217 819 q 449 974 356 940 q 658 1007 542 1007 q 813 990 740 1007 q 949 938 885 974 l 860 749 q 763 792 814 775 q 651 810 711 810 q 499 770 563 810 q 394 667 435 731 q 335 531 354 604 q 315 388 315 457 q 334 274 315 319 q 391 206 353 228 q 488 183 429 183 q 542 187 519 183 q 592 196 564 190 l 632 378 l 463 378 l 504 568 l 901 568 l 789 40 q 640 2 719 18 q 447 -14 560 -14 m 643 1071 q 513 1098 564 1071 q 438 1170 463 1125 q 414 1269 414 1215 q 415 1293 414 1283 q 418 1310 417 1303 l 550 1310 q 563 1262 550 1281 q 599 1233 575 1243 q 657 1224 622 1224 q 742 1242 707 1224 q 792 1310 776 1260 l 929 1310 q 841 1133 910 1194 q 643 1071 772 1071 z "},"ğ":{"ha":833,"x_min":18,"x_max":814,"o":"m 265 -333 q 124 -320 181 -333 q 18 -287 68 -307 l 18 -92 q 92 -123 54 -110 q 172 -143 131 -136 q 256 -150 213 -150 q 365 -119 324 -150 q 422 -28 407 -87 l 428 -3 q 441 44 433 18 q 454 89 449 71 l 449 89 q 402 40 428 63 q 342 3 376 17 q 263 -11 308 -11 q 160 17 207 -11 q 87 107 114 46 q 60 268 60 168 q 74 406 60 335 q 117 542 89 476 q 188 661 146 608 q 283 745 229 714 q 403 776 338 776 q 483 764 450 776 q 540 728 515 751 q 589 667 565 704 l 594 667 l 632 763 l 814 763 l 647 -18 q 567 -206 622 -137 q 436 -304 513 -275 q 265 -333 360 -333 m 372 172 q 419 186 399 172 q 458 224 440 200 q 489 279 475 249 q 511 344 503 310 q 524 415 519 379 q 529 481 529 450 q 510 560 529 531 q 454 590 490 590 q 403 572 428 590 q 360 524 379 554 q 326 454 340 493 q 303 371 311 415 q 294 282 294 326 q 315 200 294 228 q 372 172 336 172 m 503 842 q 373 869 424 842 q 298 941 322 896 q 274 1040 274 986 q 275 1064 274 1054 q 278 1081 276 1074 l 410 1081 q 422 1033 410 1051 q 458 1004 435 1014 q 517 994 482 994 q 601 1013 567 994 q 651 1081 636 1031 l 789 1081 q 701 903 769 965 q 503 842 632 842 z "},"Ġ":{"ha":964,"x_min":78,"x_max":949,"o":"m 447 -14 q 177 85 276 -14 q 78 376 78 183 q 101 568 78 475 q 170 740 124 661 q 286 880 217 819 q 449 974 356 940 q 658 1007 542 1007 q 813 990 740 1007 q 949 938 885 974 l 860 749 q 763 792 814 775 q 651 810 711 810 q 499 770 563 810 q 394 667 435 731 q 335 531 354 604 q 315 388 315 457 q 334 274 315 319 q 391 206 353 228 q 488 183 429 183 q 542 187 519 183 q 592 196 564 190 l 632 378 l 463 378 l 504 568 l 901 568 l 789 40 q 640 2 719 18 q 447 -14 560 -14 m 654 1076 q 572 1096 606 1076 q 539 1165 539 1115 q 576 1264 539 1232 q 676 1296 613 1296 q 733 1288 707 1296 q 774 1261 758 1281 q 790 1207 790 1242 q 759 1113 790 1149 q 654 1076 728 1076 z "},"ġ":{"ha":833,"x_min":18,"x_max":814,"o":"m 265 -333 q 124 -320 181 -333 q 18 -287 68 -307 l 18 -92 q 92 -123 54 -110 q 172 -143 131 -136 q 256 -150 213 -150 q 365 -119 324 -150 q 422 -28 407 -87 l 428 -3 q 441 44 433 18 q 454 89 449 71 l 449 89 q 402 40 428 63 q 342 3 376 17 q 263 -11 308 -11 q 160 17 207 -11 q 87 107 114 46 q 60 268 60 168 q 74 406 60 335 q 117 542 89 476 q 188 661 146 608 q 283 745 229 714 q 403 776 338 776 q 483 764 450 776 q 540 728 515 751 q 589 667 565 704 l 594 667 l 632 763 l 814 763 l 647 -18 q 567 -206 622 -137 q 436 -304 513 -275 q 265 -333 360 -333 m 372 172 q 419 186 399 172 q 458 224 440 200 q 489 279 475 249 q 511 344 503 310 q 524 415 519 379 q 529 481 529 450 q 510 560 529 531 q 454 590 490 590 q 403 572 428 590 q 360 524 379 554 q 326 454 340 493 q 303 371 311 415 q 294 282 294 326 q 315 200 294 228 q 372 172 336 172 m 515 847 q 433 867 467 847 q 400 936 400 886 q 437 1035 400 1003 q 538 1067 474 1067 q 594 1059 568 1067 q 635 1032 619 1051 q 651 978 651 1013 q 620 883 651 919 q 515 847 589 847 z "},"Ģ":{"ha":964,"x_min":78,"x_max":949,"o":"m 447 -14 q 177 85 276 -14 q 78 376 78 183 q 101 568 78 475 q 170 740 124 661 q 286 880 217 819 q 449 974 356 940 q 658 1007 542 1007 q 813 990 740 1007 q 949 938 885 974 l 860 749 q 763 792 814 775 q 651 810 711 810 q 499 770 563 810 q 394 667 435 731 q 335 531 354 604 q 315 388 315 457 q 334 274 315 319 q 391 206 353 228 q 488 183 429 183 q 542 187 519 183 q 592 196 564 190 l 632 378 l 463 378 l 504 568 l 901 568 l 789 40 q 640 2 719 18 q 447 -14 560 -14 m 271 -289 q 299 -224 285 -260 q 328 -151 314 -187 q 351 -85 342 -114 l 568 -85 l 568 -99 q 524 -167 549 -132 q 470 -237 499 -203 q 411 -307 442 -272 l 271 -307 l 271 -289 z "},"ģ":{"ha":833,"x_min":18,"x_max":814,"o":"m 376 856 q 421 924 396 889 q 474 994 446 958 q 533 1064 503 1031 l 674 1064 l 674 1046 q 646 982 661 1018 q 617 909 631 946 q 593 842 603 872 l 376 842 l 376 856 m 265 -333 q 124 -320 181 -333 q 18 -287 68 -307 l 18 -92 q 92 -123 54 -110 q 172 -143 131 -136 q 256 -150 213 -150 q 365 -119 324 -150 q 422 -28 407 -87 l 428 -3 q 441 44 433 18 q 454 89 449 71 l 449 89 q 402 40 428 63 q 342 3 376 17 q 263 -11 308 -11 q 160 17 207 -11 q 87 107 114 46 q 60 268 60 168 q 74 406 60 335 q 117 542 89 476 q 188 661 146 608 q 283 745 229 714 q 403 776 338 776 q 483 764 450 776 q 540 728 515 751 q 589 667 565 704 l 594 667 l 632 763 l 814 763 l 647 -18 q 567 -206 622 -137 q 436 -304 513 -275 q 265 -333 360 -333 m 372 172 q 419 186 399 172 q 458 224 440 200 q 489 279 475 249 q 511 344 503 310 q 524 415 519 379 q 529 481 529 450 q 510 560 529 531 q 454 590 490 590 q 403 572 428 590 q 360 524 379 554 q 326 454 340 493 q 303 371 311 415 q 294 282 294 326 q 315 200 294 228 q 372 172 336 172 z "},"Ĥ":{"ha":981,"x_min":29,"x_max":988,"o":"m 29 0 l 239 992 l 474 992 l 394 613 l 675 613 l 754 992 l 988 992 l 778 0 l 544 0 l 632 417 l 351 417 l 264 0 l 29 0 m 322 1088 q 389 1151 351 1114 q 464 1225 426 1188 q 526 1293 501 1263 l 789 1293 q 824 1224 803 1261 q 867 1151 844 1186 q 910 1088 890 1115 l 910 1071 l 754 1071 q 719 1105 739 1085 q 680 1147 699 1125 q 646 1186 661 1169 q 567 1126 607 1154 q 486 1071 528 1097 l 322 1071 l 322 1088 z "},"ĥ":{"ha":850,"x_min":21,"x_max":782,"o":"m 21 0 l 244 1056 l 475 1056 l 438 879 q 421 809 432 847 q 399 735 410 771 q 378 674 388 700 l 383 674 q 440 730 410 707 q 506 765 469 753 q 583 776 542 776 q 696 748 651 776 q 761 671 740 719 q 782 558 782 622 q 778 492 782 528 q 767 421 774 457 l 678 0 l 447 0 l 538 432 q 545 476 542 453 q 549 519 549 500 q 532 574 549 557 q 486 592 515 592 q 419 561 450 592 q 364 474 388 531 q 324 342 340 418 l 251 0 l 21 0 m 71 1151 q 138 1215 100 1178 q 213 1289 175 1251 q 275 1357 250 1326 l 538 1357 q 572 1288 551 1325 q 616 1215 593 1250 q 658 1151 639 1179 l 658 1135 l 503 1135 q 467 1169 488 1149 q 428 1211 447 1189 q 394 1250 410 1233 q 316 1190 356 1218 q 235 1135 276 1161 l 71 1135 l 71 1151 z "},"Ħ":{"ha":981,"x_min":29,"x_max":1082,"o":"m 29 0 l 182 725 l 65 725 l 94 871 l 214 871 l 239 992 l 474 992 l 449 871 l 729 871 l 754 992 l 988 992 l 963 871 l 1082 871 l 1051 725 l 931 725 l 778 0 l 544 0 l 632 417 l 351 417 l 264 0 l 29 0 m 394 613 l 675 613 l 697 725 l 417 725 l 394 613 z "},"ħ":{"ha":850,"x_min":21,"x_max":771,"o":"m 21 0 l 190 803 l 79 803 l 110 950 l 221 950 l 244 1056 l 475 1056 l 454 950 l 647 950 l 615 803 l 422 803 q 403 731 414 767 q 384 668 393 696 q 368 619 375 640 l 374 619 q 429 676 399 653 q 495 710 460 699 q 572 722 531 722 q 685 694 640 722 q 750 617 729 665 q 771 504 771 568 q 767 437 771 472 q 756 367 763 401 l 678 0 l 447 0 l 526 378 q 535 422 532 399 q 538 465 538 446 q 521 519 538 501 q 475 538 504 538 q 406 506 436 538 q 352 417 375 474 q 313 288 329 361 l 251 0 l 21 0 z "},"Ĩ":{"ha":560,"x_min":-44,"x_max":729,"o":"m -44 0 l -17 135 l 111 189 l 242 800 l 136 857 l 164 992 l 636 992 l 608 857 l 475 800 l 346 189 l 453 135 l 425 0 l -44 0 m 142 1069 q 184 1195 156 1147 q 252 1266 213 1243 q 342 1289 292 1289 q 399 1278 374 1289 q 447 1254 425 1268 q 490 1230 469 1240 q 533 1219 511 1219 q 576 1237 557 1219 q 608 1290 594 1254 l 731 1290 q 685 1163 714 1211 q 616 1092 656 1114 q 525 1071 576 1071 q 465 1081 492 1071 q 417 1106 439 1092 q 373 1129 394 1119 q 329 1139 351 1139 q 290 1121 308 1139 q 264 1069 271 1103 l 142 1069 z "},"ĩ":{"ha":431,"x_min":21,"x_max":628,"o":"m 21 0 l 182 763 l 414 763 l 251 0 l 21 0 m 39 840 q 81 966 53 918 q 149 1037 110 1014 q 239 1060 189 1060 q 297 1049 271 1060 q 344 1025 322 1039 q 388 1001 367 1011 q 431 990 408 990 q 473 1008 454 990 q 506 1061 492 1025 l 628 1061 q 582 933 611 982 q 513 863 553 885 q 422 842 474 842 q 363 852 389 842 q 314 876 336 863 q 270 900 292 890 q 226 910 249 910 q 187 892 206 910 q 161 840 168 874 l 39 840 z "},"Ī":{"ha":560,"x_min":-44,"x_max":657,"o":"m -44 0 l -17 135 l 111 189 l 242 800 l 136 857 l 164 992 l 636 992 l 608 857 l 475 800 l 346 189 l 453 135 l 425 0 l -44 0 m 190 1071 l 222 1222 l 657 1222 l 625 1071 l 190 1071 z "},"ī":{"ha":431,"x_min":21,"x_max":556,"o":"m 21 0 l 182 763 l 414 763 l 251 0 l 21 0 m 89 842 l 121 993 l 556 993 l 524 842 l 89 842 z "},"Ĭ":{"ha":560,"x_min":-44,"x_max":696,"o":"m -44 0 l -17 135 l 111 189 l 242 800 l 136 857 l 164 992 l 636 992 l 608 857 l 475 800 l 346 189 l 453 135 l 425 0 l -44 0 m 410 1071 q 280 1098 331 1071 q 205 1170 229 1125 q 181 1269 181 1215 q 182 1293 181 1283 q 185 1310 183 1303 l 317 1310 q 329 1262 317 1281 q 365 1233 342 1243 q 424 1224 389 1224 q 508 1242 474 1224 q 558 1310 543 1260 l 696 1310 q 608 1133 676 1194 q 410 1071 539 1071 z "},"ĭ":{"ha":431,"x_min":21,"x_max":594,"o":"m 21 0 l 182 763 l 414 763 l 251 0 l 21 0 m 308 842 q 178 869 229 842 q 103 941 128 896 q 79 1040 79 986 q 81 1064 79 1054 q 83 1081 82 1074 l 215 1081 q 228 1033 215 1051 q 264 1004 240 1014 q 322 994 288 994 q 407 1013 372 994 q 457 1081 442 1031 l 594 1081 q 506 903 575 965 q 308 842 438 842 z "},"Į":{"ha":560,"x_min":-44,"x_max":636,"o":"m -44 0 l -17 135 l 111 189 l 242 800 l 136 857 l 164 992 l 636 992 l 608 857 l 475 800 l 346 189 l 453 135 l 425 0 l -44 0 m 218 -343 q 100 -304 142 -343 q 58 -206 58 -265 q 77 -123 58 -158 q 129 -57 96 -87 q 206 0 163 -26 l 357 0 q 293 -54 322 -28 q 246 -108 264 -81 q 228 -168 228 -136 q 238 -195 228 -185 q 265 -206 247 -206 q 303 -201 286 -206 q 339 -192 319 -197 l 339 -325 q 284 -338 313 -333 q 218 -343 256 -343 z "},"į":{"ha":431,"x_min":-51,"x_max":465,"o":"m 21 0 l 182 763 l 414 763 l 251 0 l 21 0 m 329 847 q 247 867 281 847 q 214 936 214 888 q 231 1008 214 979 q 278 1051 247 1036 q 351 1067 308 1067 q 431 1047 397 1067 q 465 978 465 1028 q 432 883 465 919 q 329 847 399 847 m 108 -343 q -10 -304 32 -343 q -51 -206 -51 -265 q -33 -123 -51 -158 q 19 -57 -14 -87 q 96 0 53 -26 l 247 0 q 183 -54 213 -28 q 136 -108 154 -81 q 118 -168 118 -136 q 128 -195 118 -185 q 156 -206 138 -206 q 193 -201 176 -206 q 229 -192 210 -197 l 229 -325 q 174 -338 203 -333 q 108 -343 146 -343 z "},"İ":{"ha":560,"x_min":-44,"x_max":636,"o":"m -44 0 l -17 135 l 111 189 l 242 800 l 136 857 l 164 992 l 636 992 l 608 857 l 475 800 l 346 189 l 453 135 l 425 0 l -44 0 m 422 1076 q 340 1096 374 1076 q 307 1165 307 1115 q 344 1264 307 1232 q 444 1296 381 1296 q 501 1288 475 1296 q 542 1261 526 1281 q 558 1207 558 1242 q 527 1113 558 1149 q 422 1076 496 1076 z "},"Ĳ":{"ha":1046,"x_min":-44,"x_max":1053,"o":"m -44 0 l -17 135 l 111 189 l 242 800 l 136 857 l 164 992 l 636 992 l 608 857 l 475 800 l 346 189 l 453 135 l 425 0 l -44 0 m 475 -301 q 401 -296 435 -301 q 340 -282 368 -290 l 340 -90 q 392 -101 364 -96 q 454 -106 419 -106 q 531 -89 497 -106 q 587 -34 564 -72 q 622 67 610 4 l 819 992 l 1053 992 l 849 35 q 777 -160 824 -86 q 657 -268 731 -235 q 475 -301 583 -301 z "},"ĳ":{"ha":861,"x_min":21,"x_max":899,"o":"m 21 0 l 182 763 l 414 763 l 251 0 l 21 0 m 329 847 q 247 867 281 847 q 214 936 214 888 q 231 1008 214 979 q 278 1051 247 1036 q 351 1067 308 1067 q 431 1047 397 1067 q 465 978 465 1028 q 432 883 465 919 q 329 847 399 847 m 379 -333 q 310 -328 346 -333 q 251 -317 274 -324 l 251 -133 q 292 -143 275 -140 q 329 -146 310 -146 q 381 -135 357 -146 q 421 -101 404 -125 q 446 -37 438 -76 l 617 763 l 847 763 l 669 -74 q 622 -202 656 -143 q 530 -297 589 -261 q 379 -333 471 -333 m 763 847 q 681 867 714 847 q 649 936 649 888 q 665 1008 649 979 q 712 1051 681 1036 q 785 1067 743 1067 q 865 1047 831 1067 q 900 978 900 1028 q 866 883 900 919 q 763 847 832 847 z "},"Ĵ":{"ha":486,"x_min":-219,"x_max":674,"o":"m -85 -301 q -158 -296 -125 -301 q -219 -282 -192 -290 l -219 -90 q -168 -101 -196 -96 q -106 -106 -140 -106 q -29 -89 -62 -106 q 27 -34 4 -72 q 63 67 50 4 l 260 992 l 493 992 l 289 35 q 217 -160 264 -86 q 97 -268 171 -235 q -85 -301 24 -301 m 85 1088 q 151 1151 114 1114 q 226 1225 189 1188 q 289 1293 264 1263 l 551 1293 q 586 1224 565 1261 q 630 1151 607 1186 q 672 1088 653 1115 l 672 1071 l 517 1071 q 481 1105 501 1085 q 442 1147 461 1125 q 408 1186 424 1169 q 330 1126 369 1154 q 249 1071 290 1097 l 85 1071 l 85 1088 z "},"ĵ":{"ha":431,"x_min":-178,"x_max":594,"o":"m -50 -333 q -120 -328 -83 -333 q -178 -317 -157 -324 l -178 -133 q -137 -143 -156 -140 q -101 -146 -119 -146 q -49 -135 -74 -146 q -8 -101 -25 -125 q 17 -37 8 -76 l 186 763 l 418 763 l 239 -74 q 192 -202 225 -143 q 100 -297 158 -261 q -50 -333 42 -333 m 7 858 q 74 922 36 885 q 149 996 111 958 q 211 1064 186 1033 l 474 1064 q 508 994 488 1032 q 552 922 529 957 q 594 858 575 886 l 594 842 l 439 842 q 403 876 424 856 q 365 918 383 896 q 331 957 346 940 q 252 897 292 925 q 171 842 213 868 l 7 842 l 7 858 z "},"Ķ":{"ha":888,"x_min":29,"x_max":1004,"o":"m 29 0 l 239 992 l 474 992 l 375 538 l 478 679 l 728 992 l 1004 992 l 614 525 l 806 0 l 544 0 l 413 397 l 338 354 l 264 0 l 29 0 m 200 -289 q 228 -224 214 -260 q 257 -151 243 -187 q 281 -85 271 -114 l 497 -85 l 497 -99 q 453 -167 478 -132 q 399 -237 428 -203 q 340 -307 371 -272 l 200 -307 l 200 -289 z "},"ķ":{"ha":821,"x_min":21,"x_max":892,"o":"m 21 0 l 243 1056 l 474 1056 l 376 594 q 356 513 369 558 q 335 444 342 468 l 340 444 l 628 763 l 892 763 l 556 418 l 746 0 l 486 0 l 376 276 l 300 233 l 251 0 l 21 0 m 163 -289 q 191 -224 176 -260 q 219 -151 206 -187 q 243 -85 233 -114 l 460 -85 l 460 -99 q 415 -167 440 -132 q 362 -237 390 -203 q 303 -307 333 -272 l 163 -307 l 163 -289 z "},"ĸ":{"ha":821,"x_min":21,"x_max":890,"o":"m 21 0 l 182 763 l 413 763 l 376 599 q 356 519 368 561 q 332 444 343 478 l 338 444 l 625 763 l 890 763 l 556 418 l 746 0 l 486 0 l 376 276 l 300 233 l 251 0 l 21 0 z "},"Ĺ":{"ha":725,"x_min":29,"x_max":717,"o":"m 29 0 l 239 992 l 474 992 l 304 193 l 640 193 l 600 0 l 29 0 m 288 1088 q 344 1149 314 1113 q 404 1223 375 1185 q 456 1293 433 1261 l 715 1293 l 715 1282 q 669 1235 700 1264 q 598 1176 638 1207 q 519 1117 558 1146 q 453 1071 481 1089 l 288 1071 l 288 1088 z "},"ĺ":{"ha":431,"x_min":21,"x_max":683,"o":"m 21 0 l 244 1056 l 475 1056 l 251 0 l 21 0 m 254 1151 q 311 1213 281 1176 q 371 1287 342 1249 q 422 1357 400 1325 l 682 1357 l 682 1346 q 635 1299 667 1328 q 565 1240 604 1271 q 486 1181 525 1210 q 419 1135 447 1153 l 254 1135 l 254 1151 z "},"Ļ":{"ha":725,"x_min":29,"x_max":640,"o":"m 29 0 l 239 992 l 474 992 l 304 193 l 640 193 l 600 0 l 29 0 m 129 -289 q 158 -224 143 -260 q 186 -151 172 -187 q 210 -85 200 -114 l 426 -85 l 426 -99 q 382 -167 407 -132 q 328 -237 357 -203 q 269 -307 300 -272 l 129 -307 l 129 -289 z "},"ļ":{"ha":431,"x_min":-54,"x_max":475,"o":"m 21 0 l 244 1056 l 475 1056 l 251 0 l 21 0 m -56 -289 q -27 -224 -42 -260 q 1 -151 -12 -187 q 25 -85 15 -114 l 242 -85 l 242 -99 q 197 -167 222 -132 q 144 -237 172 -203 q 85 -307 115 -272 l -56 -307 l -56 -289 z "},"Ľ":{"ha":725,"x_min":29,"x_max":824,"o":"m 526 785 q 555 850 540 814 q 583 923 569 886 q 607 989 597 960 l 824 989 l 824 975 q 779 907 804 942 q 726 838 754 872 q 667 767 697 803 l 526 767 l 526 785 m 29 0 l 239 992 l 474 992 l 304 193 l 640 193 l 600 0 l 29 0 z "},"ľ":{"ha":561,"x_min":21,"x_max":776,"o":"m 481 851 q 508 917 493 881 q 536 990 522 953 q 560 1056 550 1026 l 776 1056 l 776 1042 q 733 974 758 1008 q 680 904 708 939 q 621 833 651 869 l 481 833 l 481 851 m 21 0 l 244 1056 l 475 1056 l 251 0 l 21 0 z "},"Ŀ":{"ha":725,"x_min":29,"x_max":729,"o":"m 29 0 l 239 992 l 474 992 l 304 193 l 640 193 l 600 0 l 29 0 m 593 404 q 511 424 544 404 q 478 493 478 443 q 515 592 478 560 q 615 624 551 624 q 672 616 646 624 q 713 589 697 608 q 729 535 729 569 q 698 440 729 476 q 593 404 667 404 z "},"ŀ":{"ha":667,"x_min":21,"x_max":694,"o":"m 21 0 l 244 1056 l 475 1056 l 251 0 l 21 0 m 558 364 q 476 383 510 364 q 443 453 443 403 q 480 551 443 519 q 581 583 517 583 q 637 576 611 583 q 678 549 663 568 q 694 494 694 529 q 663 400 694 436 q 558 364 632 364 z "},"Ł":{"ha":732,"x_min":-15,"x_max":647,"o":"m 38 0 l 107 328 l 61 304 l -15 454 l 151 543 l 247 992 l 479 992 l 413 675 l 518 732 l 599 582 l 367 458 l 311 193 l 647 193 l 607 0 l 38 0 z "},"ł":{"ha":472,"x_min":-15,"x_max":529,"o":"m 40 0 l 104 301 l 56 276 l -15 421 l 147 506 l 264 1056 l 493 1056 l 404 633 l 454 660 l 529 515 l 360 428 l 269 0 l 40 0 z "},"Ń":{"ha":1071,"x_min":29,"x_max":1078,"o":"m 29 0 l 239 992 l 513 992 l 726 290 l 732 290 q 743 367 736 321 q 758 461 750 413 q 774 547 767 510 l 869 992 l 1078 992 l 868 0 l 601 0 l 381 725 l 374 725 q 369 683 372 715 q 360 608 365 651 q 347 522 354 565 q 332 442 339 478 l 239 0 l 29 0 m 567 1088 q 624 1149 593 1113 q 683 1223 654 1185 q 735 1293 713 1261 l 994 1293 l 994 1282 q 948 1235 979 1264 q 877 1176 917 1207 q 799 1117 838 1146 q 732 1071 760 1089 l 567 1071 l 567 1088 z "},"ń":{"ha":850,"x_min":21,"x_max":833,"o":"m 21 0 l 182 763 l 363 763 l 351 638 l 357 638 q 417 713 385 682 q 491 760 450 744 q 583 776 532 776 q 696 748 651 776 q 761 671 740 719 q 782 558 782 622 q 778 492 782 528 q 767 421 774 457 l 678 0 l 447 0 l 538 432 q 545 476 542 453 q 549 519 549 500 q 532 574 549 557 q 486 592 515 592 q 419 560 450 592 q 364 473 388 529 q 324 342 340 417 l 251 0 l 21 0 m 406 858 q 463 919 432 883 q 522 994 493 956 q 574 1064 551 1032 l 833 1064 l 833 1053 q 787 1006 818 1035 q 716 947 756 978 q 638 888 676 917 q 571 842 599 860 l 406 842 l 406 858 z "},"Ņ":{"ha":1071,"x_min":29,"x_max":1078,"o":"m 29 0 l 239 992 l 513 992 l 726 290 l 732 290 q 743 367 736 321 q 758 461 750 413 q 774 547 767 510 l 869 992 l 1078 992 l 868 0 l 601 0 l 381 725 l 374 725 q 369 683 372 715 q 360 608 365 651 q 347 522 354 565 q 332 442 339 478 l 239 0 l 29 0 m 254 -289 q 283 -224 268 -260 q 311 -151 297 -187 q 335 -85 325 -114 l 551 -85 l 551 -99 q 507 -167 532 -132 q 453 -237 482 -203 q 394 -307 425 -272 l 254 -307 l 254 -289 z "},"ņ":{"ha":850,"x_min":21,"x_max":782,"o":"m 21 0 l 182 763 l 363 763 l 351 638 l 357 638 q 417 713 385 682 q 491 760 450 744 q 583 776 532 776 q 696 748 651 776 q 761 671 740 719 q 782 558 782 622 q 778 492 782 528 q 767 421 774 457 l 678 0 l 447 0 l 538 432 q 545 476 542 453 q 549 519 549 500 q 532 574 549 557 q 486 592 515 592 q 419 560 450 592 q 364 473 388 529 q 324 342 340 417 l 251 0 l 21 0 m 161 -289 q 190 -224 175 -260 q 218 -151 204 -187 q 242 -85 232 -114 l 458 -85 l 458 -99 q 414 -167 439 -132 q 360 -237 389 -203 q 301 -307 332 -272 l 161 -307 l 161 -289 z "},"Ň":{"ha":1071,"x_min":29,"x_max":1078,"o":"m 29 0 l 239 992 l 513 992 l 726 290 l 732 290 q 743 367 736 321 q 758 461 750 413 q 774 547 767 510 l 869 992 l 1078 992 l 868 0 l 601 0 l 381 725 l 374 725 q 369 683 372 715 q 360 608 365 651 q 347 522 354 565 q 332 442 339 478 l 239 0 l 29 0 m 556 1071 q 521 1140 542 1103 q 478 1214 500 1178 q 436 1276 456 1250 l 436 1293 l 592 1293 q 627 1259 607 1279 q 666 1217 647 1239 q 699 1178 685 1194 q 778 1238 739 1210 q 858 1293 817 1267 l 1024 1293 l 1024 1276 q 955 1213 993 1250 q 881 1139 917 1176 q 819 1071 846 1101 l 556 1071 z "},"ň":{"ha":850,"x_min":21,"x_max":863,"o":"m 21 0 l 182 763 l 363 763 l 351 638 l 357 638 q 417 713 385 682 q 491 760 450 744 q 583 776 532 776 q 696 748 651 776 q 761 671 740 719 q 782 558 782 622 q 778 492 782 528 q 767 421 774 457 l 678 0 l 447 0 l 538 432 q 545 476 542 453 q 549 519 549 500 q 532 574 549 557 q 486 592 515 592 q 419 560 450 592 q 364 473 388 529 q 324 342 340 417 l 251 0 l 21 0 m 394 842 q 360 911 381 874 q 317 985 339 949 q 275 1047 294 1021 l 275 1064 l 431 1064 q 466 1030 446 1050 q 505 988 486 1010 q 538 949 524 965 q 617 1009 578 981 q 697 1064 656 1038 l 863 1064 l 863 1047 q 794 984 832 1021 q 720 910 756 947 q 658 842 685 872 l 394 842 z "},"ŉ":{"ha":981,"x_min":0,"x_max":911,"o":"m 150 0 l 311 763 l 492 763 l 481 638 l 486 638 q 547 713 514 682 q 620 760 579 744 q 713 776 661 776 q 825 748 781 776 q 890 671 869 719 q 911 558 911 622 q 907 492 911 528 q 896 421 903 457 l 807 0 l 576 0 l 667 432 q 674 476 671 453 q 678 519 678 500 q 661 574 678 557 q 615 592 644 592 q 548 560 579 592 q 493 473 517 529 q 453 342 469 417 l 381 0 l 150 0 m -1 651 q 46 767 22 707 q 91 886 69 828 q 129 992 113 944 l 342 992 l 347 976 q 298 873 326 929 q 237 760 269 817 q 172 651 204 703 l -1 651 z "},"Ŋ":{"ha":1071,"x_min":29,"x_max":1078,"o":"m 499 -301 q 424 -296 460 -301 q 363 -283 389 -290 l 363 -99 q 416 -110 388 -104 q 482 -115 444 -115 q 559 -103 525 -115 q 617 -65 593 -92 q 654 3 642 -39 l 381 725 l 375 725 q 369 683 374 715 q 360 608 365 651 q 347 522 354 565 q 332 442 339 478 l 239 0 l 29 0 l 239 992 l 494 992 l 736 358 l 742 358 q 753 434 746 389 q 769 527 760 479 q 786 615 778 575 l 869 992 l 1078 992 l 868 0 q 800 -169 847 -103 q 678 -269 753 -236 q 499 -301 603 -301 z "},"ŋ":{"ha":850,"x_min":21,"x_max":782,"o":"m 372 -333 q 302 -328 339 -333 q 244 -317 265 -324 l 244 -133 q 285 -143 267 -140 q 321 -146 303 -146 q 373 -135 349 -146 q 414 -101 397 -125 q 439 -37 431 -76 l 538 432 q 545 476 542 453 q 549 519 549 500 q 532 574 549 557 q 486 592 515 592 q 418 560 449 592 q 364 473 388 529 q 324 342 340 417 l 251 0 l 21 0 l 182 763 l 363 763 l 351 638 l 357 638 q 417 713 383 682 q 491 760 450 744 q 583 776 532 776 q 696 748 651 776 q 761 671 740 719 q 782 558 782 622 q 778 492 782 528 q 767 421 774 457 l 663 -72 q 614 -203 647 -143 q 522 -298 581 -262 q 372 -333 464 -333 z "},"Ō":{"ha":1018,"x_min":78,"x_max":975,"o":"m 451 -14 q 244 33 328 -14 q 119 166 161 81 q 78 365 78 251 q 92 520 78 443 q 134 669 106 597 q 206 801 163 740 q 309 909 250 863 q 443 981 368 956 q 608 1007 518 1007 q 883 904 790 1007 q 975 631 975 801 q 962 474 975 553 q 920 324 949 396 q 849 190 892 251 q 749 83 807 128 q 616 12 690 38 q 451 -14 542 -14 m 471 182 q 542 197 507 182 q 606 240 576 211 q 660 308 636 268 q 701 397 683 347 q 728 504 719 446 q 738 626 738 563 q 700 762 738 713 q 589 811 663 811 q 513 794 549 811 q 446 747 476 778 q 391 675 415 717 q 349 583 367 633 q 324 478 332 533 q 315 367 315 424 q 333 266 315 307 q 386 203 351 225 q 471 182 421 182 m 426 1071 l 458 1222 l 893 1222 l 861 1071 l 426 1071 z "},"ō":{"ha":826,"x_min":60,"x_max":768,"o":"m 351 -14 q 197 22 263 -14 q 95 122 131 57 q 60 279 60 188 q 76 433 60 360 q 126 569 93 507 q 210 678 160 632 q 326 751 260 725 q 476 776 393 776 q 633 742 568 776 q 733 640 697 707 q 768 479 768 574 q 751 328 768 401 q 701 193 735 256 q 619 84 668 131 q 503 12 569 38 q 351 -14 436 -14 m 375 167 q 428 184 403 167 q 472 232 453 201 q 505 303 492 263 q 526 389 518 343 q 533 482 533 435 q 525 543 533 518 q 499 582 517 568 q 454 596 482 596 q 397 576 422 596 q 353 525 372 557 q 321 451 335 493 q 300 365 307 410 q 293 276 293 319 q 314 194 293 222 q 375 167 335 167 m 278 842 l 310 993 l 744 993 l 713 842 l 278 842 z "},"Ŏ":{"ha":1018,"x_min":78,"x_max":975,"o":"m 451 -14 q 244 33 328 -14 q 119 166 161 81 q 78 365 78 251 q 92 520 78 443 q 134 669 106 597 q 206 801 163 740 q 309 909 250 863 q 443 981 368 956 q 608 1007 518 1007 q 883 904 790 1007 q 975 631 975 801 q 962 474 975 553 q 920 324 949 396 q 849 190 892 251 q 749 83 807 128 q 616 12 690 38 q 451 -14 542 -14 m 471 182 q 542 197 507 182 q 606 240 576 211 q 660 308 636 268 q 701 397 683 347 q 728 504 719 446 q 738 626 738 563 q 700 762 738 713 q 589 811 663 811 q 513 794 549 811 q 446 747 476 778 q 391 675 415 717 q 349 583 367 633 q 324 478 332 533 q 315 367 315 424 q 333 266 315 307 q 386 203 351 225 q 471 182 421 182 m 646 1071 q 516 1098 567 1071 q 441 1170 465 1125 q 417 1269 417 1215 q 418 1293 417 1283 q 421 1310 419 1303 l 553 1310 q 565 1262 553 1281 q 601 1233 578 1243 q 660 1224 625 1224 q 744 1242 710 1224 q 794 1310 779 1260 l 932 1310 q 844 1133 913 1194 q 646 1071 775 1071 z "},"ŏ":{"ha":826,"x_min":60,"x_max":783,"o":"m 351 -14 q 197 22 263 -14 q 95 122 131 57 q 60 279 60 188 q 76 433 60 360 q 126 569 93 507 q 210 678 160 632 q 326 751 260 725 q 476 776 393 776 q 633 742 568 776 q 733 640 697 707 q 768 479 768 574 q 751 328 768 401 q 701 193 735 256 q 619 84 668 131 q 503 12 569 38 q 351 -14 436 -14 m 375 167 q 428 184 403 167 q 472 232 453 201 q 505 303 492 263 q 526 389 518 343 q 533 482 533 435 q 525 543 533 518 q 499 582 517 568 q 454 596 482 596 q 397 576 422 596 q 353 525 372 557 q 321 451 335 493 q 300 365 307 410 q 293 276 293 319 q 314 194 293 222 q 375 167 335 167 m 497 842 q 367 869 418 842 q 292 941 317 896 q 268 1040 268 986 q 269 1064 268 1054 q 272 1081 271 1074 l 404 1081 q 417 1033 404 1051 q 453 1004 429 1014 q 511 994 476 994 q 596 1013 561 994 q 646 1081 631 1031 l 783 1081 q 695 903 764 965 q 497 842 626 842 z "},"Ő":{"ha":1018,"x_min":78,"x_max":1094,"o":"m 451 -14 q 244 33 328 -14 q 119 166 161 81 q 78 365 78 251 q 92 520 78 443 q 134 669 106 597 q 206 801 163 740 q 309 909 250 863 q 443 981 368 956 q 608 1007 518 1007 q 883 904 790 1007 q 975 631 975 801 q 962 474 975 553 q 920 324 949 396 q 849 190 892 251 q 749 83 807 128 q 616 12 690 38 q 451 -14 542 -14 m 471 182 q 542 197 507 182 q 606 240 576 211 q 660 308 636 268 q 701 397 683 347 q 728 504 719 446 q 738 626 738 563 q 700 762 738 713 q 589 811 663 811 q 513 794 549 811 q 446 747 476 778 q 391 675 415 717 q 349 583 367 633 q 324 478 332 533 q 315 367 315 424 q 333 266 315 307 q 386 203 351 225 q 471 182 421 182 m 718 1089 q 767 1151 740 1115 q 821 1224 793 1186 q 867 1293 849 1263 l 1094 1293 l 1094 1281 q 1052 1235 1082 1263 q 985 1176 1022 1207 q 910 1118 947 1146 q 846 1071 874 1090 l 718 1071 l 718 1089 m 428 1089 q 478 1151 451 1115 q 533 1224 506 1186 q 581 1293 561 1263 l 808 1293 l 808 1281 q 765 1235 794 1263 q 696 1176 735 1207 q 620 1118 657 1146 q 557 1071 583 1090 l 428 1071 l 428 1089 z "},"ő":{"ha":826,"x_min":60,"x_max":946,"o":"m 351 -14 q 197 22 263 -14 q 95 122 131 57 q 60 279 60 188 q 76 433 60 360 q 126 569 93 507 q 210 678 160 632 q 326 751 260 725 q 476 776 393 776 q 633 742 568 776 q 733 640 697 707 q 768 479 768 574 q 751 328 768 401 q 701 193 735 256 q 619 84 668 131 q 503 12 569 38 q 351 -14 436 -14 m 375 167 q 428 184 403 167 q 472 232 453 201 q 505 303 492 263 q 526 389 518 343 q 533 482 533 435 q 525 543 533 518 q 499 582 517 568 q 454 596 482 596 q 397 576 422 596 q 353 525 372 557 q 321 451 335 493 q 300 365 307 410 q 293 276 293 319 q 314 194 293 222 q 375 167 335 167 m 568 860 q 617 922 590 886 q 671 995 643 957 q 717 1064 699 1033 l 944 1064 l 944 1051 q 902 1006 932 1033 q 835 947 872 978 q 760 889 797 917 q 696 842 724 861 l 568 842 l 568 860 m 278 860 q 328 922 301 886 q 383 995 356 957 q 431 1064 411 1033 l 658 1064 l 658 1051 q 615 1006 644 1033 q 546 947 585 978 q 470 889 507 917 q 407 842 433 861 l 278 842 l 278 860 z "},"Œ":{"ha":1271,"x_min":78,"x_max":1315,"o":"m 446 -14 q 243 33 325 -14 q 119 165 161 81 q 78 361 78 250 q 97 543 78 451 q 157 717 117 635 q 260 865 197 800 q 410 969 324 931 q 610 1007 497 1007 q 685 1003 651 1007 q 746 992 718 1000 l 1315 992 l 1275 799 l 939 799 l 899 611 l 1213 611 l 1169 418 l 857 418 l 810 194 l 1146 194 l 1106 0 l 574 0 q 512 -10 544 -6 q 446 -14 479 -14 m 465 185 q 522 191 493 185 q 579 210 551 197 l 700 782 q 652 804 681 797 q 592 811 624 811 q 503 788 544 811 q 427 723 461 765 q 368 624 393 681 q 329 500 343 567 q 315 361 315 433 q 333 263 315 303 q 384 204 350 224 q 465 185 418 185 z "},"œ":{"ha":1224,"x_min":60,"x_max":1190,"o":"m 344 -14 q 136 64 213 -14 q 60 281 60 142 q 76 435 60 361 q 124 570 92 508 q 206 678 157 632 q 319 751 254 725 q 463 776 383 776 q 582 751 532 776 q 664 679 632 726 q 776 751 711 725 q 926 776 840 776 q 1123 718 1056 776 q 1190 567 1190 660 q 1165 456 1190 506 q 1088 369 1139 406 q 956 314 1036 333 q 765 294 875 294 l 728 294 q 728 284 728 289 q 728 274 728 279 q 760 188 728 218 q 851 157 792 157 q 961 172 911 157 q 1075 218 1011 188 l 1075 50 q 951 3 1014 19 q 797 -14 888 -14 q 707 -3 749 -14 q 633 26 665 7 q 578 75 601 44 q 480 10 536 33 q 344 -14 424 -14 m 374 167 q 426 184 401 167 q 468 232 450 201 q 499 303 486 263 q 519 389 513 343 q 526 482 526 435 q 508 565 526 533 q 447 596 489 596 q 394 577 418 596 q 351 526 369 558 q 319 451 332 493 q 299 365 306 410 q 293 278 293 321 q 314 195 293 224 q 374 167 335 167 m 778 444 q 890 460 849 444 q 951 503 932 476 q 971 557 971 529 q 954 600 971 585 q 907 615 938 615 q 840 592 872 615 q 785 529 808 568 q 753 444 763 490 l 778 444 z "},"Ŕ":{"ha":872,"x_min":29,"x_max":886,"o":"m 29 0 l 239 992 l 492 992 q 739 926 650 992 q 828 719 828 860 q 799 576 828 636 q 722 477 769 515 q 622 418 675 439 l 800 0 l 544 0 l 408 372 l 342 372 l 264 0 l 29 0 m 426 557 q 492 565 463 557 q 544 592 522 574 q 579 639 567 610 q 592 706 592 668 q 565 779 592 753 q 478 806 539 806 l 433 806 l 382 557 l 426 557 m 457 1088 q 514 1149 483 1113 q 574 1223 544 1185 q 625 1293 603 1261 l 885 1293 l 885 1282 q 838 1235 869 1264 q 767 1176 807 1207 q 689 1117 728 1146 q 622 1071 650 1089 l 457 1071 l 457 1088 z "},"ŕ":{"ha":594,"x_min":21,"x_max":735,"o":"m 21 0 l 182 763 l 363 763 l 350 628 l 356 628 q 422 712 388 679 q 498 760 457 744 q 589 776 539 776 q 624 775 606 776 q 650 771 642 774 l 600 544 q 567 553 588 550 q 524 557 547 557 q 459 544 490 557 q 402 506 428 532 q 356 438 376 479 q 324 339 336 396 l 251 0 l 21 0 m 307 858 q 364 919 333 883 q 424 994 394 956 q 475 1064 453 1032 l 735 1064 l 735 1053 q 688 1006 719 1035 q 617 947 657 978 q 539 888 578 917 q 472 842 500 860 l 307 842 l 307 858 z "},"Ŗ":{"ha":872,"x_min":29,"x_max":828,"o":"m 29 0 l 239 992 l 492 992 q 739 926 650 992 q 828 719 828 860 q 799 576 828 636 q 722 477 769 515 q 622 418 675 439 l 800 0 l 544 0 l 408 372 l 342 372 l 264 0 l 29 0 m 426 557 q 492 565 463 557 q 544 592 522 574 q 579 639 567 610 q 592 706 592 668 q 565 779 592 753 q 478 806 539 806 l 433 806 l 382 557 l 426 557 m 182 -289 q 210 -224 196 -260 q 239 -151 225 -187 q 263 -85 253 -114 l 479 -85 l 479 -99 q 435 -167 460 -132 q 381 -237 410 -203 q 322 -307 353 -272 l 182 -307 l 182 -289 z "},"ŗ":{"ha":594,"x_min":-46,"x_max":650,"o":"m 21 0 l 182 763 l 363 763 l 350 628 l 356 628 q 422 712 388 679 q 498 760 457 744 q 589 776 539 776 q 624 775 606 776 q 650 771 642 774 l 600 544 q 567 553 588 550 q 524 557 547 557 q 459 544 490 557 q 402 506 428 532 q 356 438 376 479 q 324 339 336 396 l 251 0 l 21 0 m -47 -289 q -19 -224 -33 -260 q 10 -151 -4 -187 q 33 -85 24 -114 l 250 -85 l 250 -99 q 206 -167 231 -132 q 152 -237 181 -203 q 93 -307 124 -272 l -47 -307 l -47 -289 z "},"Ř":{"ha":872,"x_min":29,"x_max":915,"o":"m 29 0 l 239 992 l 492 992 q 739 926 650 992 q 828 719 828 860 q 799 576 828 636 q 722 477 769 515 q 622 418 675 439 l 800 0 l 544 0 l 408 372 l 342 372 l 264 0 l 29 0 m 426 557 q 492 565 463 557 q 544 592 522 574 q 579 639 567 610 q 592 706 592 668 q 565 779 592 753 q 478 806 539 806 l 433 806 l 382 557 l 426 557 m 447 1071 q 413 1140 433 1103 q 369 1214 392 1178 q 328 1276 347 1250 l 328 1293 l 483 1293 q 519 1259 499 1279 q 558 1217 539 1239 q 590 1178 576 1194 q 669 1238 631 1210 q 750 1293 708 1267 l 915 1293 l 915 1276 q 847 1213 885 1250 q 773 1139 808 1176 q 711 1071 738 1101 l 447 1071 z "},"ř":{"ha":594,"x_min":21,"x_max":764,"o":"m 21 0 l 182 763 l 363 763 l 350 628 l 356 628 q 422 712 388 679 q 498 760 457 744 q 589 776 539 776 q 624 775 606 776 q 650 771 642 774 l 600 544 q 567 553 588 550 q 524 557 547 557 q 459 544 490 557 q 402 506 428 532 q 356 438 376 479 q 324 339 336 396 l 251 0 l 21 0 m 296 842 q 261 911 282 874 q 218 985 240 949 q 176 1047 196 1021 l 176 1064 l 332 1064 q 367 1030 347 1050 q 406 988 388 1010 q 439 949 425 965 q 518 1009 479 981 q 599 1064 557 1038 l 764 1064 l 764 1047 q 695 984 733 1021 q 622 910 657 947 q 560 842 586 872 l 296 842 z "},"Ś":{"ha":747,"x_min":28,"x_max":815,"o":"m 276 -14 q 138 3 203 -14 q 28 49 74 19 l 28 258 q 152 203 86 225 q 281 181 218 181 q 335 186 311 181 q 378 204 360 192 q 406 234 396 217 q 415 276 415 251 q 400 333 415 308 q 358 378 385 357 q 299 425 332 400 q 219 499 256 460 q 160 587 182 538 q 138 701 138 636 q 162 824 138 768 q 232 920 186 879 q 342 983 278 961 q 483 1006 406 1006 q 632 988 563 1006 q 763 936 701 971 l 681 758 q 581 797 631 782 q 485 813 531 813 q 436 806 457 813 q 401 785 415 799 q 381 754 388 771 q 374 718 374 738 q 386 667 374 690 q 424 622 399 644 q 490 571 450 600 q 581 492 546 533 q 634 403 617 450 q 651 299 651 356 q 624 164 651 222 q 547 66 597 106 q 428 6 497 26 q 276 -14 360 -14 m 386 1088 q 443 1149 413 1113 q 503 1223 474 1185 q 554 1293 532 1261 l 814 1293 l 814 1282 q 767 1235 799 1264 q 697 1176 736 1207 q 618 1117 657 1146 q 551 1071 579 1089 l 386 1071 l 386 1088 z "},"ś":{"ha":675,"x_min":18,"x_max":718,"o":"m 251 -14 q 121 -3 178 -14 q 18 31 64 7 l 18 218 q 128 172 75 186 q 239 157 182 157 q 289 163 264 157 q 331 184 314 169 q 347 222 347 199 q 339 254 347 240 q 308 285 331 268 q 238 328 285 303 q 158 383 190 354 q 110 449 126 413 q 94 535 94 486 q 129 664 94 610 q 231 747 164 718 q 396 776 297 776 q 527 760 465 776 q 647 708 589 744 l 574 551 q 488 594 535 576 q 399 611 442 611 q 350 598 371 611 q 329 556 329 585 q 338 528 329 540 q 369 502 347 515 q 426 469 390 489 q 510 415 475 446 q 563 346 544 385 q 582 258 582 307 q 541 107 582 168 q 426 16 500 46 q 251 -14 353 -14 m 290 858 q 347 919 317 883 q 407 994 378 956 q 458 1064 436 1032 l 718 1064 l 718 1053 q 672 1006 703 1035 q 601 947 640 978 q 522 888 561 917 q 456 842 483 860 l 290 842 l 290 858 z "},"Ŝ":{"ha":747,"x_min":28,"x_max":793,"o":"m 276 -14 q 138 3 203 -14 q 28 49 74 19 l 28 258 q 152 203 86 225 q 281 181 218 181 q 335 186 311 181 q 378 204 360 192 q 406 234 396 217 q 415 276 415 251 q 400 333 415 308 q 358 378 385 357 q 299 425 332 400 q 219 499 256 460 q 160 587 182 538 q 138 701 138 636 q 162 824 138 768 q 232 920 186 879 q 342 983 278 961 q 483 1006 406 1006 q 632 988 563 1006 q 763 936 701 971 l 681 758 q 581 797 631 782 q 485 813 531 813 q 436 806 457 813 q 401 785 415 799 q 381 754 388 771 q 374 718 374 738 q 386 667 374 690 q 424 622 399 644 q 490 571 450 600 q 581 492 546 533 q 634 403 617 450 q 651 299 651 356 q 624 164 651 222 q 547 66 597 106 q 428 6 497 26 q 276 -14 360 -14 m 204 1088 q 271 1151 233 1114 q 346 1225 308 1188 q 408 1293 383 1263 l 671 1293 q 706 1224 685 1261 q 749 1151 726 1186 q 792 1088 772 1115 l 792 1071 l 636 1071 q 601 1105 621 1085 q 562 1147 581 1125 q 528 1186 543 1169 q 449 1126 489 1154 q 368 1071 410 1097 l 204 1071 l 204 1088 z "},"ŝ":{"ha":675,"x_min":18,"x_max":696,"o":"m 251 -14 q 121 -3 178 -14 q 18 31 64 7 l 18 218 q 128 172 75 186 q 239 157 182 157 q 289 163 264 157 q 331 184 314 169 q 347 222 347 199 q 339 254 347 240 q 308 285 331 268 q 238 328 285 303 q 158 383 190 354 q 110 449 126 413 q 94 535 94 486 q 129 664 94 610 q 231 747 164 718 q 396 776 297 776 q 527 760 465 776 q 647 708 589 744 l 574 551 q 488 594 535 576 q 399 611 442 611 q 350 598 371 611 q 329 556 329 585 q 338 528 329 540 q 369 502 347 515 q 426 469 390 489 q 510 415 475 446 q 563 346 544 385 q 582 258 582 307 q 541 107 582 168 q 426 16 500 46 q 251 -14 353 -14 m 108 858 q 175 922 138 885 q 250 996 213 958 q 313 1064 288 1033 l 575 1064 q 610 994 589 1032 q 653 922 631 957 q 696 858 676 886 l 696 842 l 540 842 q 505 876 525 856 q 466 918 485 896 q 432 957 447 940 q 353 897 393 925 q 272 842 314 868 l 108 842 l 108 858 z "},"Ş":{"ha":747,"x_min":28,"x_max":763,"o":"m 276 -14 q 138 3 203 -14 q 28 49 74 19 l 28 258 q 152 203 86 225 q 281 181 218 181 q 335 186 311 181 q 378 204 360 192 q 406 234 396 217 q 415 276 415 251 q 400 333 415 308 q 358 378 385 357 q 299 425 332 400 q 219 499 256 460 q 160 587 182 538 q 138 701 138 636 q 162 824 138 768 q 232 920 186 879 q 342 983 278 961 q 483 1006 406 1006 q 632 988 563 1006 q 763 936 701 971 l 681 758 q 581 797 631 782 q 485 813 531 813 q 436 806 457 813 q 401 785 415 799 q 381 754 388 771 q 374 718 374 738 q 386 667 374 690 q 424 622 399 644 q 490 571 450 600 q 581 492 546 533 q 634 403 617 450 q 651 299 651 356 q 624 164 651 222 q 547 66 597 106 q 428 6 497 26 q 276 -14 360 -14 m 218 -333 q 152 -328 182 -333 q 103 -317 122 -324 l 103 -190 q 149 -202 122 -197 q 196 -207 176 -207 q 228 -202 215 -207 q 247 -187 240 -197 q 254 -162 254 -178 q 234 -124 254 -140 q 157 -99 214 -107 l 215 0 l 347 0 l 325 -39 q 402 -81 371 -51 q 433 -165 433 -110 q 410 -253 433 -215 q 338 -312 386 -290 q 218 -333 290 -333 z "},"ş":{"ha":675,"x_min":18,"x_max":647,"o":"m 251 -14 q 121 -3 178 -14 q 18 31 64 7 l 18 218 q 128 172 75 186 q 239 157 182 157 q 289 163 264 157 q 331 184 314 169 q 347 222 347 199 q 339 254 347 240 q 308 285 331 268 q 238 328 285 303 q 158 383 190 354 q 110 449 126 413 q 94 535 94 486 q 129 664 94 610 q 231 747 164 718 q 396 776 297 776 q 527 760 465 776 q 647 708 589 744 l 574 551 q 488 594 535 576 q 399 611 442 611 q 350 598 371 611 q 329 556 329 585 q 338 528 329 540 q 369 502 347 515 q 426 469 390 489 q 510 415 475 446 q 563 346 544 385 q 582 258 582 307 q 541 107 582 168 q 426 16 500 46 q 251 -14 353 -14 m 188 -333 q 122 -328 151 -333 q 72 -317 92 -324 l 72 -190 q 119 -202 92 -197 q 165 -207 146 -207 q 197 -202 185 -207 q 217 -187 210 -197 q 224 -162 224 -178 q 203 -124 224 -140 q 126 -99 183 -107 l 185 0 l 317 0 l 294 -39 q 372 -81 340 -51 q 403 -165 403 -110 q 379 -253 403 -215 q 308 -312 356 -290 q 188 -333 260 -333 z "},"Š":{"ha":747,"x_min":28,"x_max":844,"o":"m 276 -14 q 138 3 203 -14 q 28 49 74 19 l 28 258 q 152 203 86 225 q 281 181 218 181 q 335 186 311 181 q 378 204 360 192 q 406 234 396 217 q 415 276 415 251 q 400 333 415 308 q 358 378 385 357 q 299 425 332 400 q 219 499 256 460 q 160 587 182 538 q 138 701 138 636 q 162 824 138 768 q 232 920 186 879 q 342 983 278 961 q 483 1006 406 1006 q 632 988 563 1006 q 763 936 701 971 l 681 758 q 581 797 631 782 q 485 813 531 813 q 436 806 457 813 q 401 785 415 799 q 381 754 388 771 q 374 718 374 738 q 386 667 374 690 q 424 622 399 644 q 490 571 450 600 q 581 492 546 533 q 634 403 617 450 q 651 299 651 356 q 624 164 651 222 q 547 66 597 106 q 428 6 497 26 q 276 -14 360 -14 m 376 1071 q 342 1140 363 1103 q 299 1214 321 1178 q 257 1276 276 1250 l 257 1293 l 413 1293 q 448 1259 428 1279 q 487 1217 468 1239 q 519 1178 506 1194 q 599 1238 560 1210 q 679 1293 638 1267 l 844 1293 l 844 1276 q 776 1213 814 1250 q 702 1139 738 1176 q 640 1071 667 1101 l 376 1071 z "},"š":{"ha":675,"x_min":18,"x_max":749,"o":"m 251 -14 q 121 -3 178 -14 q 18 31 64 7 l 18 218 q 128 172 75 186 q 239 157 182 157 q 289 163 264 157 q 331 184 314 169 q 347 222 347 199 q 339 254 347 240 q 308 285 331 268 q 238 328 285 303 q 158 383 190 354 q 110 449 126 413 q 94 535 94 486 q 129 664 94 610 q 231 747 164 718 q 396 776 297 776 q 527 760 465 776 q 647 708 589 744 l 574 551 q 488 594 535 576 q 399 611 442 611 q 350 598 371 611 q 329 556 329 585 q 338 528 329 540 q 369 502 347 515 q 426 469 390 489 q 510 415 475 446 q 563 346 544 385 q 582 258 582 307 q 541 107 582 168 q 426 16 500 46 q 251 -14 353 -14 m 279 842 q 244 911 265 874 q 201 985 224 949 q 160 1047 179 1021 l 160 1064 l 315 1064 q 351 1030 331 1050 q 390 988 371 1010 q 422 949 408 965 q 501 1009 463 981 q 582 1064 540 1038 l 747 1064 l 747 1047 q 678 984 717 1021 q 605 910 640 947 q 543 842 569 872 l 279 842 z "},"Ț":{"ha":751,"x_min":106,"x_max":843,"o":"m 171 0 l 338 796 l 110 796 l 151 992 l 843 992 l 800 796 l 572 796 l 404 0 l 171 0 m 104 -289 q 133 -224 118 -260 q 161 -151 147 -187 q 185 -85 175 -114 l 401 -85 l 401 -99 q 357 -167 382 -132 q 303 -237 332 -203 q 244 -307 275 -272 l 104 -307 l 104 -289 z "},"ț":{"ha":600,"x_min":54,"x_max":621,"o":"m 278 -14 q 131 27 183 -14 q 78 165 78 68 q 81 215 78 188 q 89 265 85 242 l 158 588 l 54 588 l 78 701 l 217 760 l 308 921 l 460 921 l 426 763 l 621 763 l 582 588 l 389 588 l 321 271 q 316 242 318 257 q 314 219 314 228 q 328 183 314 194 q 365 172 343 172 q 422 180 393 172 q 482 200 450 188 l 482 26 q 394 -3 444 8 q 278 -14 343 -14 m 72 -289 q 101 -224 86 -260 q 129 -151 115 -187 q 153 -85 143 -114 l 369 -85 l 369 -99 q 325 -167 350 -132 q 272 -237 300 -203 q 213 -307 243 -272 l 72 -307 l 72 -289 z "},"Ť":{"ha":751,"x_min":110,"x_max":857,"o":"m 171 0 l 338 796 l 110 796 l 151 992 l 843 992 l 800 796 l 572 796 l 404 0 l 171 0 m 389 1071 q 354 1140 375 1103 q 311 1214 333 1178 q 269 1276 289 1250 l 269 1293 l 425 1293 q 460 1259 440 1279 q 499 1217 481 1239 q 532 1178 518 1194 q 611 1238 572 1210 q 692 1293 650 1267 l 857 1293 l 857 1276 q 788 1213 826 1250 q 715 1139 750 1176 q 653 1071 679 1101 l 389 1071 z "},"ť":{"ha":600,"x_min":54,"x_max":801,"o":"m 504 851 q 533 917 518 881 q 561 990 547 953 q 585 1056 575 1026 l 801 1056 l 801 1042 q 757 974 782 1008 q 703 904 732 939 q 644 833 675 869 l 504 833 l 504 851 m 278 -14 q 131 27 183 -14 q 78 165 78 68 q 81 215 78 188 q 89 265 85 242 l 158 588 l 54 588 l 78 701 l 217 760 l 308 921 l 460 921 l 426 763 l 621 763 l 582 588 l 389 588 l 321 271 q 316 242 318 257 q 314 219 314 228 q 328 183 314 194 q 365 172 343 172 q 422 180 393 172 q 482 200 450 188 l 482 26 q 394 -3 444 8 q 278 -14 343 -14 z "},"Ŧ":{"ha":751,"x_min":106,"x_max":843,"o":"m 171 0 l 251 388 l 106 388 l 147 581 l 293 581 l 338 796 l 110 796 l 151 992 l 843 992 l 800 796 l 572 796 l 526 581 l 676 581 l 635 388 l 486 388 l 404 0 l 171 0 z "},"ŧ":{"ha":600,"x_min":18,"x_max":621,"o":"m 279 -14 q 130 24 185 -14 q 75 161 75 63 q 77 201 75 179 q 85 243 79 222 l 101 321 l 18 321 l 49 468 l 132 468 l 158 588 l 54 588 l 78 701 l 217 760 l 307 919 l 460 919 l 426 763 l 621 763 l 582 588 l 389 588 l 363 468 l 526 468 l 494 321 l 331 321 l 318 263 q 315 235 317 247 q 313 214 313 224 q 327 181 313 190 q 364 172 342 172 q 419 179 389 172 q 481 199 449 186 l 481 26 q 394 -3 443 8 q 279 -14 344 -14 z "},"Ũ":{"ha":967,"x_min":90,"x_max":978,"o":"m 411 -14 q 237 22 308 -14 q 128 122 165 58 q 90 269 90 186 q 92 316 90 290 q 100 365 94 342 l 233 992 l 468 992 l 336 369 q 328 328 331 349 q 325 289 325 307 q 353 211 325 239 q 435 183 381 183 q 520 204 486 183 q 576 268 554 225 q 613 378 599 311 l 743 992 l 978 992 l 842 354 q 767 159 818 242 q 630 31 717 76 q 411 -14 543 -14 m 346 1069 q 388 1195 360 1147 q 456 1266 417 1243 q 546 1289 496 1289 q 603 1278 578 1289 q 651 1254 629 1268 q 694 1230 674 1240 q 738 1219 715 1219 q 780 1237 761 1219 q 813 1290 799 1254 l 935 1290 q 889 1163 918 1211 q 820 1092 860 1114 q 729 1071 781 1071 q 669 1081 696 1071 q 621 1106 643 1092 q 577 1129 599 1119 q 533 1139 556 1139 q 494 1121 513 1139 q 468 1069 475 1103 l 346 1069 z "},"ũ":{"ha":850,"x_min":71,"x_max":833,"o":"m 268 -14 q 156 15 200 -14 q 92 92 113 43 q 71 204 71 142 q 75 276 71 236 q 88 354 79 315 l 174 763 l 404 763 l 314 332 q 306 288 308 311 q 303 243 303 264 q 319 190 303 207 q 365 172 336 172 q 432 203 401 172 q 487 290 463 233 q 528 421 511 347 l 600 763 l 831 763 l 669 0 l 489 0 l 500 125 l 493 125 q 433 49 467 81 q 360 2 400 18 q 268 -14 319 -14 m 244 840 q 287 966 258 918 q 355 1037 315 1014 q 444 1060 394 1060 q 502 1049 476 1060 q 550 1025 528 1039 q 593 1001 572 1011 q 636 990 614 990 q 678 1008 660 990 q 711 1061 697 1025 l 833 1061 q 788 933 817 982 q 719 863 758 885 q 628 842 679 842 q 568 852 594 842 q 519 876 542 863 q 476 900 497 890 q 432 910 454 910 q 392 892 411 910 q 367 840 374 874 l 244 840 z "},"Ū":{"ha":967,"x_min":90,"x_max":978,"o":"m 411 -14 q 237 22 308 -14 q 128 122 165 58 q 90 269 90 186 q 92 316 90 290 q 100 365 94 342 l 233 992 l 468 992 l 336 369 q 328 328 331 349 q 325 289 325 307 q 353 211 325 239 q 435 183 381 183 q 520 204 486 183 q 576 268 554 225 q 613 378 599 311 l 743 992 l 978 992 l 842 354 q 767 159 818 242 q 630 31 717 76 q 411 -14 543 -14 m 394 1071 l 426 1222 l 861 1222 l 829 1071 l 394 1071 z "},"ū":{"ha":850,"x_min":71,"x_max":831,"o":"m 268 -14 q 156 15 200 -14 q 92 92 113 43 q 71 204 71 142 q 75 276 71 236 q 88 354 79 315 l 174 763 l 404 763 l 314 332 q 306 288 308 311 q 303 243 303 264 q 319 190 303 207 q 365 172 336 172 q 432 203 401 172 q 487 290 463 233 q 528 421 511 347 l 600 763 l 831 763 l 669 0 l 489 0 l 500 125 l 493 125 q 433 49 467 81 q 360 2 400 18 q 268 -14 319 -14 m 293 842 l 325 993 l 760 993 l 728 842 l 293 842 z "},"Ŭ":{"ha":967,"x_min":90,"x_max":978,"o":"m 411 -14 q 237 22 308 -14 q 128 122 165 58 q 90 269 90 186 q 92 316 90 290 q 100 365 94 342 l 233 992 l 468 992 l 336 369 q 328 328 331 349 q 325 289 325 307 q 353 211 325 239 q 435 183 381 183 q 520 204 486 183 q 576 268 554 225 q 613 378 599 311 l 743 992 l 978 992 l 842 354 q 767 159 818 242 q 630 31 717 76 q 411 -14 543 -14 m 614 1071 q 484 1098 535 1071 q 409 1170 433 1125 q 385 1269 385 1215 q 386 1293 385 1283 q 389 1310 388 1303 l 521 1310 q 533 1262 521 1281 q 569 1233 546 1243 q 628 1224 593 1224 q 713 1242 678 1224 q 763 1310 747 1260 l 900 1310 q 812 1133 881 1194 q 614 1071 743 1071 z "},"ŭ":{"ha":850,"x_min":71,"x_max":831,"o":"m 268 -14 q 156 15 200 -14 q 92 92 113 43 q 71 204 71 142 q 75 276 71 236 q 88 354 79 315 l 174 763 l 404 763 l 314 332 q 306 288 308 311 q 303 243 303 264 q 319 190 303 207 q 365 172 336 172 q 432 203 401 172 q 487 290 463 233 q 528 421 511 347 l 600 763 l 831 763 l 669 0 l 489 0 l 500 125 l 493 125 q 433 49 467 81 q 360 2 400 18 q 268 -14 319 -14 m 513 842 q 383 869 433 842 q 308 941 332 896 q 283 1040 283 986 q 285 1064 283 1054 q 288 1081 286 1074 l 419 1081 q 432 1033 419 1051 q 468 1004 444 1014 q 526 994 492 994 q 611 1013 576 994 q 661 1081 646 1031 l 799 1081 q 710 903 779 965 q 513 842 642 842 z "},"Ů":{"ha":967,"x_min":90,"x_max":978,"o":"m 411 -14 q 237 22 308 -14 q 128 122 165 58 q 90 269 90 186 q 92 316 90 290 q 100 365 94 342 l 233 992 l 468 992 l 336 369 q 328 328 331 349 q 325 289 325 307 q 353 211 325 239 q 435 183 381 183 q 520 204 486 183 q 576 268 554 225 q 613 378 599 311 l 743 992 l 978 992 l 842 354 q 767 159 818 242 q 630 31 717 76 q 411 -14 543 -14 m 632 1069 q 506 1113 554 1069 q 457 1235 457 1157 q 506 1356 457 1313 q 632 1400 554 1400 q 757 1356 706 1400 q 808 1236 808 1313 q 758 1113 808 1157 q 632 1069 708 1069 m 632 1174 q 676 1190 658 1174 q 694 1235 694 1207 q 676 1279 694 1263 q 632 1296 658 1296 q 588 1279 607 1296 q 569 1235 569 1263 q 585 1190 569 1207 q 632 1174 601 1174 z "},"ů":{"ha":850,"x_min":71,"x_max":831,"o":"m 268 -14 q 156 15 200 -14 q 92 92 113 43 q 71 204 71 142 q 75 276 71 236 q 88 354 79 315 l 174 763 l 404 763 l 314 332 q 306 288 308 311 q 303 243 303 264 q 319 190 303 207 q 365 172 336 172 q 432 203 401 172 q 487 290 463 233 q 528 421 511 347 l 600 763 l 831 763 l 669 0 l 489 0 l 500 125 l 493 125 q 433 49 467 81 q 360 2 400 18 q 268 -14 319 -14 m 532 840 q 406 884 454 840 q 357 1006 357 928 q 406 1127 357 1083 q 532 1171 454 1171 q 657 1127 606 1171 q 708 1007 708 1083 q 658 884 708 928 q 532 840 608 840 m 532 944 q 576 961 558 944 q 594 1006 594 978 q 576 1050 594 1033 q 532 1067 558 1067 q 488 1050 507 1067 q 469 1006 469 1033 q 485 961 469 978 q 532 944 501 944 z "},"Ű":{"ha":967,"x_min":90,"x_max":1063,"o":"m 411 -14 q 237 22 308 -14 q 128 122 165 58 q 90 269 90 186 q 92 316 90 290 q 100 365 94 342 l 233 992 l 468 992 l 336 369 q 328 328 331 349 q 325 289 325 307 q 353 211 325 239 q 435 183 381 183 q 520 204 486 183 q 576 268 554 225 q 613 378 599 311 l 743 992 l 978 992 l 842 354 q 767 159 818 242 q 630 31 717 76 q 411 -14 543 -14 m 686 1089 q 735 1151 708 1115 q 789 1224 761 1186 q 835 1293 817 1263 l 1063 1293 l 1063 1281 q 1020 1235 1050 1263 q 953 1176 990 1207 q 878 1118 915 1146 q 814 1071 842 1090 l 686 1071 l 686 1089 m 396 1089 q 447 1151 419 1115 q 501 1224 474 1186 q 549 1293 529 1263 l 776 1293 l 776 1281 q 733 1235 763 1263 q 664 1176 703 1207 q 588 1118 625 1146 q 525 1071 551 1090 l 396 1071 l 396 1089 z "},"ű":{"ha":850,"x_min":71,"x_max":961,"o":"m 268 -14 q 156 15 200 -14 q 92 92 113 43 q 71 204 71 142 q 75 276 71 236 q 88 354 79 315 l 174 763 l 404 763 l 314 332 q 306 288 308 311 q 303 243 303 264 q 319 190 303 207 q 365 172 336 172 q 432 203 401 172 q 487 290 463 233 q 528 421 511 347 l 600 763 l 831 763 l 669 0 l 489 0 l 500 125 l 493 125 q 433 49 467 81 q 360 2 400 18 q 268 -14 319 -14 m 585 860 q 633 922 607 886 q 688 995 660 957 q 733 1064 715 1033 l 961 1064 l 961 1051 q 919 1006 949 1033 q 851 947 889 978 q 777 889 814 917 q 713 842 740 861 l 585 842 l 585 860 m 294 860 q 345 922 318 886 q 400 995 372 957 q 447 1064 428 1033 l 675 1064 l 675 1051 q 631 1006 661 1033 q 563 947 601 978 q 487 889 524 917 q 424 842 450 861 l 294 842 l 294 860 z "},"Ų":{"ha":967,"x_min":90,"x_max":978,"o":"m 411 -14 q 237 22 308 -14 q 128 122 165 58 q 90 269 90 186 q 92 316 90 290 q 100 365 94 342 l 233 992 l 468 992 l 336 369 q 328 328 331 349 q 325 289 325 307 q 353 211 325 239 q 435 183 381 183 q 520 204 486 183 q 576 268 554 225 q 613 378 599 311 l 743 992 l 978 992 l 842 354 q 767 159 818 242 q 630 31 717 76 q 411 -14 543 -14 m 401 -343 q 283 -304 325 -343 q 242 -206 242 -265 q 260 -123 242 -158 q 313 -57 279 -87 q 389 0 346 -26 l 540 0 q 476 -54 506 -28 q 429 -108 447 -81 q 411 -168 411 -136 q 421 -195 411 -185 q 449 -206 431 -206 q 486 -201 469 -206 q 522 -192 503 -197 l 522 -325 q 467 -338 496 -333 q 401 -343 439 -343 z "},"ų":{"ha":850,"x_min":71,"x_max":831,"o":"m 268 -14 q 156 15 200 -14 q 92 92 113 43 q 71 204 71 142 q 75 276 71 236 q 88 354 79 315 l 174 763 l 404 763 l 314 332 q 306 288 308 311 q 303 243 303 264 q 319 190 303 207 q 365 172 336 172 q 432 203 401 172 q 487 290 463 233 q 528 421 511 347 l 600 763 l 831 763 l 669 0 l 489 0 l 500 125 l 493 125 q 433 49 467 81 q 360 2 400 18 q 268 -14 319 -14 m 497 -343 q 379 -304 421 -343 q 338 -206 338 -265 q 356 -123 338 -158 q 408 -57 375 -87 q 485 0 442 -26 l 636 0 q 572 -54 601 -28 q 525 -108 543 -81 q 507 -168 507 -136 q 517 -195 507 -185 q 544 -206 526 -206 q 582 -201 565 -206 q 618 -192 599 -197 l 618 -325 q 563 -338 592 -333 q 497 -343 535 -343 z "},"Ŵ":{"ha":1268,"x_min":115,"x_max":1393,"o":"m 147 0 l 115 992 l 336 992 l 335 471 q 331 351 333 415 q 324 236 329 286 l 329 236 q 369 345 347 286 q 413 451 392 404 l 651 992 l 856 992 l 863 444 q 863 384 864 421 q 861 307 863 347 q 857 232 860 267 l 863 232 q 889 314 874 269 q 921 403 904 358 q 951 482 938 447 l 1158 992 l 1393 992 l 958 0 l 688 0 l 681 418 q 681 507 681 468 q 681 581 681 546 q 685 651 682 615 l 679 651 q 639 538 660 593 q 594 429 618 482 l 406 0 l 147 0 m 467 1088 q 533 1151 496 1114 q 608 1225 571 1188 q 671 1293 646 1263 l 933 1293 q 968 1224 947 1261 q 1012 1151 989 1186 q 1054 1088 1035 1115 l 1054 1071 l 899 1071 q 863 1105 883 1085 q 824 1147 843 1125 q 790 1186 806 1169 q 712 1126 751 1154 q 631 1071 672 1097 l 467 1071 l 467 1088 z "},"ŵ":{"ha":1117,"x_min":78,"x_max":1190,"o":"m 117 0 l 78 763 l 294 763 l 296 408 q 294 314 296 361 q 288 218 293 267 l 293 218 q 313 279 301 246 q 335 342 325 313 q 351 386 344 371 l 504 763 l 751 763 l 742 393 q 740 313 742 357 q 733 218 739 269 l 740 218 q 760 282 749 247 q 785 350 772 317 q 807 410 797 383 l 958 763 l 1190 763 l 829 0 l 576 0 l 578 331 q 581 405 579 363 q 585 492 582 447 q 590 571 588 536 l 583 571 q 558 493 572 535 q 531 414 544 451 q 506 350 517 376 l 363 0 l 117 0 m 333 858 q 400 922 363 885 q 475 996 438 958 q 538 1064 513 1033 l 800 1064 q 835 994 814 1032 q 878 922 856 957 q 921 858 901 886 l 921 842 l 765 842 q 730 876 750 856 q 691 918 710 896 q 657 957 672 940 q 578 897 618 925 q 497 842 539 868 l 333 842 l 333 858 z "},"Ŷ":{"ha":808,"x_min":119,"x_max":931,"o":"m 199 0 l 279 382 l 119 992 l 360 992 l 435 606 l 669 992 l 931 992 l 513 382 l 432 0 l 199 0 m 224 1088 q 290 1151 253 1114 q 365 1225 328 1188 q 428 1293 403 1263 l 690 1293 q 725 1224 704 1261 q 769 1151 746 1186 q 811 1088 792 1115 l 811 1071 l 656 1071 q 620 1105 640 1085 q 581 1147 600 1125 q 547 1186 563 1169 q 469 1126 508 1154 q 388 1071 429 1097 l 224 1071 l 224 1088 z "},"ŷ":{"ha":738,"x_min":-92,"x_max":811,"o":"m 10 -333 q -52 -330 -28 -333 q -92 -321 -76 -326 l -92 -137 q -58 -143 -76 -140 q -15 -146 -39 -146 q 88 -114 49 -146 q 157 -26 126 -82 l 174 4 l 63 763 l 293 763 l 325 411 q 329 353 328 383 q 331 297 331 324 q 331 244 331 269 l 336 244 q 353 293 344 267 q 374 348 363 319 q 397 404 385 376 l 563 763 l 811 763 l 354 -103 q 262 -232 313 -181 q 149 -308 211 -283 q 10 -333 88 -333 m 136 858 q 203 922 165 885 q 278 996 240 958 q 340 1064 315 1033 l 603 1064 q 638 994 617 1032 q 681 922 658 957 q 724 858 704 886 l 724 842 l 568 842 q 533 876 553 856 q 494 918 513 896 q 460 957 475 940 q 381 897 421 925 q 300 842 342 868 l 136 842 l 136 858 z "},"Ÿ":{"ha":808,"x_min":119,"x_max":931,"o":"m 199 0 l 279 382 l 119 992 l 360 992 l 435 606 l 669 992 l 931 992 l 513 382 l 432 0 l 199 0 m 682 1088 q 611 1104 639 1088 q 583 1167 583 1121 q 615 1255 583 1226 q 701 1283 646 1283 q 769 1267 739 1283 q 799 1204 799 1251 q 772 1119 799 1151 q 682 1088 746 1088 m 390 1088 q 319 1104 347 1088 q 290 1167 290 1121 q 322 1255 290 1226 q 408 1283 353 1283 q 456 1276 433 1283 q 493 1253 479 1269 q 507 1204 507 1236 q 481 1119 507 1151 q 390 1088 454 1088 z "},"Ź":{"ha":746,"x_min":-51,"x_max":829,"o":"m -51 0 l -22 149 l 478 799 l 129 799 l 169 992 l 819 992 l 789 840 l 283 193 l 671 193 l 631 0 l -51 0 m 400 1088 q 457 1149 426 1113 q 517 1223 488 1185 q 568 1293 546 1261 l 828 1293 l 828 1282 q 781 1235 813 1264 q 710 1176 750 1207 q 632 1117 671 1146 q 565 1071 593 1089 l 400 1071 l 400 1088 z "},"ź":{"ha":651,"x_min":-31,"x_max":731,"o":"m -31 0 l -4 135 l 364 583 l 110 583 l 149 763 l 676 763 l 644 614 l 283 179 l 563 179 l 524 0 l -31 0 m 301 858 q 358 919 328 883 q 418 994 389 956 q 469 1064 447 1032 l 729 1064 l 729 1053 q 683 1006 714 1035 q 612 947 651 978 q 533 888 572 917 q 467 842 494 860 l 301 842 l 301 858 z "},"Ż":{"ha":746,"x_min":-51,"x_max":819,"o":"m -51 0 l -22 149 l 478 799 l 129 799 l 169 992 l 819 992 l 789 840 l 283 193 l 671 193 l 631 0 l -51 0 m 529 1076 q 447 1096 481 1076 q 414 1165 414 1115 q 451 1264 414 1232 q 551 1296 488 1296 q 608 1288 582 1296 q 649 1261 633 1281 q 665 1207 665 1242 q 634 1113 665 1149 q 529 1076 603 1076 z "},"ż":{"ha":651,"x_min":-31,"x_max":676,"o":"m -31 0 l -4 135 l 364 583 l 110 583 l 149 763 l 676 763 l 644 614 l 283 179 l 563 179 l 524 0 l -31 0 m 431 847 q 349 867 382 847 q 315 936 315 886 q 352 1035 315 1003 q 453 1067 389 1067 q 509 1059 483 1067 q 551 1032 535 1051 q 567 978 567 1013 q 535 883 567 919 q 431 847 504 847 z "},"Ž":{"ha":746,"x_min":-51,"x_max":858,"o":"m -51 0 l -22 149 l 478 799 l 129 799 l 169 992 l 819 992 l 789 840 l 283 193 l 671 193 l 631 0 l -51 0 m 390 1071 q 356 1140 376 1103 q 313 1214 335 1178 q 271 1276 290 1250 l 271 1293 l 426 1293 q 462 1259 442 1279 q 501 1217 482 1239 q 533 1178 519 1194 q 613 1238 574 1210 q 693 1293 651 1267 l 858 1293 l 858 1276 q 790 1213 828 1250 q 716 1139 751 1176 q 654 1071 681 1101 l 390 1071 z "},"ž":{"ha":651,"x_min":-31,"x_max":760,"o":"m -31 0 l -4 135 l 364 583 l 110 583 l 149 763 l 676 763 l 644 614 l 283 179 l 563 179 l 524 0 l -31 0 m 292 842 q 257 911 278 874 q 214 985 236 949 q 172 1047 192 1021 l 172 1064 l 328 1064 q 363 1030 343 1050 q 402 988 383 1010 q 435 949 421 965 q 514 1009 475 981 q 594 1064 553 1038 l 760 1064 l 760 1047 q 691 984 729 1021 q 617 910 653 947 q 556 842 582 872 l 292 842 z "},"ſ":{"ha":503,"x_min":-167,"x_max":668,"o":"m -37 -333 q -108 -328 -72 -333 q -167 -317 -144 -324 l -167 -133 q -126 -142 -144 -139 q -87 -146 -107 -146 q -13 -122 -42 -146 q 26 -44 15 -97 l 211 815 q 268 960 231 906 q 362 1038 306 1014 q 493 1063 418 1063 q 590 1053 544 1063 q 668 1026 635 1043 l 606 856 q 565 871 586 865 q 519 876 544 876 q 481 866 499 876 q 453 837 464 856 q 436 792 442 818 l 250 -81 q 201 -209 235 -151 q 110 -300 168 -267 q -37 -333 53 -333 z "},"ƒ":{"ha":738,"x_min":-101,"x_max":885,"o":"m 158 -336 q 22 -308 81 -336 q -69 -228 -36 -281 q -101 -101 -101 -176 q -90 -25 -101 -61 q -65 36 -79 11 l 110 -24 q 98 -60 101 -40 q 94 -97 94 -81 q 100 -131 94 -115 q 119 -157 106 -147 q 153 -167 132 -167 q 202 -140 181 -167 q 235 -60 224 -114 l 376 588 l 265 588 l 290 701 l 415 761 l 428 815 q 467 930 443 883 q 526 1006 492 976 q 607 1049 561 1035 q 710 1063 653 1063 q 805 1053 760 1063 q 885 1026 850 1043 l 824 863 q 783 877 804 871 q 735 883 761 883 q 683 863 703 883 q 656 808 663 843 l 646 763 l 792 763 l 754 588 l 608 588 l 464 -65 q 361 -265 436 -194 q 158 -336 286 -336 z "},"Ǻ":{"ha":903,"x_min":-83,"x_max":917,"o":"m 417 929 q 408 962 411 944 q 404 999 404 979 q 453 1121 404 1076 q 579 1165 501 1165 q 704 1121 653 1165 q 756 1000 756 1076 q 742 935 756 965 q 708 886 729 904 l 815 0 l 588 0 l 571 207 l 263 207 l 161 0 l -83 0 l 417 929 m 354 399 l 563 399 l 544 607 q 540 678 543 635 q 538 764 538 722 l 529 764 q 502 698 517 732 q 479 646 488 664 l 354 399 m 578 938 q 623 954 604 938 q 642 999 642 971 q 623 1044 642 1028 q 579 1061 604 1061 q 534 1044 553 1061 q 515 999 515 1028 q 532 954 515 971 q 578 938 549 938 m 519 1210 q 567 1247 540 1226 q 617 1290 593 1268 q 658 1331 642 1313 l 917 1331 l 917 1324 q 844 1276 886 1300 q 759 1233 801 1253 q 685 1201 717 1214 l 519 1201 l 519 1210 z "},"ǻ":{"ha":833,"x_min":60,"x_max":864,"o":"m 275 -14 q 169 13 219 -14 q 90 103 119 40 q 60 269 60 165 q 74 406 60 335 q 117 542 89 476 q 187 661 144 608 q 285 745 229 714 q 406 776 340 776 q 487 763 453 776 q 547 725 521 750 q 589 667 572 700 l 594 667 l 632 763 l 814 763 l 651 0 l 472 0 l 481 92 l 475 92 q 424 38 453 61 q 358 0 394 14 q 275 -14 322 -14 m 368 172 q 436 203 406 172 q 489 282 467 233 q 521 385 511 331 q 527 434 525 410 q 529 486 529 458 q 510 561 529 532 q 453 590 490 590 q 403 572 426 590 q 360 524 381 554 q 325 454 339 493 q 303 371 311 415 q 294 282 294 326 q 313 200 294 228 q 368 172 332 172 m 507 813 q 381 857 429 813 q 333 979 333 901 q 381 1101 333 1057 q 507 1144 429 1144 q 633 1101 582 1144 q 683 981 683 1057 q 633 857 683 901 q 507 813 583 813 m 507 917 q 551 934 533 917 q 569 979 569 951 q 551 1024 569 1007 q 507 1040 533 1040 q 463 1024 482 1040 q 444 979 444 1007 q 461 934 444 951 q 507 917 478 917 m 460 1203 q 509 1242 482 1219 q 562 1288 536 1264 q 604 1331 588 1313 l 864 1331 l 864 1324 q 789 1274 833 1299 q 701 1228 744 1249 q 625 1194 657 1207 l 460 1194 l 460 1203 z "},"Ǽ":{"ha":1276,"x_min":-83,"x_max":1319,"o":"m -83 0 l 538 992 l 1319 992 l 1279 800 l 943 800 l 904 610 l 1218 610 l 1175 418 l 861 418 l 814 194 l 1150 194 l 1110 0 l 540 0 l 585 213 l 299 213 l 165 0 l -83 0 m 422 411 l 628 411 l 708 800 l 658 800 l 422 411 m 661 1088 q 718 1149 688 1113 q 778 1223 749 1185 q 829 1293 807 1261 l 1089 1293 l 1089 1282 q 1042 1235 1074 1264 q 972 1176 1011 1207 q 893 1117 932 1146 q 826 1071 854 1089 l 661 1071 l 661 1088 z "},"ǽ":{"ha":1211,"x_min":60,"x_max":1179,"o":"m 272 -14 q 164 16 213 -14 q 88 108 115 46 q 60 269 60 171 q 74 410 60 338 q 118 547 89 482 q 189 665 147 613 q 285 747 231 717 q 404 776 339 776 q 482 764 450 776 q 539 727 514 751 q 585 667 564 703 l 590 667 l 629 763 l 763 763 l 756 700 q 840 756 788 735 q 949 776 892 776 q 1118 718 1057 776 q 1179 567 1179 660 q 1153 456 1179 506 q 1076 369 1128 406 q 943 314 1024 333 q 754 294 863 294 l 717 294 q 715 285 715 289 q 715 275 715 281 q 746 190 715 222 q 846 157 776 157 q 955 174 900 157 q 1063 218 1010 192 l 1063 50 q 950 4 1010 22 q 814 -14 890 -14 q 699 5 746 -14 q 624 64 653 24 l 607 0 l 468 0 l 476 92 l 469 92 q 418 38 446 61 q 355 0 390 14 q 272 -14 319 -14 m 367 172 q 415 188 392 172 q 458 232 439 204 q 491 297 476 260 q 514 374 506 333 q 522 426 519 399 q 525 481 525 454 q 506 560 525 531 q 449 590 486 590 q 398 572 421 590 q 356 524 375 554 q 323 454 336 493 q 302 371 310 415 q 294 282 294 326 q 315 199 294 225 q 367 172 335 172 m 767 444 q 878 460 836 444 q 939 503 919 476 q 958 557 958 529 q 942 600 958 585 q 894 615 926 615 q 828 592 860 615 q 773 529 796 568 q 740 444 750 490 l 767 444 m 581 858 q 638 919 607 883 q 697 994 668 956 q 749 1064 726 1032 l 1008 1064 l 1008 1053 q 962 1006 993 1035 q 891 947 931 978 q 813 888 851 917 q 746 842 774 860 l 581 842 l 581 858 z "},"Ǿ":{"ha":1018,"x_min":67,"x_max":983,"o":"m 172 -58 l 67 19 l 147 121 q 95 231 113 169 q 78 365 78 292 q 92 520 78 443 q 134 669 106 597 q 206 801 163 740 q 307 909 249 863 q 439 981 365 956 q 603 1007 513 1007 q 719 994 667 1007 q 813 957 771 981 l 879 1040 l 983 961 l 910 868 q 959 761 943 821 q 975 631 975 701 q 962 474 975 553 q 920 324 949 396 q 849 190 892 251 q 749 83 807 128 q 619 12 692 38 q 457 -14 546 -14 q 340 -1 393 -14 q 246 35 288 11 l 172 -58 m 472 181 q 546 195 511 181 q 610 236 581 210 q 665 301 640 263 q 706 388 689 340 q 733 493 724 436 q 742 613 742 550 q 742 634 742 622 q 740 656 742 646 l 381 203 q 421 186 397 192 q 472 181 444 181 m 678 788 q 638 807 661 800 q 585 814 614 814 q 508 798 544 814 q 442 753 472 782 q 388 683 413 724 q 346 594 363 643 q 321 492 329 546 q 313 381 313 438 q 313 355 313 368 q 315 328 314 342 l 678 788 m 533 1085 q 590 1146 560 1110 q 650 1220 621 1182 q 701 1290 679 1258 l 961 1290 l 961 1279 q 915 1233 946 1261 q 844 1174 883 1204 q 765 1115 804 1143 q 699 1068 726 1086 l 533 1068 l 533 1085 z "},"ǿ":{"ha":840,"x_min":36,"x_max":846,"o":"m 128 -72 l 36 1 l 115 96 q 74 178 88 133 q 60 279 60 224 q 76 433 60 360 q 127 569 93 507 q 212 678 161 632 q 331 751 263 725 q 482 776 399 776 q 571 767 531 776 q 643 739 611 757 l 701 808 l 794 735 l 732 657 q 768 578 756 622 q 781 479 781 533 q 764 328 781 401 q 714 193 747 256 q 631 84 681 131 q 513 12 581 38 q 361 -14 444 -14 q 277 -4 317 -14 q 204 21 238 6 l 128 -72 m 383 160 q 440 174 414 160 q 485 213 465 188 q 521 271 506 238 q 545 343 536 304 q 558 424 554 382 q 559 438 558 431 q 560 453 560 446 l 329 172 q 352 163 338 167 q 383 160 367 160 m 519 586 q 494 599 510 594 q 461 604 479 604 q 401 590 428 604 q 353 548 374 575 q 318 486 333 521 q 294 410 303 451 q 282 326 285 369 q 281 312 281 319 q 281 297 281 304 l 519 586 m 417 858 q 474 919 443 883 q 533 994 504 956 q 585 1064 563 1032 l 844 1064 l 844 1053 q 798 1006 829 1035 q 727 947 767 978 q 649 888 688 917 q 582 842 610 860 l 417 842 l 417 858 z "},"Ș":{"ha":747,"x_min":28,"x_max":763,"o":"m 276 -14 q 138 3 203 -14 q 28 49 74 19 l 28 258 q 152 203 86 225 q 281 181 218 181 q 335 186 311 181 q 378 204 360 192 q 406 234 396 217 q 415 276 415 251 q 400 333 415 308 q 358 378 385 357 q 299 425 332 400 q 219 499 256 460 q 160 587 182 538 q 138 701 138 636 q 162 824 138 768 q 232 920 186 879 q 342 983 278 961 q 483 1006 406 1006 q 632 988 563 1006 q 763 936 701 971 l 681 758 q 581 797 631 782 q 485 813 531 813 q 436 806 457 813 q 401 785 415 799 q 381 754 388 771 q 374 718 374 738 q 386 667 374 690 q 424 622 399 644 q 490 571 450 600 q 581 492 546 533 q 634 403 617 450 q 651 299 651 356 q 624 164 651 222 q 547 66 597 106 q 428 6 497 26 q 276 -14 360 -14 m 97 -289 q 126 -224 111 -260 q 154 -151 140 -187 q 178 -85 168 -114 l 394 -85 l 394 -99 q 350 -167 375 -132 q 297 -237 325 -203 q 238 -307 268 -272 l 97 -307 l 97 -289 z "},"ș":{"ha":675,"x_min":18,"x_max":647,"o":"m 251 -14 q 121 -3 178 -14 q 18 31 64 7 l 18 218 q 128 172 75 186 q 239 157 182 157 q 289 163 264 157 q 331 184 314 169 q 347 222 347 199 q 339 254 347 240 q 308 285 331 268 q 238 328 285 303 q 158 383 190 354 q 110 449 126 413 q 94 535 94 486 q 129 664 94 610 q 231 747 164 718 q 396 776 297 776 q 527 760 465 776 q 647 708 589 744 l 574 551 q 488 594 535 576 q 399 611 442 611 q 350 598 371 611 q 329 556 329 585 q 338 528 329 540 q 369 502 347 515 q 426 469 390 489 q 510 415 475 446 q 563 346 544 385 q 582 258 582 307 q 541 107 582 168 q 426 16 500 46 q 251 -14 353 -14 m 67 -289 q 95 -224 81 -260 q 124 -151 110 -187 q 147 -85 138 -114 l 364 -85 l 364 -99 q 319 -167 344 -132 q 266 -237 294 -203 q 207 -307 238 -272 l 67 -307 l 67 -289 z "},"ˆ":{"ha":703,"x_min":157,"x_max":744,"o":"m 157 858 q 224 922 186 885 q 299 996 261 958 q 361 1064 336 1033 l 624 1064 q 658 994 638 1032 q 702 922 679 957 q 744 858 725 886 l 744 842 l 589 842 q 553 876 574 856 q 515 918 533 896 q 481 957 496 940 q 402 897 442 925 q 321 842 363 868 l 157 842 l 157 858 z "},"ˇ":{"ha":703,"x_min":201,"x_max":789,"o":"m 321 842 q 286 911 307 874 q 243 985 265 949 q 201 1047 221 1021 l 201 1064 l 357 1064 q 392 1030 372 1050 q 431 988 413 1010 q 464 949 450 965 q 543 1009 504 981 q 624 1064 582 1038 l 789 1064 l 789 1047 q 720 984 758 1021 q 647 910 682 947 q 585 842 611 872 l 321 842 z "},"ˉ":{"ha":546,"x_min":154,"x_max":621,"o":"m 154 842 l 186 993 l 621 993 l 589 842 l 154 842 z "},"˘":{"ha":624,"x_min":200,"x_max":715,"o":"m 429 842 q 299 869 350 842 q 224 941 249 896 q 200 1040 200 986 q 201 1064 200 1054 q 204 1081 203 1074 l 336 1081 q 349 1033 336 1051 q 385 1004 361 1014 q 443 994 408 994 q 528 1013 493 994 q 578 1081 563 1031 l 715 1081 q 627 903 696 965 q 429 842 558 842 z "},"˙":{"ha":363,"x_min":178,"x_max":429,"o":"m 293 847 q 211 867 244 847 q 178 936 178 886 q 215 1035 178 1003 q 315 1067 251 1067 q 372 1059 346 1067 q 413 1032 397 1051 q 429 978 429 1013 q 398 883 429 919 q 293 847 367 847 z "},"˚":{"ha":471,"x_min":192,"x_max":543,"o":"m 367 840 q 240 884 289 840 q 192 1006 192 928 q 240 1127 192 1083 q 367 1171 289 1171 q 492 1127 440 1171 q 543 1007 543 1083 q 493 884 543 928 q 367 840 443 840 m 367 944 q 411 961 393 944 q 429 1006 429 978 q 411 1050 429 1033 q 367 1067 393 1067 q 323 1050 342 1067 q 304 1006 304 1033 q 320 961 304 978 q 367 944 336 944 z "},"˛":{"ha":421,"x_min":-65,"x_max":233,"o":"m 94 -343 q -24 -304 18 -343 q -65 -206 -65 -265 q -47 -123 -65 -158 q 6 -57 -28 -87 q 82 0 39 -26 l 233 0 q 169 -54 199 -28 q 122 -108 140 -81 q 104 -168 104 -136 q 114 -195 104 -185 q 142 -206 124 -206 q 179 -201 163 -206 q 215 -192 196 -197 l 215 -325 q 160 -338 189 -333 q 94 -343 132 -343 z "},"˜":{"ha":654,"x_min":154,"x_max":743,"o":"m 154 840 q 197 966 168 918 q 265 1037 225 1014 q 354 1060 304 1060 q 412 1049 386 1060 q 460 1025 438 1039 q 503 1001 482 1011 q 546 990 524 990 q 588 1008 569 990 q 621 1061 607 1025 l 743 1061 q 697 933 726 982 q 628 863 668 885 q 538 842 589 842 q 478 852 504 842 q 429 876 451 863 q 385 900 407 890 q 342 910 364 910 q 302 892 321 910 q 276 840 283 874 l 154 840 z "},"˝":{"ha":738,"x_min":157,"x_max":824,"o":"m 447 860 q 496 922 469 886 q 550 995 522 957 q 596 1064 578 1033 l 824 1064 l 824 1051 q 781 1006 811 1033 q 714 947 751 978 q 640 889 676 917 q 575 842 603 861 l 447 842 l 447 860 m 157 860 q 208 922 181 886 q 263 995 235 957 q 310 1064 290 1033 l 538 1064 l 538 1051 q 494 1006 524 1033 q 425 947 464 978 q 349 889 386 917 q 286 842 313 861 l 157 842 l 157 860 z "},"΄":{"ha":429,"x_min":154,"x_max":521,"o":"m 154 842 l 158 860 l 269 1078 l 521 1078 l 518 1064 l 303 842 l 154 842 z "},"΅":{"ha":1047,"x_min":247,"x_max":1054,"o":"m 488 842 l 492 860 l 589 1078 l 842 1078 l 839 1064 l 638 842 l 488 842 m 340 858 q 272 882 297 858 q 257 956 247 906 q 303 1031 268 1007 q 382 1054 339 1054 q 451 1031 425 1054 q 467 956 478 1007 q 419 882 456 906 q 340 858 383 858 m 917 858 q 847 882 872 858 q 832 956 822 906 q 878 1031 843 1007 q 958 1054 914 1054 q 1028 1031 1001 1054 q 1043 956 1054 1007 q 997 882 1033 906 q 917 858 960 858 z "},"Ά":{"ha":1067,"x_min":81,"x_max":979,"o":"m 81 0 l 593 992 l 888 992 l 979 0 l 751 0 l 740 213 l 426 213 l 325 0 l 81 0 m 517 406 l 731 406 l 717 675 q 713 749 714 711 q 713 824 711 786 l 708 824 q 683 756 697 789 q 650 683 668 722 l 517 406 m 108 756 l 113 774 l 224 992 l 475 992 l 472 978 l 257 756 l 108 756 z "},"·":{"ha":408,"x_min":117,"x_max":379,"o":"m 229 528 q 144 556 172 528 q 117 628 117 583 q 156 733 117 692 q 268 774 196 774 q 349 748 318 774 q 379 671 379 722 q 338 564 379 600 q 229 528 297 528 z "},"Έ":{"ha":1093,"x_min":94,"x_max":1138,"o":"m 357 0 l 567 992 l 1138 992 l 1097 800 l 761 800 l 722 610 l 1035 610 l 993 418 l 679 418 l 632 194 l 968 194 l 928 0 l 357 0 m 94 756 l 99 774 l 210 992 l 461 992 l 458 978 l 243 756 l 94 756 z "},"Ή":{"ha":1308,"x_min":94,"x_max":1315,"o":"m 357 0 l 567 992 l 801 992 l 722 613 l 1003 613 l 1082 992 l 1315 992 l 1106 0 l 872 0 l 960 417 l 679 417 l 592 0 l 357 0 m 94 756 l 99 774 l 210 992 l 461 992 l 458 978 l 243 756 l 94 756 z "},"Ί":{"ha":915,"x_min":94,"x_max":992,"o":"m 311 0 l 339 135 l 467 189 l 597 800 l 492 857 l 519 992 l 992 992 l 964 857 l 831 800 l 701 189 l 808 135 l 781 0 l 311 0 m 94 756 l 99 774 l 210 992 l 461 992 l 458 978 l 243 756 l 94 756 z "},"Ό":{"ha":1276,"x_min":94,"x_max":1233,"o":"m 710 -14 q 503 33 586 -14 q 378 166 419 81 q 336 365 336 251 q 350 520 336 443 q 392 669 364 597 q 465 801 421 740 q 567 909 508 863 q 701 981 626 956 q 867 1007 776 1007 q 1141 904 1049 1007 q 1233 631 1233 801 q 1220 474 1233 553 q 1178 324 1207 396 q 1108 190 1150 251 q 1007 83 1065 128 q 874 12 949 38 q 710 -14 800 -14 m 729 182 q 800 197 765 182 q 865 240 835 211 q 918 308 894 268 q 960 397 942 347 q 987 504 978 446 q 996 626 996 563 q 958 762 996 713 q 847 811 921 811 q 771 794 807 811 q 704 747 735 778 q 649 675 674 717 q 608 583 625 633 q 582 478 590 533 q 574 367 574 424 q 592 266 574 307 q 644 203 610 225 q 729 182 679 182 m 94 756 l 99 774 l 210 992 l 461 992 l 458 978 l 243 756 l 94 756 z "},"Ύ":{"ha":1196,"x_min":94,"x_max":1318,"o":"m 586 0 l 667 382 l 507 992 l 747 992 l 822 606 l 1057 992 l 1318 992 l 900 382 l 819 0 l 586 0 m 94 756 l 99 774 l 210 992 l 461 992 l 458 978 l 243 756 l 94 756 z "},"Ώ":{"ha":1333,"x_min":94,"x_max":1306,"o":"m 283 0 l 325 196 l 519 196 q 438 291 467 235 q 402 416 408 347 q 406 561 396 485 q 488 791 424 690 q 659 949 553 892 q 910 1007 765 1007 q 1144 949 1056 1007 q 1269 790 1233 890 q 1288 561 1306 689 q 1248 417 1276 485 q 1171 292 1219 349 q 1051 196 1122 236 l 1250 196 l 1208 0 l 813 0 l 858 215 q 964 303 925 251 q 1022 417 1003 356 q 1050 539 1042 478 q 1048 688 1063 628 q 992 781 1033 749 q 882 813 951 813 q 765 781 814 813 q 685 689 715 750 q 639 542 654 628 q 630 420 631 482 q 650 305 629 358 q 722 215 671 251 l 676 0 l 283 0 m 94 756 l 99 774 l 210 992 l 461 992 l 458 978 l 243 756 l 94 756 z "},"ΐ":{"ha":583,"x_min":13,"x_max":819,"o":"m 283 -14 q 151 11 201 -14 q 78 79 100 36 q 56 175 56 122 q 58 210 56 193 q 64 246 60 228 l 174 763 l 407 763 l 306 289 q 301 264 303 275 q 300 243 300 253 q 321 188 300 201 q 372 174 342 174 q 419 177 399 174 q 465 186 440 181 l 426 3 q 358 -9 399 -4 q 283 -14 318 -14 m 253 842 l 257 860 l 354 1078 l 607 1078 l 604 1064 l 403 842 l 253 842 m 106 858 q 38 882 63 858 q 22 956 13 906 q 69 1031 33 1007 q 147 1054 104 1054 q 217 1031 190 1054 q 232 956 243 1007 q 185 882 221 906 q 106 858 149 858 m 682 858 q 613 882 638 858 q 597 956 588 906 q 644 1031 608 1007 q 724 1054 679 1054 q 793 1031 767 1054 q 808 956 819 1007 q 762 882 799 906 q 682 858 725 858 z "},"Α":{"ha":903,"x_min":-83,"x_max":815,"o":"m -83 0 l 429 992 l 724 992 l 815 0 l 588 0 l 576 213 l 263 213 l 161 0 l -83 0 m 353 406 l 567 406 l 553 675 q 549 749 550 711 q 549 824 547 786 l 544 824 q 519 756 533 789 q 486 683 504 722 l 353 406 z "},"Β":{"ha":869,"x_min":29,"x_max":854,"o":"m 29 0 l 239 992 l 547 992 q 716 967 647 992 q 819 893 785 942 q 854 772 854 844 q 830 653 854 704 q 759 569 806 603 q 644 518 713 535 l 644 513 q 747 445 708 493 q 785 324 785 397 q 733 139 785 211 q 592 33 681 67 q 392 0 503 0 l 29 0 m 394 189 q 476 205 442 189 q 529 251 510 221 q 549 322 549 282 q 522 398 549 372 q 436 424 496 424 l 354 424 l 304 189 l 394 189 m 468 604 q 549 618 517 604 q 597 658 581 632 q 613 724 613 685 q 588 785 613 764 q 511 806 563 806 l 435 806 l 392 604 l 468 604 z "},"Γ":{"ha":763,"x_min":29,"x_max":806,"o":"m 29 0 l 239 992 l 806 992 l 765 799 l 431 799 l 263 0 l 29 0 z "},"Ε":{"ha":765,"x_min":29,"x_max":810,"o":"m 29 0 l 239 992 l 810 992 l 769 800 l 433 800 l 394 610 l 707 610 l 665 418 l 351 418 l 304 194 l 640 194 l 600 0 l 29 0 z "},"Ζ":{"ha":746,"x_min":-51,"x_max":819,"o":"m -51 0 l -22 149 l 478 799 l 129 799 l 169 992 l 819 992 l 789 840 l 283 193 l 671 193 l 631 0 l -51 0 z "},"Η":{"ha":981,"x_min":29,"x_max":988,"o":"m 29 0 l 239 992 l 474 992 l 394 613 l 675 613 l 754 992 l 988 992 l 778 0 l 544 0 l 632 417 l 351 417 l 264 0 l 29 0 z "},"Θ":{"ha":1018,"x_min":78,"x_max":975,"o":"m 375 411 l 415 597 l 678 597 l 639 411 l 375 411 m 451 -14 q 244 33 328 -14 q 119 166 161 81 q 78 365 78 251 q 92 520 78 443 q 134 669 106 597 q 206 801 163 740 q 309 909 250 863 q 443 981 368 956 q 608 1007 518 1007 q 883 904 790 1007 q 975 631 975 801 q 962 474 975 553 q 920 324 949 396 q 849 190 892 251 q 749 83 807 128 q 616 12 690 38 q 451 -14 542 -14 m 471 182 q 542 197 507 182 q 606 240 576 211 q 660 308 636 268 q 701 397 683 347 q 728 504 719 446 q 738 626 738 563 q 700 762 738 713 q 589 811 663 811 q 513 794 549 811 q 446 747 476 778 q 391 675 415 717 q 349 583 367 633 q 324 478 332 533 q 315 367 315 424 q 333 266 315 307 q 386 203 351 225 q 471 182 421 182 z "},"Ι":{"ha":560,"x_min":-44,"x_max":636,"o":"m -44 0 l -17 135 l 111 189 l 242 800 l 136 857 l 164 992 l 636 992 l 608 857 l 475 800 l 346 189 l 453 135 l 425 0 l -44 0 z "},"Κ":{"ha":888,"x_min":29,"x_max":1004,"o":"m 29 0 l 239 992 l 474 992 l 375 538 l 478 679 l 728 992 l 1004 992 l 614 525 l 806 0 l 544 0 l 413 397 l 338 354 l 264 0 l 29 0 z "},"Λ":{"ha":850,"x_min":-83,"x_max":763,"o":"m -83 0 l 417 994 l 678 994 l 763 0 l 535 0 l 506 528 q 502 649 503 581 q 504 769 501 717 l 501 769 q 467 667 488 721 q 429 574 447 613 l 164 0 l -83 0 z "},"Μ":{"ha":1240,"x_min":29,"x_max":1247,"o":"m 29 0 l 239 992 l 549 992 l 572 267 l 578 267 l 928 992 l 1247 992 l 1036 0 l 825 0 l 914 425 q 944 558 929 499 q 972 663 960 617 q 993 742 985 710 l 988 742 l 628 0 l 410 0 l 388 742 l 382 742 q 366 638 375 694 q 347 525 357 582 q 326 417 338 468 l 239 0 l 29 0 z "},"Ν":{"ha":1071,"x_min":29,"x_max":1078,"o":"m 29 0 l 239 992 l 513 992 l 726 290 l 732 290 q 743 367 736 321 q 758 461 750 413 q 774 547 767 510 l 869 992 l 1078 992 l 868 0 l 601 0 l 381 725 l 374 725 q 369 683 372 715 q 360 608 365 651 q 347 522 354 565 q 332 442 339 478 l 239 0 l 29 0 z "},"Ξ":{"ha":804,"x_min":7,"x_max":822,"o":"m 7 0 l 46 194 l 679 194 l 639 0 l 7 0 m 161 418 l 204 610 l 694 610 l 651 418 l 161 418 m 196 800 l 236 992 l 822 992 l 782 800 l 196 800 z "},"Ο":{"ha":1018,"x_min":78,"x_max":975,"o":"m 451 -14 q 244 33 328 -14 q 119 166 161 81 q 78 365 78 251 q 92 520 78 443 q 134 669 106 597 q 206 801 163 740 q 309 909 250 863 q 443 981 368 956 q 608 1007 518 1007 q 883 904 790 1007 q 975 631 975 801 q 962 474 975 553 q 920 324 949 396 q 849 190 892 251 q 749 83 807 128 q 616 12 690 38 q 451 -14 542 -14 m 471 182 q 542 197 507 182 q 606 240 576 211 q 660 308 636 268 q 701 397 683 347 q 728 504 719 446 q 738 626 738 563 q 700 762 738 713 q 589 811 663 811 q 513 794 549 811 q 446 747 476 778 q 391 675 415 717 q 349 583 367 633 q 324 478 332 533 q 315 367 315 424 q 333 266 315 307 q 386 203 351 225 q 471 182 421 182 z "},"Π":{"ha":978,"x_min":29,"x_max":985,"o":"m 29 0 l 239 992 l 985 992 l 775 0 l 540 0 l 708 796 l 432 796 l 264 0 l 29 0 z "},"Ρ":{"ha":856,"x_min":29,"x_max":851,"o":"m 29 0 l 239 992 l 506 992 q 707 954 631 992 q 817 850 783 917 q 851 699 851 783 q 819 543 851 610 q 729 432 788 476 q 592 365 671 388 q 418 342 513 342 l 335 342 l 264 0 l 29 0 m 442 535 q 534 554 494 535 q 595 609 574 574 q 617 692 617 644 q 589 770 617 742 q 504 799 561 799 l 433 799 l 376 535 l 442 535 z "},"Σ":{"ha":740,"x_min":-51,"x_max":814,"o":"m -51 0 l -17 176 l 290 517 l 161 815 l 197 992 l 814 992 l 774 800 l 542 800 q 503 801 525 800 q 456 803 481 801 q 404 807 431 804 l 514 549 l 503 501 l 233 185 q 329 191 281 189 q 426 193 378 193 l 665 193 l 624 0 l -51 0 z "},"Τ":{"ha":751,"x_min":110,"x_max":843,"o":"m 171 0 l 338 796 l 110 796 l 151 992 l 843 992 l 800 796 l 572 796 l 404 0 l 171 0 z "},"Υ":{"ha":808,"x_min":119,"x_max":931,"o":"m 199 0 l 279 382 l 119 992 l 360 992 l 435 606 l 669 992 l 931 992 l 513 382 l 432 0 l 199 0 z "},"Φ":{"ha":1249,"x_min":68,"x_max":1222,"o":"m 424 -14 l 453 125 q 249 163 328 129 q 130 253 171 197 q 78 377 89 308 q 78 518 68 446 q 122 653 88 586 q 221 775 157 721 q 383 863 285 829 q 617 897 481 896 l 639 1006 l 860 1006 l 838 897 q 1041 858 963 893 q 1160 769 1119 824 q 1211 645 1200 714 q 1211 504 1222 576 q 1167 369 1203 436 q 1068 247 1132 301 q 906 160 1004 193 q 674 125 808 126 l 644 -14 l 424 -14 m 490 307 l 578 717 q 430 688 488 715 q 343 617 372 661 q 306 517 314 574 q 303 442 300 478 q 325 376 307 406 q 383 327 343 346 q 490 307 422 308 m 713 306 q 860 335 803 308 q 947 405 918 361 q 985 506 976 449 q 986 581 989 544 q 965 647 983 617 q 908 695 947 676 q 799 715 868 714 l 713 306 z "},"Χ":{"ha":878,"x_min":-82,"x_max":985,"o":"m -82 0 l 304 522 l 149 992 l 394 992 l 489 656 l 718 992 l 985 992 l 617 500 l 797 0 l 540 0 l 432 354 l 182 0 l -82 0 z "},"Ψ":{"ha":1244,"x_min":140,"x_max":1256,"o":"m 419 0 l 471 242 q 299 270 368 243 q 192 348 231 297 q 147 473 154 399 q 160 643 140 547 l 233 992 l 463 992 l 388 639 q 378 514 371 558 q 420 453 386 469 q 514 439 454 438 l 631 992 l 858 992 l 742 439 q 838 456 796 439 q 908 517 879 474 q 951 636 936 561 l 1028 992 l 1256 992 l 1182 643 q 1127 472 1161 546 q 1038 347 1093 399 q 899 270 982 296 q 700 242 817 244 l 647 0 l 419 0 z "},"Ϊ":{"ha":560,"x_min":-44,"x_max":686,"o":"m -44 0 l -17 135 l 111 189 l 242 800 l 136 857 l 164 992 l 636 992 l 608 857 l 475 800 l 346 189 l 453 135 l 425 0 l -44 0 m 569 1088 q 499 1104 526 1088 q 471 1167 471 1121 q 502 1255 471 1226 q 589 1283 533 1283 q 656 1267 626 1283 q 686 1204 686 1251 q 660 1119 686 1151 q 569 1088 633 1088 m 278 1088 q 206 1104 235 1088 q 178 1167 178 1121 q 209 1255 178 1226 q 296 1283 240 1283 q 344 1276 321 1283 q 381 1253 367 1269 q 394 1204 394 1236 q 368 1119 394 1151 q 278 1088 342 1088 z "},"Ϋ":{"ha":808,"x_min":119,"x_max":931,"o":"m 199 0 l 279 382 l 119 992 l 360 992 l 435 606 l 669 992 l 931 992 l 513 382 l 432 0 l 199 0 m 682 1088 q 611 1104 639 1088 q 583 1167 583 1121 q 615 1255 583 1226 q 701 1283 646 1283 q 769 1267 739 1283 q 799 1204 799 1251 q 772 1119 799 1151 q 682 1088 746 1088 m 390 1088 q 319 1104 347 1088 q 290 1167 290 1121 q 322 1255 290 1226 q 408 1283 353 1283 q 456 1276 433 1283 q 493 1253 479 1269 q 507 1204 507 1236 q 481 1119 507 1151 q 390 1088 454 1088 z "},"ά":{"ha":869,"x_min":56,"x_max":810,"o":"m 267 -14 q 114 58 172 -14 q 56 269 56 129 q 70 408 56 338 q 114 545 85 479 q 185 663 143 611 q 283 746 226 715 q 406 776 339 776 q 488 760 453 776 q 546 719 522 744 q 586 665 569 693 l 592 665 l 629 763 l 810 763 l 703 261 q 700 242 701 251 q 699 224 699 232 q 708 189 699 201 q 742 176 718 176 q 765 178 753 176 q 785 183 776 181 l 746 4 q 717 -4 735 0 q 679 -11 699 -8 q 642 -14 660 -14 q 556 -3 594 -14 q 492 30 518 7 q 453 90 467 53 l 447 90 q 408 46 432 71 q 350 3 385 21 q 267 -14 315 -14 m 367 172 q 425 194 399 172 q 472 251 451 215 q 503 332 492 288 q 520 408 514 368 q 526 483 526 449 q 507 562 526 533 q 451 590 488 590 q 398 572 422 590 q 354 521 374 553 q 320 449 335 489 q 298 367 306 410 q 290 288 290 325 q 310 201 290 229 q 367 172 329 172 m 378 842 l 382 860 l 493 1078 l 744 1078 l 742 1064 l 526 842 l 378 842 z "},"έ":{"ha":643,"x_min":32,"x_max":736,"o":"m 308 -14 q 164 10 226 -14 q 67 82 101 35 q 32 196 32 129 q 83 333 32 286 q 229 399 135 381 l 229 404 q 156 460 185 422 q 126 556 126 497 q 163 680 126 631 q 264 753 199 729 q 418 776 329 776 q 558 760 497 776 q 669 717 619 744 l 610 550 q 523 590 567 575 q 426 606 479 606 q 376 598 396 606 q 346 575 356 590 q 336 535 336 560 q 360 488 336 504 q 429 472 383 472 l 510 472 l 476 311 l 388 311 q 322 302 350 311 q 279 276 294 293 q 264 233 264 260 q 286 181 264 200 q 350 163 308 163 q 469 181 421 163 q 556 222 518 200 l 556 40 q 451 1 511 15 q 308 -14 392 -14 m 368 842 l 372 860 l 483 1078 l 735 1078 l 732 1064 l 517 842 l 368 842 z "},"ή":{"ha":851,"x_min":21,"x_max":808,"o":"m 538 432 q 545 476 542 453 q 549 519 549 500 q 532 574 549 557 q 489 592 515 592 q 435 575 460 592 q 390 526 411 558 q 353 448 369 494 q 324 342 336 401 l 251 0 l 21 0 l 182 763 l 363 763 l 351 638 l 357 638 q 401 697 378 671 q 453 740 425 722 q 513 767 481 758 q 583 776 546 776 q 694 749 650 776 q 760 672 738 721 q 782 560 782 624 q 777 493 782 529 q 765 421 772 457 l 608 -333 l 378 -333 l 538 432 m 440 842 l 444 860 l 556 1078 l 807 1078 l 804 1064 l 589 842 l 440 842 z "},"ί":{"ha":536,"x_min":56,"x_max":617,"o":"m 283 -14 q 151 11 201 -14 q 78 79 100 36 q 56 175 56 122 q 58 210 56 193 q 64 246 60 228 l 174 763 l 407 763 l 306 289 q 301 264 303 275 q 300 243 300 253 q 321 188 300 201 q 372 174 342 174 q 419 177 399 174 q 465 186 440 181 l 426 3 q 358 -9 399 -4 q 283 -14 318 -14 m 250 842 l 254 860 l 365 1078 l 617 1078 l 614 1064 l 399 842 l 250 842 z "},"ΰ":{"ha":853,"x_min":58,"x_max":997,"o":"m 342 -12 q 159 31 224 -12 q 76 148 94 74 q 78 313 58 222 l 174 763 l 404 763 l 307 301 q 306 206 294 239 q 371 174 318 174 q 483 222 436 174 q 553 374 531 269 q 567 464 561 415 q 577 565 574 513 q 580 669 581 618 q 575 763 579 721 l 799 763 q 809 649 807 714 q 806 515 811 585 q 789 379 801 446 q 704 169 764 256 q 553 35 644 82 q 342 -12 463 -12 m 431 842 l 435 860 l 532 1078 l 785 1078 l 782 1064 l 581 842 l 431 842 m 283 858 q 215 882 240 858 q 200 956 190 906 q 247 1031 211 1007 q 325 1054 282 1054 q 394 1031 368 1054 q 410 956 421 1007 q 363 882 399 906 q 283 858 326 858 m 860 858 q 790 882 815 858 q 775 956 765 906 q 822 1031 786 1007 q 901 1054 857 1054 q 971 1031 944 1054 q 986 956 997 1007 q 940 882 976 906 q 860 858 903 858 z "},"α":{"ha":869,"x_min":56,"x_max":810,"o":"m 267 -14 q 114 58 172 -14 q 56 269 56 129 q 70 408 56 338 q 114 545 85 479 q 185 663 143 611 q 283 746 226 715 q 406 776 339 776 q 488 760 453 776 q 546 719 522 744 q 586 665 569 693 l 592 665 l 629 763 l 810 763 l 703 261 q 700 242 701 251 q 699 224 699 232 q 708 189 699 201 q 742 176 718 176 q 765 178 753 176 q 785 183 776 181 l 746 4 q 717 -4 735 0 q 679 -11 699 -8 q 642 -14 660 -14 q 556 -3 594 -14 q 492 30 518 7 q 453 90 467 53 l 447 90 q 408 46 432 71 q 350 3 385 21 q 267 -14 315 -14 m 367 172 q 425 194 399 172 q 472 251 451 215 q 503 332 492 288 q 520 408 514 368 q 526 483 526 449 q 507 562 526 533 q 451 590 488 590 q 398 572 422 590 q 354 521 374 553 q 320 449 335 489 q 298 367 306 410 q 290 288 290 325 q 310 201 290 229 q 367 172 329 172 z "},"β":{"ha":867,"x_min":-49,"x_max":847,"o":"m -49 -333 l 171 710 q 246 915 197 838 q 369 1027 294 992 q 547 1063 443 1063 q 709 1035 642 1063 q 812 953 776 1007 q 847 824 847 900 q 818 688 847 746 q 735 596 789 631 q 610 551 682 561 q 744 477 693 538 q 794 324 794 417 q 778 206 794 265 q 722 97 761 147 q 615 17 682 47 q 447 -14 549 -14 q 334 1 379 -14 q 261 33 289 17 l 183 -333 l -49 -333 m 414 172 q 474 185 447 172 q 519 219 500 197 q 547 270 538 240 q 557 333 557 300 q 542 406 558 378 q 499 447 526 433 q 433 461 471 461 l 408 461 l 444 635 l 479 635 q 535 646 511 635 q 578 677 560 657 q 605 725 596 697 q 614 786 614 753 q 589 860 614 839 q 536 881 564 881 q 485 868 508 881 q 442 822 461 856 q 410 726 424 789 l 299 210 q 351 183 318 193 q 414 172 383 172 z "},"γ":{"ha":728,"x_min":61,"x_max":738,"o":"m 61 -299 l 138 61 l 65 763 l 292 763 l 304 336 q 305 297 304 319 q 306 251 306 274 q 307 208 307 228 l 313 208 q 401 352 364 275 q 463 529 438 429 q 503 763 489 629 l 738 763 q 681 494 722 619 q 561 254 639 369 q 358 24 483 139 l 292 -299 l 61 -299 z "},"δ":{"ha":817,"x_min":49,"x_max":868,"o":"m 354 -14 q 178 23 246 -14 q 80 121 111 60 q 49 256 49 182 q 85 431 49 351 q 188 565 121 510 q 349 643 256 621 q 285 716 310 678 q 261 815 261 754 q 303 953 261 899 q 415 1035 344 1008 q 572 1063 486 1063 q 735 1042 664 1063 q 868 981 806 1022 l 776 815 q 673 874 724 856 q 579 892 622 892 q 514 873 538 892 q 490 822 490 854 q 500 783 490 801 q 535 742 510 764 q 603 682 560 719 q 687 594 653 640 q 738 497 721 549 q 756 388 756 446 q 729 224 756 297 q 651 97 703 150 q 525 15 600 44 q 354 -14 450 -14 m 374 167 q 431 183 406 167 q 476 227 457 199 q 507 294 496 256 q 518 379 518 333 q 510 439 518 411 q 488 492 503 467 q 446 538 472 517 q 358 478 394 518 q 304 385 322 438 q 286 276 286 333 q 296 218 286 243 q 325 180 306 193 q 374 167 344 167 z "},"ε":{"ha":643,"x_min":32,"x_max":669,"o":"m 308 -14 q 164 10 226 -14 q 67 82 101 35 q 32 196 32 129 q 83 333 32 286 q 229 399 135 381 l 229 404 q 156 460 185 422 q 126 556 126 497 q 163 680 126 631 q 264 753 199 729 q 418 776 329 776 q 558 760 497 776 q 669 717 619 744 l 610 550 q 523 590 567 575 q 426 606 479 606 q 376 598 396 606 q 346 575 356 590 q 336 535 336 560 q 360 488 336 504 q 429 472 383 472 l 510 472 l 476 311 l 388 311 q 322 302 350 311 q 279 276 294 293 q 264 233 264 260 q 286 181 264 200 q 350 163 308 163 q 469 181 421 163 q 556 222 518 200 l 556 40 q 451 1 511 15 q 308 -14 392 -14 z "},"ζ":{"ha":631,"x_min":22,"x_max":774,"o":"m 264 -281 q 313 -199 296 -236 q 333 -128 331 -162 q 332 -86 336 -106 q 308 -47 328 -67 q 240 -6 288 -26 q 115 72 165 29 q 44 173 65 114 q 33 313 22 232 q 67 429 42 374 q 135 540 93 485 q 233 653 176 594 q 358 775 289 711 l 486 893 q 442 886 468 889 q 390 882 417 883 q 344 881 364 881 l 143 881 l 181 1056 l 774 1056 l 742 914 l 517 683 q 381 538 432 597 q 307 432 331 479 q 276 335 283 385 q 284 264 274 296 q 328 203 294 232 q 424 147 361 175 q 520 88 485 121 q 567 13 556 56 q 571 -82 579 -29 q 551 -158 565 -122 q 520 -225 538 -194 q 485 -281 503 -256 l 264 -281 z "},"η":{"ha":851,"x_min":21,"x_max":782,"o":"m 538 432 q 545 476 542 453 q 549 519 549 500 q 532 574 549 557 q 489 592 515 592 q 435 575 460 592 q 390 526 411 558 q 353 448 369 494 q 324 342 336 401 l 251 0 l 21 0 l 182 763 l 363 763 l 351 638 l 357 638 q 401 697 378 671 q 453 740 425 722 q 513 767 481 758 q 583 776 546 776 q 694 749 650 776 q 760 672 738 721 q 782 560 782 624 q 777 493 782 529 q 765 421 772 457 l 608 -333 l 378 -333 l 538 432 z "}}}
